<?xml version="1.0" encoding="UTF-8"?>
<svg xmlns="http://www.w3.org/2000/svg" xmlns:xlink="http://www.w3.org/1999/xlink" version="1.2" >
<font id="Maxwell SmCaps Bold">
<font-face  font-family="Maxwell SmCaps" units-per-em="1000" ascent="750" descent="-250" font-style="normal" font-weight="700" font-stretch="normal" cap-height="676" x-height="486" underline-position="-75" underline-thickness="50" />
<missing-glyph  horiz-adv-x="173" d="" />
<glyph glyph-name="space" unicode="&#x20;" horiz-adv-x="173" d="" />
<glyph glyph-name="exclam" unicode="&#x21;" horiz-adv-x="192" d="M44 161 L170 161 L170 820 L44 820 L44 161 L44 161 Z M44 2 L169 2 L169 101 L44 101 L44 2 L44 2 Z " />
<glyph glyph-name="quotedbl" unicode="&#x22;" horiz-adv-x="251" d="M140 700 L196 700 L203 814 L133 814 L140 700 L140 700 Z M52 700 L106 700 L114 814 L44 814 L52 700 L52 700 Z " />
<glyph glyph-name="numbersign" unicode="&#x23;" horiz-adv-x="628" d="M488 814 L362 814 L362 628 L254 628 L254 814 L128 814 L128 628 L44 628 L44 502 L128 502 L128 350 L44 350 L44 224 L128 224 L128 7 L254 7 L254 224 L362 224 L362 7 L488 7 L488 224 L566 224 L566 350 L488 350 L488 502 L566 502 L566 628 L488 628 L488 814 L488 814 Z M362 350 L254 350 L254 502 L362 502 L362 350 L362 350 Z " />
<glyph glyph-name="dollar" unicode="&#x24;" horiz-adv-x="468" d="M326 443 L326 683 C344 670 356 650 356 629 L482 629 C482 720 416 796 326 821 L326 888 L200 888 L200 821 C110 798 46 726 44 640 C42 517 122 444 200 382 L200 136 C182 149 172 167 172 188 L46 188 C46 98 110 23 200 -2 L200 -67 L326 -67 L326 -5 C420 16 480 83 482 180 C486 304 403 382 326 443 L326 443 Z M170 638 C170 656 182 673 200 685 L200 554 C180 581 170 607 170 638 L170 638 Z M356 182 C355 172 355 144 326 127 L326 269 C347 242 356 216 356 182 L356 182 Z " />
<glyph glyph-name="percent" unicode="&#x25;" horiz-adv-x="775" d="M401 524 L401 619 C401 728 320 817 222 817 C124 817 44 728 44 619 L44 524 C44 415 124 326 222 326 C320 326 401 415 401 524 L401 524 Z M275 524 C275 486 251 452 222 452 C194 452 170 486 170 524 L170 619 C170 658 194 691 222 691 C251 691 275 658 275 619 L275 524 L275 524 Z M709 494 C611 494 530 406 530 296 L530 200 C530 91 611 2 709 2 C808 2 887 91 887 200 L887 296 C887 406 808 494 709 494 L709 494 Z M761 200 C761 162 737 128 709 128 C682 128 656 162 656 200 L656 296 C656 335 682 368 709 368 C737 368 761 335 761 296 L761 200 L761 200 Z M554 814 L270 7 L380 7 L665 814 L554 814 L554 814 Z " />
<glyph glyph-name="ampersand" unicode="&#x26;" horiz-adv-x="581" d="M487 170 C503 242 516 355 516 444 L392 444 C392 408 391 367 386 328 C353 386 328 433 306 472 C320 488 334 504 341 514 C350 523 358 532 361 538 C426 622 410 690 396 722 C376 768 334 800 284 806 C246 811 208 799 176 773 C138 740 114 690 114 640 C114 614 122 574 164 486 C98 398 44 300 44 208 C44 76 140 7 234 -4 C295 -10 364 7 414 52 C452 -10 480 -50 481 -50 L583 12 C583 13 540 78 486 167 C486 168 486 169 487 170 L487 170 Z M257 685 C260 688 264 690 268 690 C268 690 268 690 268 689 C274 689 281 685 284 677 C292 660 283 634 262 606 C260 604 256 599 251 592 C238 623 236 636 236 640 C236 659 247 676 257 685 L257 685 Z M247 113 C228 115 167 128 167 208 C167 256 193 312 227 365 C247 326 271 284 300 236 C317 208 334 182 349 157 C324 122 283 109 247 113 L247 113 Z " />
<glyph glyph-name="quotesingle" unicode="&#x27;" horiz-adv-x="174" d="M52 700 L106 700 L114 814 L44 814 L52 700 L52 700 Z " />
<glyph glyph-name="parenleft" unicode="&#x28;" horiz-adv-x="322" d="M140 870 C12 582 12 240 140 -49 C173 -49 220 -49 251 -49 C122 240 122 582 251 870 C220 870 173 870 140 870 L140 870 Z " />
<glyph glyph-name="parenright" unicode="&#x29;" horiz-adv-x="295" d="M122 870 C90 870 43 870 12 870 C140 582 140 240 12 -49 C43 -49 90 -49 122 -49 C251 240 251 582 122 870 L122 870 Z " />
<glyph glyph-name="asterisk" unicode="&#x2a;" horiz-adv-x="360" d="M270 796 L240 779 L240 812 L131 812 L131 779 L100 797 L44 701 L76 683 L44 666 L100 570 L131 587 L131 552 L240 552 L240 588 L269 571 L324 666 L296 683 L325 700 L270 796 L270 796 Z " />
<glyph glyph-name="plus" unicode="&#x2b;" horiz-adv-x="426" d="M269 497 L143 497 L143 398 L44 398 L44 272 L143 272 L143 173 L269 173 L269 272 L368 272 L368 398 L269 398 L269 497 L269 497 Z " />
<glyph glyph-name="comma" unicode="&#x2c;" horiz-adv-x="186" d="M128 150 L44 150 L44 71 L82 71 L82 71 C82 34 56 38 56 38 L56 8 C130 8 128 71 128 71 L128 150 L128 150 Z " />
<glyph glyph-name="hyphen" unicode="&#x2d;" horiz-adv-x="410" d="M44 348 L348 348 L348 474 L44 474 L44 348 L44 348 Z " />
<glyph glyph-name="period" unicode="&#x2e;" horiz-adv-x="172" d="M44 71 L133 71 L133 152 L44 152 L44 71 L44 71 Z " />
<glyph glyph-name="slash" unicode="&#x2f;" horiz-adv-x="476" d="M451 814 L329 814 L44 7 L168 7 L451 814 L451 814 Z " />
<glyph glyph-name="zero" unicode="0" horiz-adv-x="538" d="M301 809 L245 809 C136 809 47 720 47 611 L47 198 C47 89 136 0 245 0 L301 0 C410 0 499 89 499 198 L499 611 C499 720 410 809 301 809 L301 809 Z M373 198 C373 158 341 126 301 126 L245 126 C205 126 173 158 173 198 L173 611 C173 650 205 682 245 682 L301 682 C341 682 373 650 373 611 L373 198 L373 198 Z " />
<glyph glyph-name="one" unicode="1" horiz-adv-x="368" d="M187 809 L138 809 L47 718 L136 629 L187 679 L187 0 L313 0 L313 806 L316 809 L313 809 L187 809 L187 809 Z " />
<glyph glyph-name="two" unicode="2" horiz-adv-x="508" d="M294 284 C370 356 456 438 454 590 C452 713 364 809 250 809 C138 809 47 706 47 578 L173 578 C173 635 208 683 250 683 C293 683 328 642 328 589 C329 491 276 440 208 376 C134 306 44 220 47 61 L48 0 L422 0 L422 126 L180 126 C196 190 241 233 294 284 L294 284 Z " />
<glyph glyph-name="three" unicode="3" horiz-adv-x="541" d="M304 582 L499 809 L84 809 L84 683 L223 683 L47 478 L185 478 C254 478 334 457 334 295 C334 184 294 125 256 125 C214 125 179 173 179 229 L53 229 C53 102 143 -1 256 -1 C316 -1 371 30 408 88 C442 140 460 211 460 295 C460 396 433 474 383 528 C361 551 334 569 304 582 L304 582 Z " />
<glyph glyph-name="four" unicode="4" horiz-adv-x="580" d="M449 379 L449 809 L314 809 L47 253 L323 253 L323 0 L449 0 L449 253 L521 253 L521 379 L449 379 L449 379 Z M323 379 L248 379 L323 534 L323 379 L323 379 Z " />
<glyph glyph-name="five" unicode="5" horiz-adv-x="520" d="M356 580 C313 611 259 623 194 616 L194 683 L397 683 L397 809 L68 809 L68 451 L150 476 C193 491 250 502 282 478 C313 455 330 397 330 311 C330 218 312 173 298 151 C286 133 271 126 250 126 C227 126 203 142 188 167 C179 186 173 206 173 229 L47 229 C47 185 58 143 79 106 C116 40 180 0 250 0 C313 0 367 29 402 80 C438 134 456 209 456 311 C456 443 424 530 356 580 L356 580 Z " />
<glyph glyph-name="six" unicode="6" horiz-adv-x="484" d="M234 679 C266 679 294 646 294 607 L420 607 C420 716 336 805 234 805 C131 805 47 716 47 607 L47 365 L47 206 L47 198 C47 89 131 0 234 0 C336 0 420 89 420 198 L420 198 C420 202 420 204 420 206 L420 365 C420 474 336 563 234 563 C212 563 192 559 173 553 L173 607 C173 646 200 679 234 679 L234 679 Z M234 437 C266 437 294 404 294 365 L294 206 C294 168 266 134 234 134 C200 134 173 168 173 206 L173 365 C173 404 200 437 234 437 L234 437 Z " />
<glyph glyph-name="seven" unicode="7" horiz-adv-x="514" d="M442 809 L47 809 L47 683 L280 683 C208 554 102 316 102 -1 L229 -1 C229 221 287 401 336 514 C382 618 428 685 442 702 L442 809 L442 809 Z " />
<glyph glyph-name="eight" unicode="8" horiz-adv-x="511" d="M390 509 C418 541 434 582 434 626 C434 726 352 808 250 808 C148 808 65 726 65 626 C65 582 82 541 109 509 C71 473 47 422 47 365 L47 198 C47 89 136 0 245 0 L254 0 C364 0 452 89 452 198 L452 365 C452 422 428 473 390 509 L390 509 Z M250 682 C282 682 308 656 308 626 C308 596 282 572 250 572 C217 572 191 596 191 626 C191 656 217 682 250 682 L250 682 Z M326 198 C326 158 294 126 254 126 L245 126 C205 126 173 158 173 198 L173 365 C173 404 205 437 245 437 L254 437 C294 437 326 404 326 365 L326 198 L326 198 Z " />
<glyph glyph-name="nine" unicode="9" horiz-adv-x="481" d="M236 808 C235 808 234 809 234 809 C234 809 234 809 234 809 C234 809 234 809 234 809 C131 809 47 720 47 611 L47 610 L47 455 C47 346 131 257 234 257 C254 257 275 262 294 268 L294 198 C294 158 266 126 234 126 C200 126 173 158 173 198 L47 198 C47 89 131 0 234 0 C336 0 420 89 420 198 L420 455 L420 610 L420 611 C420 719 338 806 236 808 L236 808 Z M234 383 C200 383 173 416 173 455 L173 610 C173 649 200 682 234 682 C234 682 234 682 234 682 C235 682 236 682 236 682 C236 682 236 682 236 682 C268 680 294 648 294 610 L294 455 C294 416 266 383 234 383 L234 383 Z " />
<glyph glyph-name="colon" unicode="&#x3a;" horiz-adv-x="192" d="M44 71 L133 71 L133 152 L44 152 L44 71 L44 71 Z M44 311 L133 311 L133 392 L44 392 L44 311 L44 311 Z " />
<glyph glyph-name="semicolon" unicode="&#x3b;" horiz-adv-x="193" d="M131 153 L47 153 L47 74 L84 74 L84 74 C84 36 59 40 59 40 L59 10 C132 10 131 74 131 74 L131 153 L131 153 Z M44 315 L133 315 L133 395 L44 395 L44 315 L44 315 Z " />
<glyph glyph-name="less" unicode="&#x3c;" horiz-adv-x="403" d="M342 634 L235 700 L44 396 L227 97 L334 163 L192 396 L342 634 Z " />
<glyph glyph-name="equal" unicode="&#x3d;" horiz-adv-x="410" d="M44 414 L348 414 L348 540 L44 540 L44 414 L44 414 Z M44 263 L348 263 L348 389 L44 389 L44 263 L44 263 Z " />
<glyph glyph-name="greater" unicode="&#x3e;" horiz-adv-x="403" d="M194 396 L53 163 L160 97 L342 396 L151 700 L44 634 L194 396 Z " />
<glyph glyph-name="question" unicode="&#x3f;" horiz-adv-x="452" d="M247 835 C136 835 44 732 44 605 L170 605 C170 661 205 709 247 709 C290 709 325 668 325 616 C326 515 294 480 251 431 C202 377 142 310 144 154 L270 157 C268 262 302 299 344 347 C392 400 452 467 451 617 C450 739 360 835 247 835 L247 835 Z M145 1 L270 1 L270 100 L145 100 L145 1 L145 1 Z " />
<glyph glyph-name="at" unicode="&#x40;" horiz-adv-x="703" d="M715 397 C715 498 679 583 611 643 C551 696 469 725 382 725 C296 725 212 692 150 636 C82 575 44 490 44 397 L44 148 C44 -19 202 -167 382 -167 L382 -41 C271 -41 170 49 170 148 L170 397 C170 523 277 599 382 599 C478 599 589 546 589 397 L589 170 L590 170 L590 134 C586 125 562 107 541 102 C540 102 540 102 540 102 C539 103 535 108 535 119 L535 203 L535 346 L535 515 L458 515 C433 534 404 544 374 544 C329 544 284 520 254 478 C228 442 214 395 214 346 L214 203 C214 154 228 107 254 71 C284 29 329 5 374 5 C398 5 421 11 442 23 C448 16 454 10 460 5 C482 -14 511 -24 540 -24 C548 -24 557 -23 565 -22 C598 -16 632 2 661 25 C696 56 716 94 716 132 L716 208 L715 208 L715 397 L715 397 Z M374 131 C362 131 340 158 340 203 L340 346 C340 390 362 418 374 418 C386 418 409 390 409 346 L409 203 C409 158 386 131 374 131 L374 131 Z " />
<glyph glyph-name="A" unicode="A" horiz-adv-x="516" d="M208 812 L47 0 L175 0 L217 204 L324 204 L365 0 L493 0 L336 811 L208 812 Z M242 330 L271 476 L300 330 L242 330 L242 330 Z " />
<glyph glyph-name="B" unicode="B" horiz-adv-x="450" d="M355 484 C380 517 396 562 396 610 L396 631 C389 731 312 810 221 810 L47 810 L47 -1 L234 -1 C337 -1 421 85 421 191 L421 337 C421 396 396 449 355 484 L355 484 Z M221 684 C244 684 269 653 269 612 L269 596 L269 595 C264 563 242 540 222 540 L173 540 L173 684 L221 684 L221 684 Z M295 191 C295 155 268 125 234 125 L173 125 L173 403 L234 403 C268 403 295 374 295 337 L295 191 L295 191 Z " />
<glyph glyph-name="C" unicode="C" horiz-adv-x="475" d="M245 683 L254 683 C274 683 292 676 305 662 C313 654 320 643 323 631 L444 666 C436 698 418 728 394 752 C355 790 306 810 254 810 L245 810 C136 810 47 721 47 612 L47 198 C47 89 136 0 245 0 L254 0 C337 0 412 53 440 131 L322 174 C312 145 284 127 254 127 L245 127 C205 127 173 158 173 198 L173 612 C173 652 205 683 245 683 L245 683 Z " />
<glyph glyph-name="D" unicode="D" horiz-adv-x="478" d="M244 811 L47 811 L47 0 L58 0 L58 -1 L246 -1 C350 -1 434 85 434 192 L434 620 C434 726 349 811 244 811 L244 811 Z M308 192 C308 155 281 126 246 126 L173 126 L173 684 L244 684 C280 684 308 656 308 620 L308 192 L308 192 Z " />
<glyph glyph-name="E" unicode="E" horiz-adv-x="409" d="M47 0 L366 0 L366 126 L173 126 L173 307 L294 307 L294 433 L173 433 L173 685 L366 685 L366 811 L47 811 L47 0 L47 0 Z " />
<glyph glyph-name="F" unicode="F" horiz-adv-x="398" d="M47 0 L173 0 L173 307 L274 307 L274 433 L173 433 L173 685 L366 685 L366 811 L47 811 L47 0 L47 0 Z " />
<glyph glyph-name="G" unicode="G" horiz-adv-x="478" d="M232 307 L326 307 L326 198 C326 158 294 126 254 126 L245 126 C205 126 173 158 173 198 L173 613 C173 653 205 684 245 684 L254 684 C274 684 292 677 305 664 C313 655 320 644 323 632 L444 667 C436 700 418 730 394 754 C355 791 306 810 254 810 L245 810 C136 810 47 721 47 613 L47 198 C47 89 136 0 245 0 L254 0 C364 0 452 89 452 198 L452 433 L232 433 L232 307 L232 307 Z " />
<glyph glyph-name="H" unicode="H" horiz-adv-x="482" d="M313 433 L173 433 L173 811 L47 811 L47 0 L173 0 L173 307 L313 307 L313 0 L439 0 L439 811 L313 811 L313 433 L313 433 Z " />
<glyph glyph-name="I" unicode="I" horiz-adv-x="229" d="M47 0 L173 0 L173 811 L47 811 L47 0 L47 0 Z " />
<glyph glyph-name="J" unicode="J" horiz-adv-x="480" d="M318 203 C318 161 286 125 245 125 C205 125 173 161 173 203 L173 373 L47 373 L47 203 C47 91 136 -1 245 -1 C355 -1 444 91 444 203 L444 810 L318 810 L318 203 L318 203 Z " />
<glyph glyph-name="K" unicode="K" horiz-adv-x="510" d="M329 811 L173 569 L173 811 L47 811 L47 373 L47 317 L47 0 L173 0 L173 336 L202 380 L338 0 L472 0 L288 514 L479 811 L329 811 L329 811 Z " />
<glyph glyph-name="L" unicode="L" horiz-adv-x="409" d="M173 811 L47 811 L47 0 L366 0 L366 126 L173 126 L173 811 L173 811 Z " />
<glyph glyph-name="M" unicode="M" horiz-adv-x="570" d="M391 811 L281 519 L170 811 L47 811 L47 0 L173 0 L173 472 L246 215 L316 215 L391 481 L391 0 L517 0 L517 811 L391 811 L391 811 L391 811 Z " />
<glyph glyph-name="N" unicode="N" horiz-adv-x="518" d="M181 812 L48 812 L47 812 L48 0 L174 0 L174 468 L350 0 L352 0 L478 0 L478 810 L352 810 L352 356 L181 812 Z " />
<glyph glyph-name="O" unicode="O" horiz-adv-x="482" d="M254 810 L245 810 C136 810 47 721 47 612 L47 198 C47 89 136 0 245 0 L254 0 C364 0 452 89 452 198 L452 612 C452 721 364 810 254 810 L254 810 Z M326 198 C326 158 294 126 254 126 L245 126 C205 126 173 158 173 198 L173 612 C173 652 205 684 245 684 L254 684 C294 684 326 652 326 612 L326 198 L326 198 Z " />
<glyph glyph-name="P" unicode="P" horiz-adv-x="475" d="M246 811 L47 811 L47 810 L47 -1 L173 -1 L173 270 L246 270 C349 270 433 356 433 462 L433 619 C433 725 349 811 246 811 L246 811 Z M307 462 C307 425 280 396 246 396 L173 396 L173 685 L246 685 C280 685 307 655 307 619 L307 462 L307 462 Z " />
<glyph glyph-name="Q" unicode="Q" horiz-adv-x="499" d="M452 198 L452 611 C452 720 364 809 254 809 L245 809 C136 809 47 720 47 611 L47 198 C47 89 136 0 245 0 L254 0 C284 0 314 7 340 19 L395 -35 L484 54 L431 108 C444 134 452 166 452 198 L452 198 Z M292 247 L202 157 L232 127 C198 133 173 163 173 198 L173 611 C173 650 205 683 245 683 L254 683 C294 683 326 650 326 611 L326 211 L292 247 L292 247 Z " />
<glyph glyph-name="R" unicode="R" horiz-adv-x="478" d="M433 462 L433 618 C433 724 349 810 246 810 L47 810 L47 397 L47 270 L47 0 L173 0 L173 270 L238 270 C277 270 310 238 310 198 L310 0 L436 0 L436 198 C436 250 416 296 384 332 C415 366 433 412 433 462 L433 462 Z M173 684 L246 684 C280 684 307 654 307 618 L307 462 C307 426 280 397 246 397 L173 397 L173 684 L173 684 Z " />
<glyph glyph-name="S" unicode="S" horiz-adv-x="482" d="M287 456 C216 516 173 560 173 625 C174 658 206 684 248 684 C288 684 322 654 322 617 L448 617 C448 724 358 810 248 810 C137 810 48 730 47 626 C46 499 134 420 205 359 C278 298 323 257 322 188 C320 170 319 126 248 126 C208 126 174 156 174 193 L48 193 C48 86 138 0 248 0 C301 0 349 16 384 46 C412 68 445 112 448 185 C450 317 360 394 287 456 L287 456 Z " />
<glyph glyph-name="T" unicode="T" horiz-adv-x="456" d="M414 810 L47 810 L47 684 L168 684 L168 0 L294 0 L294 684 L414 684 L414 810 L414 810 Z " />
<glyph glyph-name="U" unicode="U" horiz-adv-x="486" d="M326 198 C326 158 294 126 254 126 L245 126 C205 126 173 158 173 198 L173 810 L47 810 L47 198 C47 89 136 0 245 0 L254 0 C364 0 452 89 452 198 L452 810 L326 810 L326 198 L326 198 Z " />
<glyph glyph-name="V" unicode="V" horiz-adv-x="486" d="M175 810 L47 810 L204 0 L313 0 L470 810 L341 810 L258 379 L175 810 Z " />
<glyph glyph-name="W" unicode="W" horiz-adv-x="728" d="M431 718 L320 718 L258 384 L175 810 L47 810 L204 0 L313 0 L376 330 L438 0 L547 0 L704 810 L576 810 L493 384 L431 718 Z " />
<glyph glyph-name="X" unicode="X" horiz-adv-x="510" d="M350 810 L265 571 L181 810 L47 810 L199 383 L62 0 L196 0 L265 196 L336 0 L469 0 L332 383 L485 810 L350 810 L350 810 Z " />
<glyph glyph-name="Y" unicode="Y" horiz-adv-x="494" d="M179 810 L47 810 L204 310 L204 0 L330 0 L330 312 L481 810 L350 810 L266 533 L179 810 Z " />
<glyph glyph-name="Z" unicode="Z" horiz-adv-x="499" d="M86 810 L86 684 L302 684 L47 0 L454 0 L454 126 L229 126 L485 811 L86 810 Z " />
<glyph glyph-name="bracketleft" unicode="&#x5b;" horiz-adv-x="347" d="M311 750 L311 877 L44 877 L44 -55 L311 -55 L311 71 L170 71 L170 750 L311 750 L311 750 Z " />
<glyph glyph-name="backslash" unicode="&#x5c;" horiz-adv-x="492" d="M44 814 L328 7 L451 7 L167 814 L44 814 L44 814 Z " />
<glyph glyph-name="bracketright" unicode="&#x5d;" horiz-adv-x="350" d="M44 750 L185 750 L185 71 L44 71 L44 -55 L311 -55 L311 877 L44 877 L44 750 L44 750 Z " />
<glyph glyph-name="asciicircum" unicode="&#x5e;" horiz-adv-x="563" d="M32 715 L113 619 L268 750 L427 619 L506 716 L266 913 L32 715 L32 715 Z " />
<glyph glyph-name="underscore" unicode="&#x5f;" horiz-adv-x="581" d="M44 -107 L518 -107 L518 19 L44 19 L44 -107 L44 -107 Z " />
<glyph glyph-name="grave" unicode="&#x60;" horiz-adv-x="199" d="M44 814 L79 700 L133 700 L114 814 L44 814 L44 814 Z " />
<glyph glyph-name="a" unicode="a" horiz-adv-x="450" d="M179 738 L47 70 L175 70 L203 208 L282 208 L308 70 L437 70 L308 738 L179 738 L179 738 Z M228 334 L242 412 L258 334 L228 334 L228 334 Z " />
<glyph glyph-name="b" unicode="b" horiz-adv-x="391" d="M352 573 C352 665 283 740 199 740 L48 740 L47 70 L209 70 C299 70 372 146 372 237 L372 359 C372 405 354 446 324 476 C341 504 352 538 352 573 L352 573 Z M173 614 L199 614 C211 614 226 596 226 573 C226 546 206 526 199 526 L173 526 L173 614 L173 614 Z M246 237 C246 215 229 196 209 196 L173 196 L173 399 L209 399 C229 399 246 381 246 359 L246 237 L246 237 Z " />
<glyph glyph-name="c" unicode="c" horiz-adv-x="413" d="M217 612 L224 612 C236 612 247 608 256 599 C262 593 265 587 268 579 L389 614 C380 642 366 668 344 688 C312 720 270 738 224 738 L217 738 C124 738 47 662 47 567 L47 240 C47 147 124 70 217 70 L224 70 C296 70 361 114 385 183 L266 226 C260 208 244 196 224 196 L217 196 C193 196 173 216 173 240 L173 567 C173 591 193 612 217 612 L217 612 Z " />
<glyph glyph-name="d" unicode="d" horiz-adv-x="401" d="M217 738 L47 738 L47 70 L173 70 L173 70 L218 70 C308 70 382 144 382 237 L382 573 C382 664 307 738 217 738 L217 738 Z M256 237 C256 215 239 196 218 196 L173 196 L173 611 L217 611 C238 611 256 594 256 573 L256 237 L256 237 Z " />
<glyph glyph-name="e" unicode="e" horiz-adv-x="349" d="M47 70 L326 70 L326 196 L173 196 L173 311 L260 311 L260 437 L173 437 L173 612 L326 612 L326 738 L47 738 L47 70 L47 70 Z " />
<glyph glyph-name="f" unicode="f" horiz-adv-x="344" d="M47 70 L173 70 L173 310 L239 310 L239 436 L173 436 L173 612 L326 612 L326 738 L47 738 L47 70 L47 70 Z " />
<glyph glyph-name="g" unicode="g" horiz-adv-x="418" d="M206 314 L269 314 L269 242 C269 216 248 196 224 196 L217 196 C193 196 173 216 173 242 L173 567 C173 592 193 612 217 612 L224 612 C236 612 247 608 256 599 C260 593 265 587 266 579 L388 614 C380 642 365 668 344 688 C312 720 270 738 224 738 L217 738 C124 738 47 662 47 567 L47 242 C47 147 124 70 217 70 L224 70 C318 70 395 147 395 242 L395 440 L206 440 L206 314 L206 314 Z " />
<glyph glyph-name="h" unicode="h" horiz-adv-x="406" d="M260 438 L173 438 L173 738 L47 738 L47 70 L173 70 L173 312 L260 312 L260 70 L386 70 L386 738 L260 738 L260 438 L260 438 Z " />
<glyph glyph-name="i" unicode="i" horiz-adv-x="186" d="M47 70 L173 70 L173 740 L47 740 L47 70 L47 70 Z " />
<glyph glyph-name="j" unicode="j" horiz-adv-x="421" d="M395 738 L268 738 L268 274 C268 230 244 196 221 196 C194 196 173 225 173 258 L173 383 L47 383 L47 258 C47 154 125 70 221 70 C317 70 395 161 395 274 L395 738 L395 738 Z " />
<glyph glyph-name="k" unicode="k" horiz-adv-x="473" d="M306 738 L173 532 L173 740 L47 740 L47 70 L173 70 L173 300 L197 336 L293 70 L426 70 L283 470 L457 738 L306 738 L306 738 Z " />
<glyph glyph-name="l" unicode="l" horiz-adv-x="342" d="M173 738 L47 738 L47 70 L326 70 L326 196 L173 196 L173 738 L173 738 Z " />
<glyph glyph-name="m" unicode="m" horiz-adv-x="482" d="M329 738 L252 532 L175 738 L173 738 L47 738 L47 70 L173 70 L173 436 L222 238 L282 238 L334 434 L334 70 L460 70 L460 738 L329 738 Z " />
<glyph glyph-name="n" unicode="n" horiz-adv-x="461" d="M181 738 L48 738 L47 738 L48 736 L48 70 L174 70 L174 392 L292 70 L293 70 L419 70 L419 738 L293 738 L293 434 L181 738 Z " />
<glyph glyph-name="o" unicode="o" horiz-adv-x="428" d="M221 738 C125 738 47 650 47 540 L47 267 C47 159 125 69 221 69 C318 69 396 159 396 267 L396 540 C396 650 318 738 221 738 L221 738 Z M270 267 C270 225 244 196 221 196 C198 196 173 225 173 267 L173 540 C173 584 198 612 221 612 C244 612 270 584 270 540 L270 267 L270 267 Z " />
<glyph glyph-name="p" unicode="p" horiz-adv-x="443" d="M222 740 L47 740 L47 69 L173 69 L173 288 L222 288 C313 288 386 363 386 454 L386 575 C386 666 313 740 222 740 L222 740 Z M260 454 C260 432 244 414 222 414 L173 414 L173 614 L222 614 C242 614 260 596 260 575 L260 454 L260 454 Z " />
<glyph glyph-name="q" unicode="q" horiz-adv-x="466" d="M422 268 L422 540 C422 650 338 738 234 738 C131 738 47 650 47 540 L47 268 C47 159 131 70 234 70 C260 70 286 76 307 86 L340 45 L424 111 L389 155 C410 188 422 226 422 268 L422 268 Z M286 287 L200 221 L218 200 C192 208 173 236 173 268 L173 540 C173 580 202 612 234 612 C268 612 296 580 296 540 L296 273 L286 287 L286 287 Z " />
<glyph glyph-name="r" unicode="r" horiz-adv-x="443" d="M384 447 L384 572 C384 664 311 738 221 738 L47 738 L47 737 L47 70 L173 70 L173 279 L210 279 C234 279 260 249 260 207 L260 70 L386 70 L386 207 C386 256 370 302 343 335 C368 365 384 404 384 447 L384 447 Z M173 612 L221 612 C241 612 258 593 258 572 L258 447 C258 424 241 405 221 405 L173 405 L173 612 L173 612 Z " />
<glyph glyph-name="s" unicode="s" horiz-adv-x="420" d="M260 455 C206 501 173 532 173 578 C173 598 194 612 221 612 C247 612 268 594 268 572 L395 572 C395 664 317 738 221 738 C125 738 48 669 47 580 C46 472 120 408 180 359 C235 311 269 280 268 232 C268 219 268 195 221 195 C196 195 174 213 174 236 L48 236 C48 143 126 69 221 69 C323 69 391 134 395 228 C397 340 322 404 260 455 L260 455 Z " />
<glyph glyph-name="t" unicode="t" horiz-adv-x="382" d="M47 612 L144 612 L144 70 L270 70 L270 612 L365 612 L365 738 L47 738 L47 612 L47 612 Z " />
<glyph glyph-name="u" unicode="u" horiz-adv-x="422" d="M275 267 C275 230 251 196 224 196 C197 196 173 230 173 267 L173 738 L47 738 L47 267 C47 158 126 69 224 69 C322 69 401 158 401 267 L401 738 L275 738 L275 267 L275 267 Z " />
<glyph glyph-name="v" unicode="v" horiz-adv-x="452" d="M175 738 L47 738 L176 70 L287 70 L415 738 L287 738 L232 449 L175 738 Z " />
<glyph glyph-name="w" unicode="w" horiz-adv-x="659" d="M444 532 L422 334 L396 530 L377 671 L275 671 L254 528 L230 334 L210 531 L175 738 L47 738 L184 70 L277 70 L306 224 L326 377 L347 225 L373 70 L468 70 L606 738 L478 738 L444 532 L444 532 Z " />
<glyph glyph-name="x" unicode="x" horiz-adv-x="485" d="M301 738 L241 569 L181 738 L47 738 L174 381 L64 70 L197 70 L241 194 L286 70 L420 70 L308 381 L436 738 L301 738 L301 738 Z " />
<glyph glyph-name="y" unicode="y" horiz-adv-x="473" d="M179 738 L47 738 L175 330 L175 70 L301 70 L301 332 L426 738 L294 738 L238 554 L179 738 Z " />
<glyph glyph-name="z" unicode="z" horiz-adv-x="482" d="M84 738 L84 612 L256 612 L47 70 L407 70 L407 195 L230 195 L439 738 L84 738 Z " />
<glyph glyph-name="braceleft" unicode="&#x7b;" horiz-adv-x="350" d="M100 336 C113 328 133 289 133 254 L133 160 C133 124 142 88 158 60 C181 23 216 2 253 2 L311 2 L311 128 L265 128 C263 134 259 145 259 160 L259 254 C259 320 227 392 184 431 C230 473 254 547 254 605 L254 683 C254 698 258 709 262 715 L311 715 L311 841 L251 841 C182 841 128 772 128 683 L128 605 C128 568 107 529 96 522 C62 499 43 466 44 430 C44 392 65 359 100 336 L100 336 Z " />
<glyph glyph-name="bar" unicode="&#x7c;" horiz-adv-x="193" d="M44 -67 L170 -67 L170 888 L44 888 L44 -67 L44 -67 Z " />
<glyph glyph-name="braceright" unicode="&#x7d;" horiz-adv-x="350" d="M259 521 C248 528 227 566 227 604 L227 682 C227 770 173 840 104 840 L44 840 L44 714 L94 714 C97 708 101 697 101 682 L101 604 C101 546 125 472 172 430 C127 391 96 319 96 253 L96 158 C96 144 92 133 90 127 L44 127 L44 1 L102 1 C139 1 174 22 196 59 C212 86 222 122 222 158 L222 253 C222 288 242 326 256 335 C290 358 311 391 311 428 C311 464 293 498 259 521 L259 521 Z " />
<glyph glyph-name="asciitilde" unicode="&#x7e;" horiz-adv-x="540" d="M200 436 C200 436 199 436 199 436 C148 436 98 409 44 355 L133 266 C173 305 193 310 200 310 C211 310 227 300 244 289 C271 271 306 250 353 250 C353 250 354 250 354 250 C404 251 454 275 506 329 L418 418 C379 380 360 376 353 376 C353 376 353 376 353 376 C342 376 328 385 311 396 C282 414 247 436 200 436 L200 436 Z " />
<glyph glyph-name="exclamdown" unicode="&#xa1;" horiz-adv-x="192" d="M170 424 L44 424 L44 -235 L170 -235 L170 424 L170 424 Z M170 582 L46 582 L46 484 L170 484 L170 582 L170 582 Z " />
<glyph glyph-name="cent" unicode="&#xa2;" horiz-adv-x="418" d="M323 599 C329 594 332 589 335 584 L452 630 C442 658 422 682 397 700 C368 721 334 734 296 739 L296 785 L193 785 L193 737 C161 731 132 718 107 700 C67 670 44 626 44 581 L44 263 C44 217 67 174 107 144 C132 126 161 113 193 107 L193 59 L296 59 L296 104 C364 113 421 149 448 203 L334 258 C330 250 317 239 296 233 L296 611 C306 608 316 604 323 599 L323 599 Z M170 263 L170 581 C170 587 179 598 193 605 L193 239 C179 246 170 256 170 263 L170 263 Z " />
<glyph glyph-name="sterling" unicode="&#xa3;" horiz-adv-x="524" d="M352 170 C352 166 350 151 344 140 C340 131 335 126 320 126 C286 126 240 126 197 125 C203 146 206 170 206 196 L206 287 L311 287 L311 413 L206 413 L206 647 C206 685 232 720 259 720 C271 720 281 714 287 708 L371 802 C340 830 300 846 259 846 C161 846 80 757 80 647 L80 413 L35 413 L35 287 L80 287 L80 196 C80 149 56 125 49 122 C48 122 48 122 48 122 L49 -4 C50 -4 52 -4 53 -4 C76 -2 234 0 320 0 C436 0 478 102 478 170 L352 170 L352 170 L352 170 Z " />
<glyph glyph-name="currency" unicode="&#xa4;" horiz-adv-x="476" d="M337 584 L308 528 C289 538 268 544 246 544 C226 544 204 538 185 528 L156 584 L44 526 L98 422 C90 398 85 372 85 346 L85 203 C85 175 90 150 98 126 L44 22 L156 -36 L185 19 C204 10 226 5 246 5 C268 5 289 10 308 19 L337 -36 L449 22 L395 126 C403 150 407 175 407 203 L407 346 C407 372 403 398 395 422 L449 526 L337 584 L337 584 Z M246 131 C235 131 212 158 212 203 L212 346 C212 389 235 418 246 418 C258 418 281 389 281 346 L281 203 C281 158 258 131 246 131 L246 131 Z " />
<glyph glyph-name="yen" unicode="&#xa5;" horiz-adv-x="511" d="M488 809 L356 809 L274 539 L188 809 L56 809 L172 445 L134 445 L134 319 L210 319 L210 265 L134 265 L134 139 L210 139 L210 -11 L336 -11 L336 139 L410 139 L410 265 L336 265 L336 310 L338 319 L410 319 L410 445 L377 445 L488 809 L488 809 Z " />
<glyph glyph-name="brokenbar" unicode="&#xa6;" horiz-adv-x="215" d="M44 464 L170 464 L170 779 L44 779 L44 464 L44 464 Z M44 83 L170 83 L170 397 L44 397 L44 83 L44 83 Z " />
<glyph glyph-name="section" unicode="&#xa7;" horiz-adv-x="622" d="M203 149 C275 92 318 54 317 -7 C316 -22 316 -61 244 -61 C204 -61 172 -35 172 -2 L46 -2 C46 -104 134 -187 244 -187 C298 -187 343 -173 378 -146 C419 -114 442 -67 443 -11 C443 14 440 37 434 58 C470 62 503 76 528 96 C570 128 592 175 594 232 C596 359 505 431 432 490 C361 546 319 583 319 642 C319 671 353 694 394 694 C434 694 467 667 467 635 L594 635 C594 737 504 820 394 820 C283 820 194 742 193 643 C193 618 197 595 203 574 C113 557 46 487 44 402 C42 278 132 206 203 149 L203 149 Z M244 451 C269 451 293 442 304 432 L305 432 C320 418 337 404 354 391 C425 334 469 296 467 235 C467 221 466 181 394 181 C373 181 354 187 340 200 L340 199 C320 217 301 233 282 247 C212 304 169 341 170 400 C170 428 204 451 244 451 L244 451 Z " />
<glyph glyph-name="dieresis" unicode="&#xa8;" horiz-adv-x="300" d="M167 732 L244 732 L244 810 L167 810 L167 732 L167 732 Z M44 732 L121 732 L121 810 L44 810 L44 732 L44 732 Z " />
<glyph glyph-name="copyright" unicode="&#xa9;" horiz-adv-x="665" d="M674 305 L674 564 C674 744 533 892 359 892 C186 892 44 744 44 564 L44 305 C44 124 186 -24 359 -24 C533 -24 674 124 674 305 L674 305 Z M170 305 L170 564 C170 674 256 766 359 766 C463 766 548 674 548 564 L548 305 C548 193 463 102 359 102 C256 102 170 193 170 305 L170 305 Z M502 202 L400 277 C390 264 378 256 365 256 C337 256 314 289 314 326 L314 541 C314 578 337 612 365 612 C383 612 396 596 401 590 L503 664 C469 710 419 738 365 738 C268 738 187 649 187 541 L187 326 C187 218 268 130 365 130 C418 130 468 156 502 202 L502 202 Z " />
<glyph glyph-name="ordfeminine" unicode="&#xaa;" horiz-adv-x="280" d="M133 790 L130 790 L130 790 C83 788 45 751 45 705 L115 705 C115 712 123 719 131 719 C140 719 147 711 147 702 L147 694 C138 697 127 699 117 699 C62 699 18 652 18 594 L18 571 C18 512 62 465 117 465 C127 465 137 467 147 470 L147 464 L218 464 L218 702 C218 749 180 788 133 790 L133 790 Z M117 532 C100 532 86 550 86 571 L86 594 C86 614 100 632 117 632 C131 632 145 617 147 598 L147 565 C145 547 131 532 117 532 L117 532 Z " />
<glyph glyph-name="guillemotleft" unicode="&#xab;" horiz-adv-x="473" d="M187 624 L44 396 L187 164 L294 229 L193 396 L294 557 L187 624 Z M403 624 L260 396 L403 164 L510 229 L409 396 L510 557 L403 624 Z " />
<glyph glyph-name="logicalnot" unicode="&#xac;" horiz-adv-x="658" d="M492 193 L618 193 L618 427 L44 427 L44 301 L492 301 L492 193 L492 193 Z " />
<glyph glyph-name="uni00AD" unicode="&#xad;" horiz-adv-x="403" d="M44 348 L348 348 L348 474 L44 474 L44 348 Z " />
<glyph glyph-name="registered" unicode="&#xae;" horiz-adv-x="598" d="M473 558 C473 629 416 688 347 688 L212 688 L212 686 L212 562 L212 466 L212 338 L212 222 L338 222 L338 338 L338 338 C342 337 348 329 348 316 L348 228 L475 228 L475 316 C475 346 467 373 452 397 C466 418 473 443 473 469 L473 558 L473 558 Z M338 562 L346 562 C347 560 347 559 347 558 L347 469 C347 467 347 466 346 466 L338 466 L338 562 L338 562 Z M391 848 L284 848 C151 848 44 750 44 628 L44 282 C44 160 151 61 284 61 L391 61 C524 61 632 160 632 282 L632 577 C632 701 524 848 391 848 L391 848 Z M505 282 C505 230 454 187 391 187 L284 187 C222 187 170 230 170 282 L170 628 C170 679 222 722 284 722 L391 722 C446 722 505 637 505 577 L505 282 L505 282 Z " />
<glyph glyph-name="macron" unicode="&#xaf;" horiz-adv-x="407" d="M44 684 L348 684 L348 810 L44 810 L44 684 Z " />
<glyph glyph-name="degree" unicode="&#xb0;" horiz-adv-x="271" d="M248 727 C248 784 203 829 146 829 C90 829 44 784 44 727 C44 670 90 624 146 624 C203 624 248 670 248 727 L248 727 Z M146 715 C140 715 136 720 136 727 C136 733 140 738 146 738 C152 738 157 733 157 727 C157 720 152 715 146 715 L146 715 Z " />
<glyph glyph-name="plusminus" unicode="&#xb1;" horiz-adv-x="422" d="M44 89 L368 89 L368 215 L44 215 L44 89 L44 89 Z M269 560 L143 560 L143 461 L44 461 L44 335 L143 335 L143 236 L269 236 L269 335 L368 335 L368 461 L269 461 L269 560 L269 560 Z " />
<glyph glyph-name="twosuperior" unicode="&#xb2;" horiz-adv-x="290" d="M158 542 C196 579 240 621 239 698 C238 761 193 810 135 810 C78 810 32 757 32 692 L96 692 C96 721 114 746 135 746 C157 746 175 725 175 698 C175 648 149 622 114 589 C76 553 30 509 32 428 L32 397 L223 397 L223 461 L100 461 C108 494 131 516 158 542 L158 542 Z " />
<glyph glyph-name="threesuperior" unicode="&#xb3;" horiz-adv-x="288" d="M165 694 L265 809 L53 809 L53 745 L124 745 L34 641 L105 641 C140 641 181 630 181 547 C181 491 160 461 141 461 C119 461 102 485 102 514 L37 514 C37 449 83 396 141 396 C172 396 200 412 219 442 C236 468 245 505 245 547 C245 599 231 639 206 666 C195 678 181 687 165 694 L165 694 Z " />
<glyph glyph-name="acute" unicode="&#xb4;" horiz-adv-x="200" d="M44 700 L98 700 L133 814 L64 814 L44 700 L44 700 Z " />
<glyph glyph-name="&amp;#xb5;" unicode="&#xb5;" horiz-adv-x="422" d="M170 -6 C187 -11 204 -14 222 -14 C247 -14 270 -8 292 1 L401 1 L401 184 L401 545 L401 584 L275 584 L275 545 L275 184 C275 145 251 112 222 112 C194 112 170 145 170 184 L170 584 L170 584 L44 584 L44 584 L44 184 L44 -125 L170 -125 L170 -6 L170 -6 Z " />
<glyph glyph-name="&amp;#x3bc;" unicode="&#x3bc;" horiz-adv-x="422" d="M170 -6 C187 -11 204 -14 222 -14 C247 -14 270 -8 292 1 L401 1 L401 184 L401 545 L401 584 L275 584 L275 545 L275 184 C275 145 251 112 222 112 C194 112 170 145 170 184 L170 584 L170 584 L44 584 L44 584 L44 184 L44 -125 L170 -125 L170 -6 L170 -6 Z " />
<glyph glyph-name="paragraph" unicode="&#xb6;" horiz-adv-x="586" d="M232 288 L305 288 L305 2 L431 2 L431 288 L431 414 L431 715 L462 715 L462 2 L588 2 L588 841 L431 841 L431 844 L232 844 C128 844 44 757 44 652 L44 480 C44 374 128 288 232 288 L232 288 Z " />
<glyph glyph-name="periodcentered" unicode="&#xb7;" horiz-adv-x="200" d="M98 480 C68 480 44 456 44 426 C44 396 68 372 98 372 C128 372 152 396 152 426 C152 456 128 480 98 480 L98 480 Z " />
<glyph glyph-name="cedilla" unicode="&#xb8;" horiz-adv-x="236" d="M170 52 L44 52 C44 8 60 -20 73 -41 C71 -41 68 -41 65 -41 L65 -167 C152 -167 215 -120 215 -52 C215 -14 194 10 182 24 C173 37 170 41 170 52 L170 52 Z " />
<glyph glyph-name="onesuperior" unicode="&#xb9;" horiz-adv-x="215" d="M106 810 L81 810 L34 763 L80 718 L106 744 L106 397 L170 397 L170 808 L172 810 L170 810 L106 810 L106 810 Z " />
<glyph glyph-name="ordmasculine" unicode="&#xba;" horiz-adv-x="421" d="M222 635 C124 635 44 546 44 437 L44 350 C44 241 124 152 222 152 C320 152 401 241 401 350 L401 437 C401 546 320 635 222 635 L222 635 Z M275 350 C275 312 251 278 222 278 C194 278 170 312 170 350 L170 437 C170 475 194 509 222 509 C251 509 275 475 275 437 L275 350 L275 350 Z " />
<glyph glyph-name="guillemotright" unicode="&#xbb;" horiz-adv-x="479" d="M260 557 L361 396 L260 229 L367 164 L510 396 L367 624 L260 557 Z M44 557 L145 396 L44 229 L151 164 L294 396 L151 624 L44 557 Z " />
<glyph glyph-name="onequarter" unicode="&#xbc;" horiz-adv-x="586" d="M110 810 L85 810 L38 763 L84 718 L110 744 L110 397 L174 397 L174 808 L176 810 L174 810 L110 810 L110 810 Z M482 814 L360 814 L75 7 L199 7 L482 814 Z M495 185 L495 396 L429 396 L298 124 L433 124 L433 0 L495 0 L495 124 L530 124 L530 185 L495 185 L495 185 Z M433 185 L396 185 L433 261 L433 185 L433 185 Z " />
<glyph glyph-name="onehalf" unicode="&#xbd;" horiz-adv-x="552" d="M106 810 L81 810 L34 763 L80 718 L106 743 L106 395 L170 395 L170 808 L172 810 L170 810 L106 810 L106 810 Z M469 814 L347 814 L62 7 L186 7 L469 814 Z M446 138 C484 174 526 214 525 289 C524 349 481 396 425 396 C370 396 325 346 325 283 L387 283 C387 311 404 334 425 334 C446 334 463 314 463 288 C464 240 437 215 404 184 C368 149 324 107 325 29 L326 -1 L509 -1 L509 61 L390 61 C398 92 420 113 446 138 L446 138 Z " />
<glyph glyph-name="threequarters" unicode="&#xbe;" horiz-adv-x="583" d="M165 694 L265 809 L53 809 L53 745 L124 745 L34 641 L105 641 C140 641 181 630 181 547 C181 491 160 461 141 461 C119 461 102 485 102 514 L37 514 C37 449 83 396 141 396 C172 396 200 412 219 442 C236 468 245 505 245 547 C245 599 231 639 206 666 C195 678 181 687 165 694 L165 694 Z M510 814 L388 814 L103 7 L227 7 L510 814 Z M495 186 L495 398 L428 398 L297 124 L433 124 L433 0 L495 0 L495 124 L530 124 L530 186 L495 186 L495 186 Z M433 186 L396 186 L433 262 L433 186 L433 186 Z " />
<glyph glyph-name="questiondown" unicode="&#xbf;" horiz-adv-x="452" d="M250 -252 C361 -252 452 -149 452 -22 L326 -22 C326 -78 292 -126 250 -126 C206 -126 172 -85 172 -32 C170 68 203 103 246 152 C295 206 355 274 353 430 L227 426 C229 322 194 284 152 236 C104 184 44 116 46 -34 C47 -156 137 -252 250 -252 L250 -252 Z M352 582 L227 582 L227 484 L352 484 L352 582 L352 582 Z " />
<glyph glyph-name="Agrave" unicode="&#xc0;" horiz-adv-x="488" d="M189 812 L28 0 L156 0 L198 204 L305 204 L346 0 L474 0 L317 811 L189 812 Z M223 330 L252 476 L281 330 L223 330 L223 330 Z M190 1038 L225 924 L279 924 L260 1038 L190 1038 L190 1038 Z " />
<glyph glyph-name="Aacute" unicode="&#xc1;" horiz-adv-x="488" d="M189 812 L28 0 L156 0 L198 204 L305 204 L346 0 L474 0 L317 811 L189 812 Z M223 330 L252 476 L281 330 L223 330 L223 330 Z M190 924 L244 924 L279 1038 L210 1038 L190 924 L190 924 Z " />
<glyph glyph-name="Acircumflex" unicode="&#xc2;" horiz-adv-x="488" d="M189 812 L28 0 L156 0 L198 204 L305 204 L346 0 L474 0 L317 811 L189 812 Z M223 330 L252 476 L281 330 L223 330 L223 330 Z M326 772 L375 887 L218 955 L64 889 L114 774 L218 817 L326 772 Z " />
<glyph glyph-name="Atilde" unicode="&#xc3;" horiz-adv-x="488" d="M189 812 L28 0 L156 0 L198 204 L305 204 L346 0 L474 0 L317 811 L189 812 Z M223 330 L252 476 L281 330 L223 330 L223 330 Z M175 944 C175 944 175 944 175 944 C186 944 200 934 217 924 C246 907 281 884 329 885 C380 885 429 910 483 966 L395 1054 C355 1015 335 1011 327 1011 C327 1011 327 1011 327 1011 C317 1011 302 1020 284 1030 C257 1048 222 1070 175 1070 C175 1070 175 1070 174 1070 C123 1070 75 1045 21 991 L110 902 C149 939 168 944 175 944 L175 944 Z " />
<glyph glyph-name="Adieresis" unicode="&#xc4;" horiz-adv-x="488" d="M189 812 L28 0 L156 0 L198 204 L305 204 L346 0 L474 0 L317 811 L189 812 Z M223 330 L252 476 L281 330 L223 330 L223 330 Z M282 872 L359 872 L359 950 L282 950 L282 872 L282 872 Z M159 872 L236 872 L236 950 L159 950 L159 872 L159 872 Z " />
<glyph glyph-name="Aring" unicode="&#xc5;" horiz-adv-x="488" d="M189 812 L28 0 L156 0 L198 204 L305 204 L346 0 L474 0 L317 811 L189 812 Z M223 330 L252 476 L281 330 L223 330 L223 330 Z M356 929 C356 986 311 1031 254 1031 C198 1031 152 986 152 929 C152 872 198 826 254 826 C311 826 356 872 356 929 L356 929 Z M254 917 C248 917 244 922 244 929 C244 935 248 940 254 940 C260 940 265 935 265 929 C265 922 260 917 254 917 L254 917 Z " />
<glyph glyph-name="AE" unicode="&#xc6;" horiz-adv-x="707" d="M676 683 L676 809 L475 809 L356 809 L343 809 L343 802 L41 0 L169 0 L247 204 L354 204 L356 101 L356 0 L359 0 L487 0 L676 0 L676 126 L485 126 L482 239 L482 307 L583 307 L583 433 L482 433 L482 683 L676 683 L676 683 Z M294 330 L349 476 L352 330 L294 330 L294 330 Z " />
<glyph glyph-name="Ccedilla" unicode="&#xc7;" horiz-adv-x="467" d="M226 683 L235 683 C255 683 273 676 286 662 C294 654 301 643 304 631 L425 666 C417 698 399 728 375 752 C336 790 287 810 235 810 L226 810 C117 810 28 721 28 612 L28 198 C28 89 117 0 226 0 L235 0 C318 0 393 53 421 131 L303 174 C293 145 265 127 235 127 L226 127 C186 127 154 158 154 198 L154 612 C154 652 186 683 226 683 L226 683 Z M297 22 L171 22 C171 -22 187 -50 200 -71 C198 -71 195 -71 192 -71 L192 -197 C279 -197 342 -150 342 -82 C342 -44 321 -20 309 -6 C300 7 297 11 297 22 L297 22 Z " />
<glyph glyph-name="Egrave" unicode="&#xc8;" horiz-adv-x="389" d="M28 0 L347 0 L347 126 L154 126 L154 307 L275 307 L275 433 L154 433 L154 685 L347 685 L347 811 L28 811 L28 0 L28 0 Z M140 1038 L175 924 L229 924 L210 1038 L140 1038 L140 1038 Z " />
<glyph glyph-name="Eacute" unicode="&#xc9;" horiz-adv-x="389" d="M28 0 L347 0 L347 126 L154 126 L154 307 L275 307 L275 433 L154 433 L154 685 L347 685 L347 811 L28 811 L28 0 L28 0 Z M140 924 L194 924 L229 1038 L160 1038 L140 924 L140 924 Z " />
<glyph glyph-name="Ecircumflex" unicode="&#xca;" horiz-adv-x="389" d="M28 0 L347 0 L347 126 L154 126 L154 307 L275 307 L275 433 L154 433 L154 685 L347 685 L347 811 L28 811 L28 0 L28 0 Z M278 853 L327 968 L170 1036 L16 970 L66 855 L170 898 L278 853 Z " />
<glyph glyph-name="Edieresis" unicode="&#xcb;" horiz-adv-x="389" d="M28 0 L347 0 L347 126 L154 126 L154 307 L275 307 L275 433 L154 433 L154 685 L347 685 L347 811 L28 811 L28 0 L28 0 Z M215 877 L292 877 L292 955 L215 955 L215 877 L215 877 Z M92 877 L169 877 L169 955 L92 955 L92 877 L92 877 Z " />
<glyph glyph-name="Igrave" unicode="&#xcc;" horiz-adv-x="199" d="M28 0 L154 0 L154 811 L28 811 L28 0 L28 0 Z M45 1038 L80 924 L134 924 L115 1038 L45 1038 L45 1038 Z " />
<glyph glyph-name="Iacute" unicode="&#xcd;" horiz-adv-x="199" d="M28 0 L154 0 L154 811 L28 811 L28 0 L28 0 Z M45 924 L99 924 L134 1038 L65 1038 L45 924 L45 924 Z " />
<glyph glyph-name="Icircumflex" unicode="&#xce;" horiz-adv-x="199" d="M28 0 L154 0 L154 811 L28 811 L28 0 L28 0 Z M182 853 L231 968 L74 1036 L-80 970 L-30 855 L74 898 L182 853 Z " />
<glyph glyph-name="Idieresis" unicode="&#xcf;" horiz-adv-x="199" d="M28 0 L154 0 L154 811 L28 811 L28 0 L28 0 Z M105 956 L182 956 L182 1034 L105 1034 L105 956 L105 956 Z M-18 956 L59 956 L59 1034 L-18 1034 L-18 956 L-18 956 Z " />
<glyph glyph-name="Eth" unicode="&#xd0;" horiz-adv-x="478" d="M244 811 L47 811 L47 0 L58 0 L58 -1 L246 -1 C350 -1 434 85 434 192 L434 620 C434 726 349 811 244 811 L244 811 Z M308 192 C308 155 281 126 246 126 L173 126 L173 684 L244 684 C280 684 308 656 308 620 L308 192 L308 192 Z M9 348 L237 348 L237 474 L9 474 L9 348 L9 348 Z " />
<glyph glyph-name="Ntilde" unicode="&#xd1;" horiz-adv-x="484" d="M162 812 L29 812 L28 812 L29 0 L155 0 L155 468 L331 0 L333 0 L459 0 L459 810 L333 810 L333 356 L162 812 Z M173 944 C173 944 173 944 173 944 C184 944 198 934 215 924 C244 907 279 884 327 885 C378 885 427 910 481 966 L393 1054 C353 1015 333 1011 325 1011 C325 1011 325 1011 325 1011 C315 1011 300 1020 282 1030 C255 1048 220 1070 173 1070 C173 1070 173 1070 172 1070 C121 1070 73 1045 19 991 L108 902 C147 939 166 944 173 944 L173 944 Z " />
<glyph glyph-name="Ograve" unicode="&#xd2;" horiz-adv-x="468" d="M235 810 L226 810 C117 810 28 721 28 612 L28 198 C28 89 117 0 226 0 L235 0 C345 0 433 89 433 198 L433 612 C433 721 345 810 235 810 L235 810 Z M307 198 C307 158 275 126 235 126 L226 126 C186 126 154 158 154 198 L154 612 C154 652 186 684 226 684 L235 684 C275 684 307 652 307 612 L307 198 L307 198 Z M180 1038 L215 924 L269 924 L250 1038 L180 1038 L180 1038 Z " />
<glyph glyph-name="Oacute" unicode="&#xd3;" horiz-adv-x="468" d="M235 810 L226 810 C117 810 28 721 28 612 L28 198 C28 89 117 0 226 0 L235 0 C345 0 433 89 433 198 L433 612 C433 721 345 810 235 810 L235 810 Z M307 198 C307 158 275 126 235 126 L226 126 C186 126 154 158 154 198 L154 612 C154 652 186 684 226 684 L235 684 C275 684 307 652 307 612 L307 198 L307 198 Z M180 904 L234 904 L269 1018 L200 1018 L180 904 L180 904 Z " />
<glyph glyph-name="Ocircumflex" unicode="&#xd4;" horiz-adv-x="468" d="M235 810 L226 810 C117 810 28 721 28 612 L28 198 C28 89 117 0 226 0 L235 0 C345 0 433 89 433 198 L433 612 C433 721 345 810 235 810 L235 810 Z M307 198 C307 158 275 126 235 126 L226 126 C186 126 154 158 154 198 L154 612 C154 652 186 684 226 684 L235 684 C275 684 307 652 307 612 L307 198 L307 198 Z M317 853 L366 968 L209 1036 L55 970 L105 855 L209 898 L317 853 Z " />
<glyph glyph-name="Otilde" unicode="&#xd5;" horiz-adv-x="468" d="M235 810 L226 810 C117 810 28 721 28 612 L28 198 C28 89 117 0 226 0 L235 0 C345 0 433 89 433 198 L433 612 C433 721 345 810 235 810 L235 810 Z M307 198 C307 158 275 126 235 126 L226 126 C186 126 154 158 154 198 L154 612 C154 652 186 684 226 684 L235 684 C275 684 307 652 307 612 L307 198 L307 198 Z M166 944 C166 944 166 944 166 944 C177 944 191 934 208 924 C237 907 272 884 320 885 C371 885 420 910 474 966 L386 1054 C346 1015 326 1011 318 1011 C318 1011 318 1011 318 1011 C308 1011 293 1020 275 1030 C248 1048 213 1070 166 1070 C166 1070 166 1070 165 1070 C114 1070 66 1045 12 991 L101 902 C140 939 159 944 166 944 L166 944 Z " />
<glyph glyph-name="Odieresis" unicode="&#xd6;" horiz-adv-x="468" d="M235 810 L226 810 C117 810 28 721 28 612 L28 198 C28 89 117 0 226 0 L235 0 C345 0 433 89 433 198 L433 612 C433 721 345 810 235 810 L235 810 Z M307 198 C307 158 275 126 235 126 L226 126 C186 126 154 158 154 198 L154 612 C154 652 186 684 226 684 L235 684 C275 684 307 652 307 612 L307 198 L307 198 Z M274 877 L351 877 L351 955 L274 955 L274 877 L274 877 Z M151 877 L228 877 L228 955 L151 955 L151 877 L151 877 Z " />
<glyph glyph-name="multiply" unicode="&#xd7;" horiz-adv-x="395" d="M274 494 L203 424 L133 494 L44 404 L114 335 L44 265 L133 176 L203 246 L274 176 L362 265 L293 335 L362 404 L274 494 L274 494 Z " />
<glyph glyph-name="Oslash" unicode="&#xd8;" horiz-adv-x="482" d="M55 -31 L175 -68 L199 6 C214 2 227 1 242 1 L252 1 C360 1 450 90 450 199 L450 642 C450 673 442 703 428 730 L467 848 L346 887 L326 826 C304 835 278 840 252 840 L242 840 C133 840 44 751 44 642 L44 199 C44 152 61 108 89 74 L55 -31 L55 -31 Z M323 199 C323 160 292 127 252 127 L242 127 C241 127 239 127 238 127 L323 397 L323 199 L323 199 Z M170 642 C170 682 203 714 242 714 L252 714 C265 714 277 710 288 704 L170 332 L170 642 L170 642 Z " />
<glyph glyph-name="Ugrave" unicode="&#xd9;" horiz-adv-x="476" d="M307 198 C307 158 275 126 235 126 L226 126 C186 126 154 158 154 198 L154 810 L28 810 L28 198 C28 89 117 0 226 0 L235 0 C345 0 433 89 433 198 L433 810 L307 810 L307 198 L307 198 Z M183 1038 L218 924 L272 924 L253 1038 L183 1038 L183 1038 Z " />
<glyph glyph-name="Uacute" unicode="&#xda;" horiz-adv-x="476" d="M307 198 C307 158 275 126 235 126 L226 126 C186 126 154 158 154 198 L154 810 L28 810 L28 198 C28 89 117 0 226 0 L235 0 C345 0 433 89 433 198 L433 810 L307 810 L307 198 L307 198 Z M183 924 L237 924 L272 1038 L203 1038 L183 924 L183 924 Z " />
<glyph glyph-name="Ucircumflex" unicode="&#xdb;" horiz-adv-x="476" d="M307 198 C307 158 275 126 235 126 L226 126 C186 126 154 158 154 198 L154 810 L28 810 L28 198 C28 89 117 0 226 0 L235 0 C345 0 433 89 433 198 L433 810 L307 810 L307 198 L307 198 Z M320 853 L369 968 L212 1036 L58 970 L108 855 L212 898 L320 853 Z " />
<glyph glyph-name="Udieresis" unicode="&#xdc;" horiz-adv-x="476" d="M307 198 C307 158 275 126 235 126 L226 126 C186 126 154 158 154 198 L154 810 L28 810 L28 198 C28 89 117 0 226 0 L235 0 C345 0 433 89 433 198 L433 810 L307 810 L307 198 L307 198 Z M243 956 L320 956 L320 1034 L243 1034 L243 956 L243 956 Z M120 956 L197 956 L197 1034 L120 1034 L120 956 L120 956 Z " />
<glyph glyph-name="Yacute" unicode="&#xdd;" horiz-adv-x="496" d="M160 810 L28 810 L185 310 L185 0 L311 0 L311 312 L462 810 L331 810 L247 533 L160 810 Z M193 924 L247 924 L282 1038 L213 1038 L193 924 L193 924 Z " />
<glyph glyph-name="Thorn" unicode="&#xde;" horiz-adv-x="420" d="M228 750 C209 750 191 746 173 740 L173 811 L47 811 L47 -2 L173 -2 L173 176 C191 169 209 167 228 167 C326 167 407 256 407 365 L407 552 C407 661 326 750 228 750 L228 750 Z M281 365 C281 326 256 293 228 293 C200 293 176 326 176 365 L176 552 C176 590 200 624 228 624 C256 624 281 590 281 552 L281 365 Z " />
<glyph glyph-name="germandbls" unicode="&#xdf;" horiz-adv-x="498" d="M227 128 C217 128 209 130 200 130 L200 4 C205 4 212 2 221 2 C266 0 343 -4 403 52 C450 97 473 167 473 266 C473 379 442 462 380 511 C403 539 421 575 427 620 C438 708 410 784 349 826 C290 868 209 871 142 836 C80 804 44 744 44 676 L44 1 L170 1 L170 676 C170 697 180 714 200 725 C226 738 257 737 277 722 C305 703 306 665 302 636 C294 578 240 560 216 556 C208 554 202 553 199 553 L220 428 C224 430 229 430 235 431 C250 432 278 431 301 413 C331 390 347 338 347 266 C347 206 336 162 316 144 C298 126 266 126 227 128 L227 128 Z " />
<glyph glyph-name="agrave" unicode="&#xe0;" horiz-adv-x="467" d="M164 910 L199 796 L253 796 L234 910 L164 910 L164 910 Z M163 738 L31 70 L159 70 L187 208 L266 208 L292 70 L421 70 L292 738 L163 738 L163 738 Z M212 334 L226 412 L242 334 L212 334 L212 334 Z " />
<glyph glyph-name="aacute" unicode="&#xe1;" horiz-adv-x="462" d="M206 780 L260 780 L295 894 L226 894 L206 780 L206 780 Z M163 738 L31 70 L159 70 L187 208 L266 208 L292 70 L421 70 L292 738 L163 738 L163 738 Z M212 334 L226 412 L242 334 L212 334 L212 334 Z " />
<glyph glyph-name="acircumflex" unicode="&#xe2;" horiz-adv-x="448" d="M341 772 L390 887 L233 955 L79 889 L129 774 L233 817 L341 772 Z M163 738 L31 70 L159 70 L187 208 L266 208 L292 70 L421 70 L292 738 L163 738 L163 738 Z M212 334 L226 412 L242 334 L212 334 L212 334 Z " />
<glyph glyph-name="atilde" unicode="&#xe3;" horiz-adv-x="453" d="M173 808 C173 808 173 808 173 808 C182 808 192 801 206 793 C228 780 255 762 293 763 C332 763 370 782 412 826 L344 894 C313 864 297 860 291 860 C291 860 291 860 291 860 C283 860 272 867 258 875 C237 889 209 906 173 906 C173 906 173 906 172 906 C133 906 95 887 53 845 L122 776 C153 805 168 808 173 808 L173 808 Z M163 738 L31 70 L159 70 L187 208 L266 208 L292 70 L421 70 L292 738 L163 738 L163 738 Z M212 334 L226 412 L242 334 L212 334 L212 334 Z " />
<glyph glyph-name="adieresis" unicode="&#xe4;" horiz-adv-x="430" d="M254 784 L331 784 L331 862 L254 862 L254 784 L254 784 Z M131 784 L208 784 L208 862 L131 862 L131 784 L131 784 Z M163 738 L31 70 L159 70 L187 208 L266 208 L292 70 L421 70 L292 738 L163 738 L163 738 Z M212 334 L226 412 L242 334 L212 334 L212 334 Z " />
<glyph glyph-name="aring" unicode="&#xe5;" horiz-adv-x="467" d="M163 738 L31 70 L159 70 L187 208 L266 208 L292 70 L421 70 L292 738 L163 738 L163 738 Z M212 334 L226 412 L242 334 L212 334 L212 334 Z M328 811 C328 868 283 913 226 913 C170 913 124 868 124 811 C124 754 170 708 226 708 C283 708 328 754 328 811 L328 811 Z M226 799 C220 799 216 804 216 811 C216 817 220 822 226 822 C232 822 237 817 237 811 C237 804 232 799 226 799 L226 799 Z " />
<glyph glyph-name="ae" unicode="&#xe6;" horiz-adv-x="612" d="M586 612 L586 738 L424 738 L307 738 L295 738 L45 70 L173 70 L225 208 L304 208 L306 70 L307 70 L435 70 L586 70 L586 196 L433 196 L433 311 L500 311 L500 437 L433 437 L433 612 L586 612 L586 612 Z M272 334 L300 412 L302 334 L272 334 L272 334 Z " />
<glyph glyph-name="ccedilla" unicode="&#xe7;" horiz-adv-x="382" d="M199 612 L206 612 C218 612 229 608 238 599 C244 593 247 587 250 579 L371 614 C362 642 348 668 326 688 C294 720 252 738 206 738 L199 738 C106 738 29 662 29 567 L29 240 C29 147 106 70 199 70 L206 70 C278 70 343 114 367 183 L248 226 C242 208 226 196 206 196 L199 196 C175 196 155 216 155 240 L155 567 C155 591 175 612 199 612 L199 612 Z M262 86 L136 86 C136 42 152 14 165 -7 C163 -7 160 -7 157 -7 L157 -133 C244 -133 307 -86 307 -18 C307 20 286 44 274 58 C265 71 262 75 262 86 L262 86 Z " />
<glyph glyph-name="egrave" unicode="&#xe8;" horiz-adv-x="396" d="M156 885 L191 771 L245 771 L226 885 L156 885 L156 885 Z M62 70 L341 70 L341 196 L188 196 L188 311 L275 311 L275 437 L188 437 L188 612 L341 612 L341 738 L62 738 L62 70 L62 70 Z " />
<glyph glyph-name="eacute" unicode="&#xe9;" horiz-adv-x="389" d="M158 795 L212 795 L247 909 L178 909 L158 795 L158 795 Z M62 70 L341 70 L341 196 L188 196 L188 311 L275 311 L275 437 L188 437 L188 612 L341 612 L341 738 L62 738 L62 70 L62 70 Z " />
<glyph glyph-name="ecircumflex" unicode="&#xea;" horiz-adv-x="421" d="M62 70 L341 70 L341 196 L188 196 L188 311 L275 311 L275 437 L188 437 L188 612 L341 612 L341 738 L62 738 L62 70 L62 70 Z M308 793 L357 908 L200 976 L46 910 L96 795 L200 838 L308 793 Z " />
<glyph glyph-name="edieresis" unicode="&#xeb;" horiz-adv-x="396" d="M62 70 L341 70 L341 196 L188 196 L188 311 L275 311 L275 437 L188 437 L188 612 L341 612 L341 738 L62 738 L62 70 L62 70 Z M235 785 L312 785 L312 863 L235 863 L235 785 L235 785 Z M112 785 L189 785 L189 863 L112 863 L112 785 L112 785 Z " />
<glyph glyph-name="igrave" unicode="&#xec;" horiz-adv-x="250" d="M-28 612 L79 612 L79 70 L205 70 L205 738 L-28 738 L-28 612 L-28 612 Z M45 902 L80 788 L134 788 L115 902 L45 902 L45 902 Z " />
<glyph glyph-name="iacute" unicode="&#xed;" horiz-adv-x="250" d="M-28 612 L79 612 L79 70 L205 70 L205 738 L-28 738 L-28 612 L-28 612 Z M56 800 L110 800 L145 914 L76 914 L56 800 L56 800 Z " />
<glyph glyph-name="icircumflex" unicode="&#xee;" horiz-adv-x="250" d="M-28 612 L79 612 L79 70 L205 70 L205 738 L-28 738 L-28 612 L-28 612 Z M189 780 L238 895 L81 963 L-73 897 L-23 782 L81 825 L189 780 Z " />
<glyph glyph-name="idieresis" unicode="&#xef;" horiz-adv-x="242" d="M-28 612 L79 612 L79 70 L205 70 L205 738 L-28 738 L-28 612 L-28 612 Z M104 812 L181 812 L181 890 L104 890 L104 812 L104 812 Z M-19 812 L58 812 L58 890 L-19 890 L-19 812 L-19 812 Z " />
<glyph glyph-name="eth" unicode="&#xf0;" horiz-adv-x="432" d="M280 833 L280 888 L181 888 L181 832 C102 809 44 732 44 641 L170 641 C170 655 174 670 181 682 L181 638 L280 638 L280 688 C288 674 294 659 294 641 L294 568 C275 575 254 578 232 578 C128 578 44 490 44 380 L44 206 C44 203 44 200 44 198 L44 198 C44 88 128 -1 232 -1 C336 -1 420 88 420 198 L420 206 L420 380 L420 641 C420 733 360 811 280 833 L280 833 Z M170 380 C170 419 198 452 232 452 C265 452 294 419 294 380 L294 206 C294 167 265 134 232 134 C198 134 170 167 170 206 L170 380 L170 380 Z " />
<glyph glyph-name="ntilde" unicode="&#xf1;" horiz-adv-x="469" d="M177 738 L44 738 L43 738 L44 736 L44 70 L170 70 L170 392 L288 70 L289 70 L415 70 L415 738 L289 738 L289 434 L177 738 Z M165 839 C165 839 165 839 165 839 C176 839 190 829 207 819 C236 802 271 779 319 780 C370 780 419 805 473 861 L385 949 C345 910 325 906 317 906 C317 906 317 906 317 906 C307 906 292 915 274 925 C247 943 212 965 165 965 C165 965 165 965 164 965 C113 965 65 940 11 886 L100 797 C139 834 158 839 165 839 L165 839 Z " />
<glyph glyph-name="ograve" unicode="&#xf2;" horiz-adv-x="421" d="M202 738 C106 738 28 650 28 540 L28 267 C28 159 106 69 202 69 C299 69 377 159 377 267 L377 540 C377 650 299 738 202 738 L202 738 Z M251 267 C251 225 225 196 202 196 C179 196 154 225 154 267 L154 540 C154 584 179 612 202 612 C225 612 251 584 251 540 L251 267 L251 267 Z M156 892 L191 778 L245 778 L226 892 L156 892 L156 892 Z " />
<glyph glyph-name="oacute" unicode="&#xf3;" horiz-adv-x="421" d="M202 738 C106 738 28 650 28 540 L28 267 C28 159 106 69 202 69 C299 69 377 159 377 267 L377 540 C377 650 299 738 202 738 L202 738 Z M251 267 C251 225 225 196 202 196 C179 196 154 225 154 267 L154 540 C154 584 179 612 202 612 C225 612 251 584 251 540 L251 267 L251 267 Z M181 797 L235 797 L270 911 L201 911 L181 797 L181 797 Z " />
<glyph glyph-name="ocircumflex" unicode="&#xf4;" horiz-adv-x="421" d="M212 738 C116 738 38 650 38 540 L38 267 C38 159 116 69 212 69 C309 69 387 159 387 267 L387 540 C387 650 309 738 212 738 L212 738 Z M261 267 C261 225 235 196 212 196 C189 196 164 225 164 267 L164 540 C164 584 189 612 212 612 C235 612 261 584 261 540 L261 267 L261 267 Z M328 688 L377 803 L220 871 L66 805 L116 690 L220 733 L328 688 Z " />
<glyph glyph-name="otilde" unicode="&#xf5;" horiz-adv-x="421" d="M211 738 C115 738 37 650 37 540 L37 267 C37 159 115 69 211 69 C308 69 386 159 386 267 L386 540 C386 650 308 738 211 738 L211 738 Z M260 267 C260 225 234 196 211 196 C188 196 163 225 163 267 L163 540 C163 584 188 612 211 612 C234 612 260 584 260 540 L260 267 L260 267 Z M142 862 C142 862 142 862 142 862 C153 862 167 852 184 842 C213 825 248 802 296 803 C347 803 396 828 450 884 L362 972 C322 933 302 929 294 929 C294 929 294 929 294 929 C284 929 269 938 251 948 C224 966 189 988 142 988 C142 988 142 988 141 988 C90 988 42 963 -12 909 L77 820 C116 857 135 862 142 862 L142 862 Z " />
<glyph glyph-name="odieresis" unicode="&#xf6;" horiz-adv-x="421" d="M212 738 C116 738 38 650 38 540 L38 267 C38 159 116 69 212 69 C309 69 387 159 387 267 L387 540 C387 650 309 738 212 738 L212 738 Z M261 267 C261 225 235 196 212 196 C189 196 164 225 164 267 L164 540 C164 584 189 612 212 612 C235 612 261 584 261 540 L261 267 L261 267 Z M244 732 L321 732 L321 810 L244 810 L244 732 L244 732 Z M121 732 L198 732 L198 810 L121 810 L121 732 L121 732 Z " />
<glyph glyph-name="divide" unicode="&#xf7;" horiz-adv-x="445" d="M206 422 C242 422 272 452 272 490 C272 526 242 556 206 556 C169 556 139 526 139 490 C139 452 169 422 206 422 L206 422 Z M206 251 C169 251 139 221 139 185 C139 148 169 118 206 118 C242 118 272 148 272 185 C272 221 242 251 206 251 L206 251 Z M44 398 L44 272 L368 272 L368 398 L44 398 L44 398 Z " />
<glyph glyph-name="oslash" unicode="&#xf8;" horiz-adv-x="420" d="M164 -66 L187 6 C199 2 211 1 224 1 C323 1 403 90 403 199 L403 418 C403 468 386 514 359 548 L386 635 L266 673 L247 614 C240 616 233 616 224 616 C126 616 46 527 46 418 L46 199 C46 156 59 116 79 84 L44 -28 L164 -66 L164 -66 Z M277 199 C277 162 253 128 226 127 L277 289 L277 199 L277 199 Z M172 418 C172 448 187 475 206 486 L172 377 L172 418 L172 418 Z " />
<glyph glyph-name="ugrave" unicode="&#xf9;" horiz-adv-x="437" d="M275 267 C275 230 251 196 224 196 C197 196 173 230 173 267 L173 738 L47 738 L47 267 C47 158 126 69 224 69 C322 69 401 158 401 267 L401 738 L275 738 L275 267 L275 267 Z M165 914 L200 800 L254 800 L235 914 L165 914 L165 914 Z " />
<glyph glyph-name="uacute" unicode="&#xfa;" horiz-adv-x="451" d="M275 267 C275 230 251 196 224 196 C197 196 173 230 173 267 L173 738 L47 738 L47 267 C47 158 126 69 224 69 C322 69 401 158 401 267 L401 738 L275 738 L275 267 L275 267 Z M188 801 L242 801 L277 915 L208 915 L188 801 L188 801 Z " />
<glyph glyph-name="ucircumflex" unicode="&#xfb;" horiz-adv-x="421" d="M275 267 C275 230 251 196 224 196 C197 196 173 230 173 267 L173 738 L47 738 L47 267 C47 158 126 69 224 69 C322 69 401 158 401 267 L401 738 L275 738 L275 267 L275 267 Z M335 761 L384 876 L227 944 L73 878 L123 763 L227 806 L335 761 Z " />
<glyph glyph-name="udieresis" unicode="&#xfc;" horiz-adv-x="446" d="M275 267 C275 230 251 196 224 196 C197 196 173 230 173 267 L173 738 L47 738 L47 267 C47 158 126 69 224 69 C322 69 401 158 401 267 L401 738 L275 738 L275 267 L275 267 Z M245 809 L322 809 L322 887 L245 887 L245 809 L245 809 Z M122 809 L199 809 L199 887 L122 887 L122 809 L122 809 Z " />
<glyph glyph-name="yacute" unicode="&#xfd;" horiz-adv-x="428" d="M148 738 L16 738 L144 330 L144 70 L270 70 L270 332 L395 738 L263 738 L207 554 L148 738 Z M179 798 L233 798 L268 912 L199 912 L179 798 L179 798 Z " />
<glyph glyph-name="thorn" unicode="&#xfe;" horiz-adv-x="436" d="M228 582 C209 582 191 578 173 572 L173 643 L47 643 L47 -170 L173 -170 L173 8 C191 1 209 -1 228 -1 C326 -1 407 88 407 197 L407 384 C407 493 326 582 228 582 L228 582 Z M281 197 C281 158 256 125 228 125 C200 125 176 158 176 197 L176 384 C176 422 200 456 228 456 C256 456 281 422 281 384 L281 197 Z " />
<glyph glyph-name="ydieresis" unicode="&#xff;" horiz-adv-x="428" d="M148 738 L16 738 L144 330 L144 70 L270 70 L270 332 L395 738 L263 738 L207 554 L148 738 Z M239 793 L316 793 L316 871 L239 871 L239 793 L239 793 Z M116 793 L193 793 L193 871 L116 871 L116 793 L116 793 Z " />
<glyph glyph-name="Amacron" unicode="&#x100;" horiz-adv-x="488" d="M189 812 L28 0 L156 0 L198 204 L305 204 L346 0 L474 0 L317 811 L189 812 Z M223 330 L252 476 L281 330 L223 330 L223 330 Z M256 979 L152 1022 L102 907 L256 841 L413 909 L364 1024 L256 979 L256 979 Z " />
<glyph glyph-name="amacron" unicode="&#x101;" horiz-adv-x="460" d="M163 738 L31 70 L159 70 L187 208 L266 208 L292 70 L421 70 L292 738 L163 738 L163 738 Z M212 334 L226 412 L242 334 L212 334 L212 334 Z M232 925 L128 968 L78 853 L232 787 L389 855 L340 970 L232 925 L232 925 Z " />
<glyph glyph-name="Abreve" unicode="&#x102;" horiz-adv-x="488" d="M189 812 L28 0 L156 0 L198 204 L305 204 L346 0 L474 0 L317 811 L189 812 Z M223 330 L252 476 L281 330 L223 330 L223 330 Z M310 1038 C310 999 286 966 257 966 C229 966 205 999 205 1038 L79 1038 C79 928 159 840 257 840 C355 840 436 928 436 1038 L310 1038 L310 1038 Z " />
<glyph glyph-name="abreve" unicode="&#x103;" horiz-adv-x="462" d="M173 738 L41 70 L169 70 L197 208 L276 208 L302 70 L431 70 L302 738 L173 738 L173 738 Z M222 334 L236 412 L252 334 L222 334 L222 334 Z M296 978 C296 939 272 906 243 906 C215 906 191 939 191 978 L65 978 C65 868 145 780 243 780 C341 780 422 868 422 978 L296 978 L296 978 Z " />
<glyph glyph-name="Aogonek" unicode="&#x104;" horiz-adv-x="488" d="M189 812 L28 0 L156 0 L198 204 L305 204 L346 0 L474 0 L317 811 L189 812 Z M223 330 L252 476 L281 330 L223 330 L223 330 Z M346 2 C346 -9 342 -13 333 -26 C321 -40 301 -64 301 -102 C301 -170 363 -217 450 -217 L450 -91 C448 -91 444 -91 442 -91 C456 -70 472 -42 472 2 L346 2 L346 2 Z " />
<glyph glyph-name="aogonek" unicode="&#x105;" horiz-adv-x="464" d="M163 738 L31 70 L159 70 L187 208 L266 208 L292 70 L421 70 L292 738 L163 738 L163 738 Z M212 334 L226 412 L242 334 L212 334 L212 334 Z M293 71 C293 60 289 56 280 43 C268 29 248 5 248 -33 C248 -101 310 -148 397 -148 L397 -22 C395 -22 391 -22 389 -22 C403 -1 419 27 419 71 L293 71 L293 71 Z " />
<glyph glyph-name="Cacute" unicode="&#x106;" horiz-adv-x="467" d="M226 683 L235 683 C255 683 273 676 286 662 C294 654 301 643 304 631 L425 666 C417 698 399 728 375 752 C336 790 287 810 235 810 L226 810 C117 810 28 721 28 612 L28 198 C28 89 117 0 226 0 L235 0 C318 0 393 53 421 131 L303 174 C293 145 265 127 235 127 L226 127 C186 127 154 158 154 198 L154 612 C154 652 186 683 226 683 L226 683 Z M178 924 L232 924 L267 1038 L198 1038 L178 924 L178 924 Z " />
<glyph glyph-name="cacute" unicode="&#x107;" horiz-adv-x="414" d="M199 612 L206 612 C218 612 229 608 238 599 C244 593 247 587 250 579 L371 614 C362 642 348 668 326 688 C294 720 252 738 206 738 L199 738 C106 738 29 662 29 567 L29 240 C29 147 106 70 199 70 L206 70 C278 70 343 114 367 183 L248 226 C242 208 226 196 206 196 L199 196 C175 196 155 216 155 240 L155 567 C155 591 175 612 199 612 L199 612 Z M177 779 L231 779 L266 893 L197 893 L177 779 L177 779 Z " />
<glyph glyph-name="Ccircumflex" unicode="&#x108;" horiz-adv-x="467" d="M226 683 L235 683 C255 683 273 676 286 662 C294 654 301 643 304 631 L425 666 C417 698 399 728 375 752 C336 790 287 810 235 810 L226 810 C117 810 28 721 28 612 L28 198 C28 89 117 0 226 0 L235 0 C318 0 393 53 421 131 L303 174 C293 145 265 127 235 127 L226 127 C186 127 154 158 154 198 L154 612 C154 652 186 683 226 683 L226 683 Z M316 853 L365 968 L208 1036 L54 970 L104 855 L208 898 L316 853 Z " />
<glyph glyph-name="ccircumflex" unicode="&#x109;" horiz-adv-x="382" d="M208 457 C221 457 234 450 245 436 L347 509 C313 557 262 583 208 583 C109 583 29 494 29 385 L29 198 C29 89 109 0 208 0 C260 0 311 26 346 72 L244 148 C234 134 221 126 208 126 C180 126 155 160 155 198 L155 385 C155 424 180 457 208 457 L208 457 Z M311 615 L360 730 L203 798 L49 732 L99 617 L203 660 L311 615 Z " />
<glyph glyph-name="Cdotaccent" unicode="&#x10a;" horiz-adv-x="467" d="M226 683 L235 683 C255 683 273 676 286 662 C294 654 301 643 304 631 L425 666 C417 698 399 728 375 752 C336 790 287 810 235 810 L226 810 C117 810 28 721 28 612 L28 198 C28 89 117 0 226 0 L235 0 C318 0 393 53 421 131 L303 174 C293 145 265 127 235 127 L226 127 C186 127 154 158 154 198 L154 612 C154 652 186 683 226 683 L226 683 Z M237 939 C271 939 297 967 297 1000 C297 1033 271 1060 237 1060 C204 1060 177 1033 177 1000 C177 967 204 939 237 939 L237 939 Z " />
<glyph glyph-name="cdotaccent" unicode="&#x10b;" horiz-adv-x="382" d="M208 457 C221 457 234 450 245 436 L347 509 C313 557 262 583 208 583 C109 583 29 494 29 385 L29 198 C29 89 109 0 208 0 C260 0 311 26 346 72 L244 148 C234 134 221 126 208 126 C180 126 155 160 155 198 L155 385 C155 424 180 457 208 457 L208 457 Z M195 715 C229 715 255 743 255 776 C255 809 229 836 195 836 C162 836 135 809 135 776 C135 743 162 715 195 715 L195 715 Z " />
<glyph glyph-name="Ccaron" unicode="&#x10c;" horiz-adv-x="467" d="M226 683 L235 683 C255 683 273 676 286 662 C294 654 301 643 304 631 L425 666 C417 698 399 728 375 752 C336 790 287 810 235 810 L226 810 C117 810 28 721 28 612 L28 198 C28 89 117 0 226 0 L235 0 C318 0 393 53 421 131 L303 174 C293 145 265 127 235 127 L226 127 C186 127 154 158 154 198 L154 612 C154 652 186 683 226 683 L226 683 Z M234 979 L130 1022 L80 907 L234 841 L391 909 L342 1024 L234 979 L234 979 Z " />
<glyph glyph-name="ccaron" unicode="&#x10d;" horiz-adv-x="382" d="M199 612 L206 612 C218 612 229 608 238 599 C244 593 247 587 250 579 L371 614 C362 642 348 668 326 688 C294 720 252 738 206 738 L199 738 C106 738 29 662 29 567 L29 240 C29 147 106 70 199 70 L206 70 C278 70 343 114 367 183 L248 226 C242 208 226 196 206 196 L199 196 C175 196 155 216 155 240 L155 567 C155 591 175 612 199 612 L199 612 Z M203 924 L99 967 L49 852 L203 786 L360 854 L311 969 L203 924 L203 924 Z " />
<glyph glyph-name="Dcaron" unicode="&#x10e;" horiz-adv-x="452" d="M225 811 L28 811 L28 0 L39 0 L39 -1 L227 -1 C331 -1 415 85 415 192 L415 620 C415 726 330 811 225 811 L225 811 Z M289 192 C289 155 262 126 227 126 L154 126 L154 684 L225 684 C261 684 289 656 289 620 L289 192 L289 192 Z M204 979 L100 1022 L50 907 L204 841 L361 909 L312 1024 L204 979 L204 979 Z " />
<glyph glyph-name="dcaron" unicode="&#x10f;" horiz-adv-x="480" d="M219 738 L49 738 L49 70 L175 70 L175 70 L220 70 C310 70 384 144 384 237 L384 573 C384 664 309 738 219 738 L219 738 Z M258 237 C258 215 241 196 220 196 L175 196 L175 611 L219 611 C240 611 258 594 258 573 L258 237 L258 237 Z M442 841 L358 841 L358 762 L396 762 L396 762 C396 725 370 728 370 728 L370 698 C444 698 442 762 442 762 L442 841 L442 841 Z " />
<glyph glyph-name="Dcroat" unicode="&#x110;" horiz-adv-x="496" d="M244 811 L47 811 L47 0 L58 0 L58 -1 L246 -1 C350 -1 434 85 434 192 L434 620 C434 726 349 811 244 811 L244 811 Z M308 192 C308 155 281 126 246 126 L173 126 L173 684 L244 684 C280 684 308 656 308 620 L308 192 L308 192 Z M9 348 L237 348 L237 474 L9 474 L9 348 L9 348 Z " />
<glyph glyph-name="dcroat" unicode="&#x111;" horiz-adv-x="451" d="M255 572 C237 580 219 582 200 582 C102 582 21 493 21 384 L21 198 C21 89 102 0 200 0 C219 0 237 4 255 11 L255 -1 L381 -1 L381 811 L255 811 L255 572 L255 572 Z M252 198 C252 161 228 127 200 127 C172 127 147 161 147 198 L147 384 C147 422 172 456 200 456 C228 456 252 422 252 384 L252 198 L252 198 Z M204 614 L451 614 L451 747 L204 747 L204 614 L204 614 Z " />
<glyph glyph-name="Emacron" unicode="&#x112;" horiz-adv-x="389" d="M28 0 L347 0 L347 126 L154 126 L154 307 L275 307 L275 433 L154 433 L154 685 L347 685 L347 811 L28 811 L28 0 L28 0 Z M190 997 L86 1040 L36 925 L190 859 L347 927 L298 1042 L190 997 L190 997 Z " />
<glyph glyph-name="emacron" unicode="&#x113;" horiz-adv-x="394" d="M62 70 L341 70 L341 196 L188 196 L188 311 L275 311 L275 437 L188 437 L188 612 L341 612 L341 738 L62 738 L62 70 L62 70 Z M198 931 L94 974 L44 859 L198 793 L355 861 L306 976 L198 931 L198 931 Z " />
<glyph glyph-name="Edotaccent" unicode="&#x116;" horiz-adv-x="389" d="M28 0 L347 0 L347 126 L154 126 L154 307 L275 307 L275 433 L154 433 L154 685 L347 685 L347 811 L28 811 L28 0 L28 0 Z M199 939 C233 939 259 967 259 1000 C259 1033 233 1060 199 1060 C166 1060 139 1033 139 1000 C139 967 166 939 199 939 L199 939 Z " />
<glyph glyph-name="edotaccent" unicode="&#x117;" horiz-adv-x="382" d="M52 70 L331 70 L331 196 L178 196 L178 311 L265 311 L265 437 L178 437 L178 612 L331 612 L331 738 L52 738 L52 70 L52 70 Z M200 792 C234 792 260 820 260 853 C260 886 234 913 200 913 C167 913 140 886 140 853 C140 820 167 792 200 792 L200 792 Z " />
<glyph glyph-name="Eogonek" unicode="&#x118;" horiz-adv-x="389" d="M28 0 L347 0 L347 126 L154 126 L154 307 L275 307 L275 433 L154 433 L154 685 L347 685 L347 811 L28 811 L28 0 L28 0 Z M154 2 C154 -9 150 -13 141 -26 C129 -40 109 -64 109 -102 C109 -170 171 -217 258 -217 L258 -91 C256 -91 252 -91 250 -91 C264 -70 280 -42 280 2 L154 2 L154 2 Z " />
<glyph glyph-name="eogonek" unicode="&#x119;" horiz-adv-x="376" d="M52 70 L331 70 L331 196 L178 196 L178 311 L265 311 L265 437 L178 437 L178 612 L331 612 L331 738 L52 738 L52 70 L52 70 Z M137 82 C137 71 133 67 124 54 C112 40 92 16 92 -22 C92 -90 154 -137 241 -137 L241 -11 C239 -11 235 -11 233 -11 C247 10 263 38 263 82 L137 82 L137 82 Z " />
<glyph glyph-name="Ecaron" unicode="&#x11a;" horiz-adv-x="389" d="M28 0 L347 0 L347 126 L154 126 L154 307 L275 307 L275 433 L154 433 L154 685 L347 685 L347 811 L28 811 L28 0 L28 0 Z M197 979 L93 1022 L43 907 L197 841 L354 909 L305 1024 L197 979 L197 979 Z " />
<glyph glyph-name="ecaron" unicode="&#x11b;" horiz-adv-x="385" d="M52 70 L331 70 L331 196 L178 196 L178 311 L265 311 L265 437 L178 437 L178 612 L331 612 L331 738 L52 738 L52 70 L52 70 Z M189 910 L85 953 L35 838 L189 772 L346 840 L297 955 L189 910 L189 910 Z " />
<glyph glyph-name="Gcircumflex" unicode="&#x11c;" horiz-adv-x="470" d="M213 307 L307 307 L307 198 C307 158 275 126 235 126 L226 126 C186 126 154 158 154 198 L154 613 C154 653 186 684 226 684 L235 684 C255 684 273 677 286 664 C294 655 301 644 304 632 L425 667 C417 700 399 730 375 754 C336 791 287 810 235 810 L226 810 C117 810 28 721 28 613 L28 198 C28 89 117 0 226 0 L235 0 C345 0 433 89 433 198 L433 433 L213 433 L213 307 L213 307 Z M318 853 L367 968 L210 1036 L56 970 L106 855 L210 898 L318 853 Z " />
<glyph glyph-name="gcircumflex" unicode="&#x11d;" horiz-adv-x="432" d="M258 574 C243 580 225 582 207 582 C108 582 28 494 28 385 L28 198 C28 89 108 0 207 0 C225 0 243 2 258 8 C258 -29 234 -62 207 -62 C195 -62 185 -55 179 -50 L95 -144 C126 -173 166 -188 207 -188 C305 -188 384 -100 384 10 L384 583 L258 583 L258 574 L258 574 Z M207 126 C179 126 154 160 154 198 L154 385 C154 424 179 456 207 456 C234 456 258 424 258 385 L258 198 C258 160 234 126 207 126 L207 126 Z M354 637 L403 752 L246 820 L92 754 L142 639 L246 682 L354 637 Z " />
<glyph glyph-name="Gbreve" unicode="&#x11e;" horiz-adv-x="470" d="M213 307 L307 307 L307 198 C307 158 275 126 235 126 L226 126 C186 126 154 158 154 198 L154 613 C154 653 186 684 226 684 L235 684 C255 684 273 677 286 664 C294 655 301 644 304 632 L425 667 C417 700 399 730 375 754 C336 791 287 810 235 810 L226 810 C117 810 28 721 28 613 L28 198 C28 89 117 0 226 0 L235 0 C345 0 433 89 433 198 L433 433 L213 433 L213 307 L213 307 Z M301 1038 C301 999 277 966 248 966 C220 966 196 999 196 1038 L70 1038 C70 928 150 840 248 840 C346 840 427 928 427 1038 L301 1038 L301 1038 Z " />
<glyph glyph-name="gbreve" unicode="&#x11f;" horiz-adv-x="432" d="M258 574 C243 580 225 582 207 582 C108 582 28 494 28 385 L28 198 C28 89 108 0 207 0 C225 0 243 2 258 8 C258 -29 234 -62 207 -62 C195 -62 185 -55 179 -50 L95 -144 C126 -173 166 -188 207 -188 C305 -188 384 -100 384 10 L384 583 L258 583 L258 574 L258 574 Z M207 126 C179 126 154 160 154 198 L154 385 C154 424 179 456 207 456 C234 456 258 424 258 385 L258 198 C258 160 234 126 207 126 L207 126 Z M281 814 C281 775 257 742 228 742 C200 742 176 775 176 814 L50 814 C50 704 130 616 228 616 C326 616 407 704 407 814 L281 814 L281 814 Z " />
<glyph glyph-name="Gdotaccent" unicode="&#x120;" horiz-adv-x="470" d="M213 307 L307 307 L307 198 C307 158 275 126 235 126 L226 126 C186 126 154 158 154 198 L154 613 C154 653 186 684 226 684 L235 684 C255 684 273 677 286 664 C294 655 301 644 304 632 L425 667 C417 700 399 730 375 754 C336 791 287 810 235 810 L226 810 C117 810 28 721 28 613 L28 198 C28 89 117 0 226 0 L235 0 C345 0 433 89 433 198 L433 433 L213 433 L213 307 L213 307 Z M240 939 C274 939 300 967 300 1000 C300 1033 274 1060 240 1060 C207 1060 180 1033 180 1000 C180 967 207 939 240 939 L240 939 Z " />
<glyph glyph-name="gdotaccent" unicode="&#x121;" horiz-adv-x="432" d="M258 574 C243 580 225 582 207 582 C108 582 28 494 28 385 L28 198 C28 89 108 0 207 0 C225 0 243 2 258 8 C258 -29 234 -62 207 -62 C195 -62 185 -55 179 -50 L95 -144 C126 -173 166 -188 207 -188 C305 -188 384 -100 384 10 L384 583 L258 583 L258 574 L258 574 Z M207 126 C179 126 154 160 154 198 L154 385 C154 424 179 456 207 456 C234 456 258 424 258 385 L258 198 C258 160 234 126 207 126 L207 126 Z M220 715 C254 715 280 743 280 776 C280 809 254 836 220 836 C187 836 160 809 160 776 C160 743 187 715 220 715 L220 715 Z " />
<glyph glyph-name="Gcommaaccent" unicode="&#x122;" horiz-adv-x="470" d="M213 307 L307 307 L307 198 C307 158 275 126 235 126 L226 126 C186 126 154 158 154 198 L154 613 C154 653 186 684 226 684 L235 684 C255 684 273 677 286 664 C294 655 301 644 304 632 L425 667 C417 700 399 730 375 754 C336 791 287 810 235 810 L226 810 C117 810 28 721 28 613 L28 198 C28 89 117 0 226 0 L235 0 C345 0 433 89 433 198 L433 433 L213 433 L213 307 L213 307 Z M266 34 L182 34 L182 -45 L220 -45 L220 -45 C220 -82 194 -78 194 -78 L194 -108 C268 -108 266 -45 266 -45 L266 34 L266 34 Z " />
<glyph glyph-name="gcommaaccent" unicode="&#x123;" horiz-adv-x="420" d="M186 314 L249 314 L249 242 C249 216 228 196 204 196 L197 196 C173 196 153 216 153 242 L153 567 C153 592 173 612 197 612 L204 612 C216 612 227 608 236 599 C240 593 245 587 246 579 L368 614 C360 642 345 668 324 688 C292 720 250 738 204 738 L197 738 C104 738 27 662 27 567 L27 242 C27 147 104 70 197 70 L204 70 C298 70 375 147 375 242 L375 440 L186 440 L186 314 L186 314 Z M218 855 C218 892 243 888 243 888 L243 918 C170 918 171 855 171 855 L171 775 L255 775 L255 855 L218 855 L218 855 L218 855 Z " />
<glyph glyph-name="Hcircumflex" unicode="&#x124;" horiz-adv-x="460" d="M294 433 L154 433 L154 811 L28 811 L28 0 L154 0 L154 307 L294 307 L294 0 L420 0 L420 811 L294 811 L294 433 L294 433 Z M313 853 L362 968 L205 1036 L51 970 L101 855 L205 898 L313 853 Z " />
<glyph glyph-name="hcircumflex" unicode="&#x125;" horiz-adv-x="421" d="M210 582 C192 582 174 580 157 574 L157 809 L31 809 L31 0 L157 0 L157 384 C157 422 182 456 210 456 C237 456 261 422 261 384 L261 0 L387 0 L387 384 C387 493 308 582 210 582 L210 582 Z M294 839 L343 954 L186 1022 L32 956 L82 841 L186 884 L294 839 Z " />
<glyph glyph-name="Hbar" unicode="&#x126;" horiz-adv-x="581" d="M40 509 L457 509 L457 526 L40 526 L40 509 Z M369 433 L229 433 L229 811 L103 811 L103 0 L229 0 L229 307 L369 307 L369 0 L495 0 L495 811 L369 811 L369 433 L369 433 Z " />
<glyph glyph-name="hbar" unicode="&#x127;" horiz-adv-x="421" d="M210 582 C192 582 174 580 157 574 L157 809 L31 809 L31 0 L157 0 L157 384 C157 422 182 456 210 456 C237 456 261 422 261 384 L261 0 L387 0 L387 384 C387 493 308 582 210 582 L210 582 Z M-4 625 L300 625 L300 751 L-4 751 L-4 625 L-4 625 Z " />
<glyph glyph-name="Itilde" unicode="&#x128;" horiz-adv-x="199" d="M28 0 L154 0 L154 811 L28 811 L28 0 L28 0 Z M30 944 C30 944 30 944 30 944 C41 944 55 934 72 924 C101 907 136 884 184 885 C235 885 284 910 338 966 L250 1054 C210 1015 190 1011 182 1011 C182 1011 182 1011 182 1011 C172 1011 157 1020 139 1030 C112 1048 77 1070 30 1070 C30 1070 30 1070 29 1070 C-22 1070 -70 1045 -124 991 L-35 902 C4 939 23 944 30 944 L30 944 Z " />
<glyph glyph-name="itilde" unicode="&#x129;" horiz-adv-x="250" d="M-28 612 L79 612 L79 70 L205 70 L205 738 L-28 738 L-28 612 L-28 612 Z M28 763 C28 763 28 763 28 763 C39 763 53 753 70 743 C99 726 134 703 182 704 C233 704 282 729 336 785 L248 873 C208 834 188 830 180 830 C180 830 180 830 180 830 C170 830 155 839 137 849 C110 867 75 889 28 889 C28 889 28 889 27 889 C-24 889 -72 864 -126 810 L-37 721 C2 758 21 763 28 763 L28 763 Z " />
<glyph glyph-name="imacron" unicode="&#x12b;" horiz-adv-x="250" d="M-28 612 L79 612 L79 70 L205 70 L205 738 L-28 738 L-28 612 L-28 612 Z M100 864 L-4 907 L-54 792 L100 726 L257 794 L208 909 L100 864 L100 864 Z " />
<glyph glyph-name="Iogonek" unicode="&#x12e;" horiz-adv-x="199" d="M28 0 L154 0 L154 811 L28 811 L28 0 L28 0 Z M46 2 C46 -9 42 -13 33 -26 C21 -40 1 -64 1 -102 C1 -170 63 -217 150 -217 L150 -91 C148 -91 144 -91 142 -91 C156 -70 172 -42 172 2 L46 2 L46 2 Z " />
<glyph glyph-name="iogonek" unicode="&#x12f;" horiz-adv-x="460" d="M393 738 L266 738 L266 274 C266 230 242 196 219 196 C192 196 171 225 171 258 L171 383 L45 383 L45 258 C45 154 123 70 219 70 C315 70 393 161 393 274 L393 738 L393 738 Z M176 93 C176 82 172 78 163 65 C151 51 131 27 131 -11 C131 -79 193 -126 280 -126 L280 0 C278 0 274 0 272 0 C286 21 302 49 302 93 L176 93 L176 93 Z " />
<glyph glyph-name="Idotaccent" unicode="&#x130;" horiz-adv-x="199" d="M28 0 L154 0 L154 811 L28 811 L28 0 L28 0 Z M104 939 C138 939 164 967 164 1000 C164 1033 138 1060 104 1060 C71 1060 44 1033 44 1000 C44 967 71 939 104 939 L104 939 Z " />
<glyph glyph-name="dotlessi" unicode="&#x131;" horiz-adv-x="250" d="M-28 612 L79 612 L79 70 L205 70 L205 738 L-28 738 L-28 612 L-28 612 Z " />
<glyph glyph-name="Jcircumflex" unicode="&#x134;" horiz-adv-x="461" d="M299 203 C299 161 267 125 226 125 C186 125 154 161 154 203 L154 373 L28 373 L28 203 C28 91 117 -1 226 -1 C336 -1 425 91 425 203 L425 810 L299 810 L299 203 L299 203 Z M454 853 L503 968 L346 1036 L192 970 L242 855 L346 898 L454 853 Z " />
<glyph glyph-name="jcircumflex" unicode="&#x135;" horiz-adv-x="204" d="M-70 610 L56 610 L56 740 L-70 740 L-70 610 L-70 610 Z M-70 29 C-70 -10 -96 -43 -123 -43 C-135 -43 -145 -37 -151 -31 L-235 -126 C-204 -154 -164 -169 -123 -169 C-25 -169 56 -80 56 29 L56 583 L-70 583 L-70 29 L-70 29 Z M179 779 L228 894 L71 962 L-83 896 L-33 781 L71 824 L179 779 Z " />
<glyph glyph-name="Kcommaaccent" unicode="&#x136;" horiz-adv-x="488" d="M310 811 L154 569 L154 811 L28 811 L28 373 L28 317 L28 0 L154 0 L154 336 L183 380 L319 0 L453 0 L269 514 L460 811 L310 811 L310 811 Z M262 -28 L178 -28 L178 -107 L216 -107 L216 -107 C216 -144 190 -140 190 -140 L190 -170 C264 -170 262 -107 262 -107 L262 -28 L262 -28 Z " />
<glyph glyph-name="kcommaaccent" unicode="&#x137;" horiz-adv-x="470" d="M303 738 L170 532 L170 740 L44 740 L44 70 L170 70 L170 300 L194 336 L290 70 L423 70 L280 470 L454 738 L303 738 L303 738 Z M236 37 L152 37 L152 -42 L190 -42 L190 -42 C190 -79 164 -75 164 -75 L164 -105 C238 -105 236 -42 236 -42 L236 37 L236 37 Z " />
<glyph glyph-name="kgreenlandic" unicode="&#x138;" horiz-adv-x="445" d="M295 583 L173 420 L173 581 L47 581 L47 0 L173 0 L173 210 L210 259 L306 0 L440 0 L300 379 L454 583 L295 583 Z " />
<glyph glyph-name="Lacute" unicode="&#x139;" horiz-adv-x="389" d="M154 811 L28 811 L28 0 L347 0 L347 126 L154 126 L154 811 L154 811 Z M62 924 L116 924 L151 1038 L82 1038 L62 924 L62 924 Z " />
<glyph glyph-name="lacute" unicode="&#x13a;" horiz-adv-x="193" d="M47 0 L173 0 L173 811 L47 811 L47 0 L47 0 Z M52 885 L106 885 L141 999 L72 999 L52 885 L52 885 Z " />
<glyph glyph-name="Lcommaaccent" unicode="&#x13b;" horiz-adv-x="389" d="M154 811 L28 811 L28 0 L347 0 L347 126 L154 126 L154 811 L154 811 Z M214 20 L130 20 L130 -59 L168 -59 L168 -59 C168 -96 142 -92 142 -92 L142 -122 C216 -122 214 -59 214 -59 L214 20 L214 20 Z " />
<glyph glyph-name="lcommaaccent" unicode="&#x13c;" horiz-adv-x="193" d="M47 0 L173 0 L173 811 L47 811 L47 0 L47 0 Z M160 31 L76 31 L76 -48 L114 -48 L114 -48 C114 -85 88 -81 88 -81 L88 -111 C162 -111 160 -48 160 -48 L160 31 L160 31 Z " />
<glyph glyph-name="Lcaron" unicode="&#x13d;" horiz-adv-x="389" d="M154 811 L28 811 L28 0 L347 0 L347 126 L154 126 L154 811 L154 811 Z M134 980 L50 980 L50 901 L88 901 L88 901 C88 864 62 867 62 867 L62 837 C136 837 134 901 134 901 L134 980 L134 980 Z " />
<glyph glyph-name="lcaron" unicode="&#x13e;" horiz-adv-x="318" d="M47 0 L173 0 L173 811 L47 811 L47 0 L47 0 Z M283 873 L199 873 L199 794 L237 794 L237 794 C237 757 211 760 211 760 L211 730 C285 730 283 794 283 794 L283 873 L283 873 Z " />
<glyph glyph-name="Lslash" unicode="&#x141;" horiz-adv-x="421" d="M173 809 L47 809 L47 0 L366 0 L366 126 L173 126 L173 809 Z M8 348 L264 348 L264 474 L8 474 L8 348 Z " />
<glyph glyph-name="lslash" unicode="&#x142;" horiz-adv-x="320" d="M98 0 L224 0 L224 811 L98 811 L98 0 L98 0 Z M30 340 L308 340 L308 475 L30 475 L30 340 L30 340 Z " />
<glyph glyph-name="Nacute" unicode="&#x143;" horiz-adv-x="484" d="M162 812 L29 812 L28 812 L29 0 L155 0 L155 468 L331 0 L333 0 L459 0 L459 810 L333 810 L333 356 L162 812 Z M188 924 L242 924 L277 1038 L208 1038 L188 924 L188 924 Z " />
<glyph glyph-name="nacute" unicode="&#x144;" horiz-adv-x="471" d="M187 738 L54 738 L53 738 L54 736 L54 70 L180 70 L180 392 L298 70 L299 70 L425 70 L425 738 L299 738 L299 434 L187 738 Z M221 780 L275 780 L310 894 L241 894 L221 780 L221 780 Z " />
<glyph glyph-name="Ncommaaccent" unicode="&#x145;" horiz-adv-x="484" d="M162 812 L29 812 L28 812 L29 0 L155 0 L155 468 L331 0 L333 0 L459 0 L459 810 L333 810 L333 356 L162 812 Z M274 42 L190 42 L190 -37 L228 -37 L228 -37 C228 -74 202 -70 202 -70 L202 -100 C276 -100 274 -37 274 -37 L274 42 L274 42 Z " />
<glyph glyph-name="ncommaaccent" unicode="&#x146;" horiz-adv-x="426" d="M157 738 L24 738 L23 738 L24 736 L24 70 L150 70 L150 392 L268 70 L269 70 L395 70 L395 738 L269 738 L269 434 L157 738 Z M244 29 L160 29 L160 -50 L198 -50 L198 -50 C198 -87 172 -83 172 -83 L172 -113 C246 -113 244 -50 244 -50 L244 29 L244 29 Z " />
<glyph glyph-name="Ncaron" unicode="&#x147;" horiz-adv-x="484" d="M162 812 L29 812 L28 812 L29 0 L155 0 L155 468 L331 0 L333 0 L459 0 L459 810 L333 810 L333 356 L162 812 Z M244 979 L140 1022 L90 907 L244 841 L401 909 L352 1024 L244 979 L244 979 Z " />
<glyph glyph-name="ncaron" unicode="&#x148;" horiz-adv-x="446" d="M167 738 L34 738 L33 738 L34 736 L34 70 L160 70 L160 392 L278 70 L279 70 L405 70 L405 738 L279 738 L279 434 L167 738 Z M225 922 L121 965 L71 850 L225 784 L382 852 L333 967 L225 922 L225 922 Z " />
<glyph glyph-name="Eng" unicode="&#x14a;" horiz-adv-x="484" d="M334 -73 C334 -115 301 -151 260 -151 C221 -151 188 -115 188 -73 L188 -59 L62 -59 L62 -73 C62 -185 151 -277 260 -277 C371 -277 460 -185 460 -73 L460 532 L334 532 L334 -73 L334 -73 Z M162 812 L29 812 L28 812 L29 0 L155 0 L155 468 L331 0 L333 0 L459 0 L459 810 L333 810 L333 356 L162 812 Z " />
<glyph glyph-name="eng" unicode="&#x14b;" horiz-adv-x="461" d="M277 29 C277 -10 252 -43 224 -43 C212 -43 203 -37 197 -31 L113 -126 C144 -154 184 -169 224 -169 C323 -169 403 -80 403 29 L403 307 L277 307 L277 29 L277 29 Z M225 582 C207 582 189 580 173 574 L173 583 L47 583 L47 0 L173 0 L173 384 C173 422 198 456 225 456 C253 456 277 422 277 384 L277 0 L403 0 L403 384 C403 493 324 582 225 582 L225 582 Z " />
<glyph glyph-name="Omacron" unicode="&#x14c;" horiz-adv-x="468" d="M235 810 L226 810 C117 810 28 721 28 612 L28 198 C28 89 117 0 226 0 L235 0 C345 0 433 89 433 198 L433 612 C433 721 345 810 235 810 L235 810 Z M307 198 C307 158 275 126 235 126 L226 126 C186 126 154 158 154 198 L154 612 C154 652 186 684 226 684 L235 684 C275 684 307 652 307 612 L307 198 L307 198 Z M238 1008 L134 1051 L84 936 L238 870 L395 938 L346 1053 L238 1008 L238 1008 Z " />
<glyph glyph-name="omacron" unicode="&#x14d;" horiz-adv-x="421" d="M212 738 C116 738 38 650 38 540 L38 267 C38 159 116 69 212 69 C309 69 387 159 387 267 L387 540 C387 650 309 738 212 738 L212 738 Z M261 267 C261 225 235 196 212 196 C189 196 164 225 164 267 L164 540 C164 584 189 612 212 612 C235 612 261 584 261 540 L261 267 L261 267 Z M211 915 L107 958 L57 843 L211 777 L368 845 L319 960 L211 915 L211 915 Z " />
<glyph glyph-name="Ohungarumlaut" unicode="&#x150;" horiz-adv-x="468" d="M235 810 L226 810 C117 810 28 721 28 612 L28 198 C28 89 117 0 226 0 L235 0 C345 0 433 89 433 198 L433 612 C433 721 345 810 235 810 L235 810 Z M307 198 C307 158 275 126 235 126 L226 126 C186 126 154 158 154 198 L154 612 C154 652 186 684 226 684 L235 684 C275 684 307 652 307 612 L307 198 L307 198 Z M127 924 L181 924 L216 1038 L147 1038 L127 924 L127 924 Z M220 924 L275 924 L310 1038 L240 1038 L220 924 L220 924 Z " />
<glyph glyph-name="ohungarumlaut" unicode="&#x151;" horiz-adv-x="421" d="M212 738 C116 738 38 650 38 540 L38 267 C38 159 116 69 212 69 C309 69 387 159 387 267 L387 540 C387 650 309 738 212 738 L212 738 Z M261 267 C261 225 235 196 212 196 C189 196 164 225 164 267 L164 540 C164 584 189 612 212 612 C235 612 261 584 261 540 L261 267 L261 267 Z M139 780 L193 780 L228 894 L159 894 L139 780 L139 780 Z M232 780 L287 780 L322 894 L252 894 L232 780 L232 780 Z " />
<glyph glyph-name="OE" unicode="&#x152;" horiz-adv-x="662" d="M676 683 L676 809 L356 809 L356 792 C334 802 307 808 281 808 L271 808 C162 808 73 719 73 610 L73 198 C73 89 162 0 271 0 L281 0 C307 0 334 5 356 14 L356 0 L676 0 L676 126 L482 126 L482 307 L583 307 L583 433 L482 433 L482 683 L676 683 L676 683 Z M353 198 C353 158 320 126 281 126 L271 126 C232 126 199 158 199 198 L199 610 C199 649 232 682 271 682 L281 682 C320 682 353 649 353 610 L353 198 L353 198 Z " />
<glyph glyph-name="oe" unicode="&#x153;" horiz-adv-x="606" d="M221 738 C125 738 47 650 47 540 L47 267 C47 159 125 69 221 69 C318 69 396 159 396 267 L396 540 C396 650 318 738 221 738 L221 738 Z M270 267 C270 225 244 196 221 196 C198 196 173 225 173 267 L173 540 C173 584 198 612 221 612 C244 612 270 584 270 540 L270 267 L270 267 Z M269 70 L548 70 L548 196 L395 196 L395 311 L482 311 L482 437 L395 437 L395 612 L548 612 L548 738 L269 738 L269 70 L269 70 Z " />
<glyph glyph-name="Racute" unicode="&#x154;" horiz-adv-x="455" d="M414 462 L414 618 C414 724 330 810 227 810 L28 810 L28 397 L28 270 L28 0 L154 0 L154 270 L219 270 C258 270 291 238 291 198 L291 0 L417 0 L417 198 C417 250 397 296 365 332 C396 366 414 412 414 462 L414 462 Z M154 684 L227 684 C261 684 288 654 288 618 L288 462 C288 426 261 397 227 397 L154 397 L154 684 L154 684 Z M172 924 L226 924 L261 1038 L192 1038 L172 924 L172 924 Z " />
<glyph glyph-name="racute" unicode="&#x155;" horiz-adv-x="401" d="M366 447 L366 572 C366 664 293 738 203 738 L29 738 L29 737 L29 70 L155 70 L155 279 L192 279 C216 279 242 249 242 207 L242 70 L368 70 L368 207 C368 256 352 302 325 335 C350 365 366 404 366 447 L366 447 Z M155 612 L203 612 C223 612 240 593 240 572 L240 447 C240 424 223 405 203 405 L155 405 L155 612 L155 612 Z M157 782 L211 782 L246 896 L177 896 L157 782 L157 782 Z " />
<glyph glyph-name="Rcommaaccent" unicode="&#x156;" horiz-adv-x="455" d="M414 462 L414 618 C414 724 330 810 227 810 L28 810 L28 397 L28 270 L28 0 L154 0 L154 270 L219 270 C258 270 291 238 291 198 L291 0 L417 0 L417 198 C417 250 397 296 365 332 C396 366 414 412 414 462 L414 462 Z M154 684 L227 684 C261 684 288 654 288 618 L288 462 C288 426 261 397 227 397 L154 397 L154 684 L154 684 Z M254 -22 L170 -22 L170 -101 L208 -101 L208 -101 C208 -138 182 -134 182 -134 L182 -164 C256 -164 254 -101 254 -101 L254 -22 L254 -22 Z " />
<glyph glyph-name="rcommaaccent" unicode="&#x157;" horiz-adv-x="435" d="M366 447 L366 572 C366 664 293 738 203 738 L29 738 L29 737 L29 70 L155 70 L155 279 L192 279 C216 279 242 249 242 207 L242 70 L368 70 L368 207 C368 256 352 302 325 335 C350 365 366 404 366 447 L366 447 Z M155 612 L203 612 C223 612 240 593 240 572 L240 447 C240 424 223 405 203 405 L155 405 L155 612 L155 612 Z M128 31 L44 31 L44 -48 L82 -48 L82 -48 C82 -85 56 -81 56 -81 L56 -111 C130 -111 128 -48 128 -48 L128 31 L128 31 Z " />
<glyph glyph-name="Rcaron" unicode="&#x158;" horiz-adv-x="455" d="M414 462 L414 618 C414 724 330 810 227 810 L28 810 L28 397 L28 270 L28 0 L154 0 L154 270 L219 270 C258 270 291 238 291 198 L291 0 L417 0 L417 198 C417 250 397 296 365 332 C396 366 414 412 414 462 L414 462 Z M154 684 L227 684 C261 684 288 654 288 618 L288 462 C288 426 261 397 227 397 L154 397 L154 684 L154 684 Z M228 979 L124 1022 L74 907 L228 841 L385 909 L336 1024 L228 979 L228 979 Z " />
<glyph glyph-name="rcaron" unicode="&#x159;" horiz-adv-x="379" d="M206 582 C188 582 170 580 154 574 L154 583 L28 583 L28 384 L28 167 L28 0 L154 0 L154 167 L154 384 C154 422 179 456 206 456 C220 456 233 449 244 434 L346 508 C312 556 260 582 206 582 L206 582 Z M191 755 L87 798 L37 683 L191 617 L348 685 L299 800 L191 755 L191 755 Z " />
<glyph glyph-name="Sacute" unicode="&#x15a;" horiz-adv-x="479" d="M268 456 C197 516 154 560 154 625 C155 658 187 684 229 684 C269 684 303 654 303 617 L429 617 C429 724 339 810 229 810 C118 810 29 730 28 626 C27 499 115 420 186 359 C259 298 304 257 303 188 C301 170 300 126 229 126 C189 126 155 156 155 193 L29 193 C29 86 119 0 229 0 C282 0 330 16 365 46 C393 68 426 112 429 185 C431 317 341 394 268 456 L268 456 Z M186 924 L240 924 L275 1038 L206 1038 L186 924 L186 924 Z " />
<glyph glyph-name="sacute" unicode="&#x15b;" horiz-adv-x="398" d="M248 455 C194 501 161 532 161 578 C161 598 182 612 209 612 C235 612 256 594 256 572 L383 572 C383 664 305 738 209 738 C113 738 36 669 35 580 C34 472 108 408 168 359 C223 311 257 280 256 232 C256 219 256 195 209 195 C184 195 162 213 162 236 L36 236 C36 143 114 69 209 69 C311 69 379 134 383 228 C385 340 310 404 248 455 L248 455 Z M181 784 L235 784 L270 898 L201 898 L181 784 L181 784 Z " />
<glyph glyph-name="Scircumflex" unicode="&#x15c;" horiz-adv-x="479" d="M268 456 C197 516 154 560 154 625 C155 658 187 684 229 684 C269 684 303 654 303 617 L429 617 C429 724 339 810 229 810 C118 810 29 730 28 626 C27 499 115 420 186 359 C259 298 304 257 303 188 C301 170 300 126 229 126 C189 126 155 156 155 193 L29 193 C29 86 119 0 229 0 C282 0 330 16 365 46 C393 68 426 112 429 185 C431 317 341 394 268 456 L268 456 Z M323 853 L372 968 L215 1036 L61 970 L111 855 L215 898 L323 853 Z " />
<glyph glyph-name="scircumflex" unicode="&#x15d;" horiz-adv-x="398" d="M233 346 C179 385 155 407 156 434 C156 439 157 444 163 449 C172 455 182 457 187 456 C209 454 235 437 248 422 L341 508 C314 538 263 574 204 582 C162 587 115 572 83 545 C50 520 32 482 30 442 C24 342 101 284 157 242 C211 203 236 181 234 151 C232 127 205 126 197 126 L196 126 C175 126 148 148 143 158 L29 103 C56 47 130 1 194 0 C196 0 198 0 199 0 C286 0 352 59 359 140 C368 244 290 302 233 346 L233 346 Z M282 629 L331 744 L174 812 L20 746 L70 631 L174 674 L282 629 Z " />
<glyph glyph-name="Scedilla" unicode="&#x15e;" horiz-adv-x="479" d="M268 456 C197 516 154 560 154 625 C155 658 187 684 229 684 C269 684 303 654 303 617 L429 617 C429 724 339 810 229 810 C118 810 29 730 28 626 C27 499 115 420 186 359 C259 298 304 257 303 188 C301 170 300 126 229 126 C189 126 155 156 155 193 L29 193 C29 86 119 0 229 0 C282 0 330 16 365 46 C393 68 426 112 429 185 C431 317 341 394 268 456 L268 456 Z M294 52 L168 52 C168 8 184 -20 197 -41 C195 -41 192 -41 189 -41 L189 -167 C276 -167 339 -120 339 -52 C339 -14 318 10 306 24 C297 37 294 41 294 52 L294 52 Z " />
<glyph glyph-name="scedilla" unicode="&#x15f;" horiz-adv-x="398" d="M233 346 C179 385 155 407 156 434 C156 439 157 444 163 449 C172 455 182 457 187 456 C209 454 235 437 248 422 L341 508 C314 538 263 574 204 582 C162 587 115 572 83 545 C50 520 32 482 30 442 C24 342 101 284 157 242 C211 203 236 181 234 151 C232 127 205 126 197 126 L196 126 C175 126 148 148 143 158 L29 103 C56 47 130 1 194 0 C196 0 198 0 199 0 C286 0 352 59 359 140 C368 244 290 302 233 346 L233 346 Z M253 52 L127 52 C127 8 143 -20 156 -41 C154 -41 151 -41 148 -41 L148 -167 C235 -167 298 -120 298 -52 C298 -14 277 10 265 24 C256 37 253 41 253 52 L253 52 Z " />
<glyph glyph-name="Scaron" unicode="&#x160;" horiz-adv-x="479" d="M268 456 C197 516 154 560 154 625 C155 658 187 684 229 684 C269 684 303 654 303 617 L429 617 C429 724 339 810 229 810 C118 810 29 730 28 626 C27 499 115 420 186 359 C259 298 304 257 303 188 C301 170 300 126 229 126 C189 126 155 156 155 193 L29 193 C29 86 119 0 229 0 C282 0 330 16 365 46 C393 68 426 112 429 185 C431 317 341 394 268 456 L268 456 Z M241 979 L137 1022 L87 907 L241 841 L398 909 L349 1024 L241 979 L241 979 Z " />
<glyph glyph-name="scaron" unicode="&#x161;" horiz-adv-x="398" d="M233 346 C179 385 155 407 156 434 C156 439 157 444 163 449 C172 455 182 457 187 456 C209 454 235 437 248 422 L341 508 C314 538 263 574 204 582 C162 587 115 572 83 545 C50 520 32 482 30 442 C24 342 101 284 157 242 C211 203 236 181 234 151 C232 127 205 126 197 126 L196 126 C175 126 148 148 143 158 L29 103 C56 47 130 1 194 0 C196 0 198 0 199 0 C286 0 352 59 359 140 C368 244 290 302 233 346 L233 346 Z M202 755 L98 798 L48 683 L202 617 L359 685 L310 800 L202 755 L202 755 Z " />
<glyph glyph-name="Tcommaaccent" unicode="&#x162;" horiz-adv-x="436" d="M395 810 L28 810 L28 684 L149 684 L149 0 L275 0 L275 684 L395 684 L395 810 L395 810 Z M248 20 L164 20 L164 -59 L202 -59 L202 -59 C202 -96 176 -92 176 -92 L176 -122 C250 -122 248 -59 248 -59 L248 20 L248 20 Z " />
<glyph glyph-name="tcommaaccent" unicode="&#x163;" horiz-adv-x="397" d="M231 125 C221 127 209 154 209 198 L209 457 L298 457 L298 583 L209 583 L209 670 L83 670 L83 583 L34 583 L34 457 L83 457 L83 198 C83 86 152 0 238 0 C285 0 329 25 358 71 L252 139 C245 128 242 122 231 125 L231 125 Z " />
<glyph glyph-name="Tcaron" unicode="&#x164;" horiz-adv-x="436" d="M395 810 L28 810 L28 684 L149 684 L149 0 L275 0 L275 684 L395 684 L395 810 L395 810 Z M218 979 L114 1022 L64 907 L218 841 L375 909 L326 1024 L218 979 L218 979 Z " />
<glyph glyph-name="tcaron" unicode="&#x165;" horiz-adv-x="520" d="M63 612 L160 612 L160 70 L286 70 L286 612 L381 612 L381 738 L63 738 L63 612 L63 612 Z M482 811 L398 811 L398 732 L436 732 L436 732 C436 695 410 698 410 698 L410 668 C484 668 482 732 482 732 L482 811 L482 811 Z " />
<glyph glyph-name="Tbar" unicode="&#x166;" horiz-adv-x="401" d="M395 810 L28 810 L28 684 L149 684 L149 0 L275 0 L275 684 L395 684 L395 810 L395 810 Z M39 428 L385 428 L385 561 L39 561 L39 428 L39 428 Z " />
<glyph glyph-name="tbar" unicode="&#x167;" horiz-adv-x="397" d="M231 125 C221 127 209 154 209 198 L209 457 L298 457 L298 583 L209 583 L209 670 L83 670 L83 583 L34 583 L34 457 L83 457 L83 198 C83 86 152 0 238 0 C285 0 329 25 358 71 L252 139 C245 128 242 122 231 125 L231 125 Z M42 331 L308 331 L308 453 L42 453 L42 331 L42 331 Z " />
<glyph glyph-name="Utilde" unicode="&#x168;" horiz-adv-x="476" d="M307 198 C307 158 275 126 235 126 L226 126 C186 126 154 158 154 198 L154 810 L28 810 L28 198 C28 89 117 0 226 0 L235 0 C345 0 433 89 433 198 L433 810 L307 810 L307 198 L307 198 Z M169 944 C169 944 169 944 169 944 C180 944 194 934 211 924 C240 907 275 884 323 885 C374 885 423 910 477 966 L389 1054 C349 1015 329 1011 321 1011 C321 1011 321 1011 321 1011 C311 1011 296 1020 278 1030 C251 1048 216 1070 169 1070 C169 1070 169 1070 168 1070 C117 1070 69 1045 15 991 L104 902 C143 939 162 944 169 944 L169 944 Z " />
<glyph glyph-name="utilde" unicode="&#x169;" horiz-adv-x="442" d="M277 198 C277 160 253 126 226 126 C198 126 173 160 173 198 L173 583 L47 583 L47 198 C47 89 127 0 226 0 C244 0 262 2 277 8 L277 0 L403 0 L403 198 L403 583 L277 583 L277 198 Z M152 720 C152 720 152 720 152 720 C163 720 177 710 194 700 C223 683 258 660 306 661 C357 661 406 686 460 742 L372 830 C332 791 312 787 304 787 C304 787 304 787 304 787 C294 787 279 796 261 806 C234 824 199 846 152 846 C152 846 152 846 151 846 C100 846 52 821 -2 767 L87 678 C126 715 145 720 152 720 L152 720 Z " />
<glyph glyph-name="Umacron" unicode="&#x16a;" horiz-adv-x="476" d="M307 198 C307 158 275 126 235 126 L226 126 C186 126 154 158 154 198 L154 810 L28 810 L28 198 C28 89 117 0 226 0 L235 0 C345 0 433 89 433 198 L433 810 L307 810 L307 198 L307 198 Z M223 997 L119 1040 L69 925 L223 859 L380 927 L331 1042 L223 997 L223 997 Z " />
<glyph glyph-name="umacron" unicode="&#x16b;" horiz-adv-x="444" d="M275 267 C275 230 251 196 224 196 C197 196 173 230 173 267 L173 738 L47 738 L47 267 C47 158 126 69 224 69 C322 69 401 158 401 267 L401 738 L275 738 L275 267 L275 267 Z M230 898 L126 941 L76 826 L230 760 L387 828 L338 943 L230 898 L230 898 Z " />
<glyph glyph-name="Ubreve" unicode="&#x16c;" horiz-adv-x="476" d="M307 198 C307 158 275 126 235 126 L226 126 C186 126 154 158 154 198 L154 810 L28 810 L28 198 C28 89 117 0 226 0 L235 0 C345 0 433 89 433 198 L433 810 L307 810 L307 198 L307 198 Z M303 1038 C303 999 279 966 250 966 C222 966 198 999 198 1038 L72 1038 C72 928 152 840 250 840 C348 840 429 928 429 1038 L303 1038 L303 1038 Z " />
<glyph glyph-name="ubreve" unicode="&#x16d;" horiz-adv-x="442" d="M277 198 C277 160 253 126 226 126 C198 126 173 160 173 198 L173 583 L47 583 L47 198 C47 89 127 0 226 0 C244 0 262 2 277 8 L277 0 L403 0 L403 198 L403 583 L277 583 L277 198 Z M286 814 C286 775 262 742 233 742 C205 742 181 775 181 814 L55 814 C55 704 135 616 233 616 C331 616 412 704 412 814 L286 814 L286 814 Z " />
<glyph glyph-name="Uring" unicode="&#x16e;" horiz-adv-x="476" d="M307 198 C307 158 275 126 235 126 L226 126 C186 126 154 158 154 198 L154 810 L28 810 L28 198 C28 89 117 0 226 0 L235 0 C345 0 433 89 433 198 L433 810 L307 810 L307 198 L307 198 Z M351 951 C351 1008 306 1053 249 1053 C193 1053 147 1008 147 951 C147 894 193 848 249 848 C306 848 351 894 351 951 L351 951 Z M249 939 C243 939 239 944 239 951 C239 957 243 962 249 962 C255 962 260 957 260 951 C260 944 255 939 249 939 L249 939 Z " />
<glyph glyph-name="uring" unicode="&#x16f;" horiz-adv-x="421" d="M277 198 C277 160 253 126 226 126 C198 126 173 160 173 198 L173 583 L47 583 L47 198 C47 89 127 0 226 0 C244 0 262 2 277 8 L277 0 L403 0 L403 198 L403 583 L277 583 L277 198 Z M322 727 C322 784 277 829 220 829 C164 829 118 784 118 727 C118 670 164 624 220 624 C277 624 322 670 322 727 L322 727 Z M220 715 C214 715 210 720 210 727 C210 733 214 738 220 738 C226 738 231 733 231 727 C231 720 226 715 220 715 L220 715 Z " />
<glyph glyph-name="Uhungarumlaut" unicode="&#x170;" horiz-adv-x="476" d="M307 198 C307 158 275 126 235 126 L226 126 C186 126 154 158 154 198 L154 810 L28 810 L28 198 C28 89 117 0 226 0 L235 0 C345 0 433 89 433 198 L433 810 L307 810 L307 198 L307 198 Z M130 924 L184 924 L219 1038 L150 1038 L130 924 L130 924 Z M223 924 L278 924 L313 1038 L243 1038 L223 924 L223 924 Z " />
<glyph glyph-name="uhungarumlaut" unicode="&#x171;" horiz-adv-x="421" d="M277 198 C277 160 253 126 226 126 C198 126 173 160 173 198 L173 583 L47 583 L47 198 C47 89 127 0 226 0 C244 0 262 2 277 8 L277 0 L403 0 L403 198 L403 583 L277 583 L277 198 Z M103 700 L157 700 L192 814 L123 814 L103 700 L103 700 Z M196 700 L251 700 L286 814 L216 814 L196 700 L196 700 Z " />
<glyph glyph-name="Uogonek" unicode="&#x172;" horiz-adv-x="464" d="M326 198 C326 158 294 126 254 126 L245 126 C205 126 173 158 173 198 L173 810 L47 810 L47 198 C47 89 136 0 245 0 L254 0 C364 0 452 89 452 198 L452 810 L326 810 L326 198 L326 198 Z M198 52 C198 41 194 37 185 24 C173 10 153 -14 153 -52 C153 -120 215 -167 302 -167 L302 -41 C300 -41 296 -41 294 -41 C308 -20 324 8 324 52 L198 52 L198 52 Z " />
<glyph glyph-name="uogonek" unicode="&#x173;" horiz-adv-x="421" d="M275 267 C275 230 251 196 224 196 C197 196 173 230 173 267 L173 738 L47 738 L47 267 C47 158 126 69 224 69 C322 69 401 158 401 267 L401 738 L275 738 L275 267 L275 267 Z M171 95 C171 84 167 80 158 67 C146 53 126 29 126 -9 C126 -77 188 -124 275 -124 L275 2 C273 2 269 2 267 2 C281 23 297 51 297 95 L171 95 L171 95 Z " />
<glyph glyph-name="Ydieresis" unicode="&#x178;" horiz-adv-x="496" d="M160 810 L28 810 L185 310 L185 0 L311 0 L311 312 L462 810 L331 810 L247 533 L160 810 Z M253 881 L330 881 L330 959 L253 959 L253 881 L253 881 Z M130 881 L207 881 L207 959 L130 959 L130 881 L130 881 Z " />
<glyph glyph-name="Zacute" unicode="&#x179;" horiz-adv-x="492" d="M67 810 L67 684 L283 684 L28 0 L435 0 L435 126 L210 126 L466 811 L67 810 Z M237 924 L291 924 L326 1038 L257 1038 L237 924 L237 924 Z " />
<glyph glyph-name="zacute" unicode="&#x17a;" horiz-adv-x="524" d="M106 738 L106 612 L278 612 L69 70 L429 70 L429 195 L252 195 L461 738 L106 738 Z M253 803 L307 803 L342 917 L273 917 L253 803 L253 803 Z " />
<glyph glyph-name="Zdotaccent" unicode="&#x17b;" horiz-adv-x="492" d="M67 810 L67 684 L283 684 L28 0 L435 0 L435 126 L210 126 L466 811 L67 810 Z M270 861 C304 861 330 889 330 922 C330 955 304 982 270 982 C237 982 210 955 210 922 C210 889 237 861 270 861 L270 861 Z " />
<glyph glyph-name="zdotaccent" unicode="&#x17c;" horiz-adv-x="460" d="M66 738 L66 612 L238 612 L29 70 L389 70 L389 195 L212 195 L421 738 L66 738 Z M238 795 C272 795 298 823 298 856 C298 889 272 916 238 916 C205 916 178 889 178 856 C178 823 205 795 238 795 L238 795 Z " />
<glyph glyph-name="Zcaron" unicode="&#x17d;" horiz-adv-x="510" d="M67 810 L67 684 L283 684 L28 0 L435 0 L435 126 L210 126 L466 811 L67 810 Z M266 989 L162 1032 L112 917 L266 851 L423 919 L374 1034 L266 989 L266 989 Z " />
<glyph glyph-name="zcaron" unicode="&#x17e;" horiz-adv-x="487" d="M436 583 L87 583 L87 457 L244 457 L47 0 L402 0 L402 126 L239 126 L436 583 L436 583 Z M248 755 L144 798 L94 683 L248 617 L405 685 L356 800 L248 755 L248 755 Z " />
<glyph glyph-name="florin" unicode="&#x192;" horiz-adv-x="418" d="M265 730 C277 730 287 724 293 718 L377 811 C346 840 306 856 265 856 C167 856 88 767 88 656 L88 583 L44 583 L44 457 L88 457 L88 205 C88 158 62 133 55 132 C55 132 55 132 55 132 L55 6 C143 6 214 95 214 205 L214 457 L286 457 L286 583 L214 583 L214 656 C214 695 238 730 265 730 L265 730 Z " />
<glyph glyph-name="Scommaaccent" unicode="&#x218;" horiz-adv-x="479" d="M268 456 C197 516 154 560 154 625 C155 658 187 684 229 684 C269 684 303 654 303 617 L429 617 C429 724 339 810 229 810 C118 810 29 730 28 626 C27 499 115 420 186 359 C259 298 304 257 303 188 C301 170 300 126 229 126 C189 126 155 156 155 193 L29 193 C29 86 119 0 229 0 C282 0 330 16 365 46 C393 68 426 112 429 185 C431 317 341 394 268 456 L268 456 Z M250 31 L166 31 L166 -48 L204 -48 L204 -48 C204 -85 178 -81 178 -81 L178 -111 C252 -111 250 -48 250 -48 L250 31 L250 31 Z " />
<glyph glyph-name="scommaaccent" unicode="&#x219;" horiz-adv-x="398" d="M248 455 C194 501 161 532 161 578 C161 598 182 612 209 612 C235 612 256 594 256 572 L383 572 C383 664 305 738 209 738 C113 738 36 669 35 580 C34 472 108 408 168 359 C223 311 257 280 256 232 C256 219 256 195 209 195 C184 195 162 213 162 236 L36 236 C36 143 114 69 209 69 C311 69 379 134 383 228 C385 340 310 404 248 455 L248 455 Z M232 34 L148 34 L148 -45 L186 -45 L186 -45 C186 -82 160 -78 160 -78 L160 -108 C234 -108 232 -45 232 -45 L232 34 L232 34 Z " />
<glyph glyph-name="circumflex" unicode="&#x2c6;" horiz-adv-x="445" d="M306 629 L355 744 L198 812 L44 746 L94 631 L198 674 L306 629 Z " />
<glyph glyph-name="caron" unicode="&#x2c7;" horiz-adv-x="401" d="M198 755 L94 798 L44 683 L198 617 L355 685 L306 800 L198 755 L198 755 Z " />
<glyph glyph-name="breve" unicode="&#x2d8;" horiz-adv-x="428" d="M275 814 C275 775 251 742 222 742 C194 742 170 775 170 814 L44 814 C44 704 124 616 222 616 C320 616 401 704 401 814 L275 814 L275 814 Z " />
<glyph glyph-name="dotaccent" unicode="&#x2d9;" horiz-adv-x="199" d="M104 715 C138 715 164 743 164 776 C164 809 138 836 104 836 C71 836 44 809 44 776 C44 743 71 715 104 715 L104 715 Z " />
<glyph glyph-name="ring" unicode="&#x2da;" horiz-adv-x="277" d="M248 727 C248 784 203 829 146 829 C90 829 44 784 44 727 C44 670 90 624 146 624 C203 624 248 670 248 727 L248 727 Z M146 715 C140 715 136 720 136 727 C136 733 140 738 146 738 C152 738 157 733 157 727 C157 720 152 715 146 715 L146 715 Z " />
<glyph glyph-name="ogonek" unicode="&#x2db;" horiz-adv-x="240" d="M89 52 C89 41 85 37 76 24 C64 10 44 -14 44 -52 C44 -120 106 -167 193 -167 L193 -41 C191 -41 187 -41 185 -41 C199 -20 215 8 215 52 L89 52 L89 52 Z " />
<glyph glyph-name="tilde" unicode="&#x2dc;" horiz-adv-x="554" d="M198 720 C198 720 198 720 198 720 C209 720 223 710 240 700 C269 683 304 660 352 661 C403 661 452 686 506 742 L418 830 C378 791 358 787 350 787 C350 787 350 787 350 787 C340 787 325 796 307 806 C280 824 245 846 198 846 C198 846 198 846 197 846 C146 846 98 821 44 767 L133 678 C172 715 191 720 198 720 L198 720 Z " />
<glyph glyph-name="hungarumlaut" unicode="&#x2dd;" horiz-adv-x="278" d="M44 700 L98 700 L133 814 L64 814 L44 700 L44 700 Z M137 700 L192 700 L227 814 L157 814 L137 700 L137 700 Z " />
<glyph glyph-name="tonos" unicode="&#x384;" horiz-adv-x="200" d="M31 698 L84 698 L124 794 L55 794 L31 698 L31 698 Z " />
<glyph glyph-name="dieresistonos" unicode="&#x385;" horiz-adv-x="334" d="M167 732 L244 732 L244 810 L167 810 L167 732 L167 732 Z M44 732 L121 732 L121 810 L44 810 L44 732 L44 732 Z " />
<glyph glyph-name="Alphatonos" unicode="&#x386;" horiz-adv-x="488" d="M70 764 L124 764 L159 878 L90 878 L70 764 L70 764 Z " />
<glyph glyph-name="Epsilontonos" unicode="&#x388;" horiz-adv-x="389" d="M-75 759 L-21 759 L14 873 L-55 873 L-75 759 L-75 759 Z " />
<glyph glyph-name="Etatonos" unicode="&#x389;" horiz-adv-x="460" d="M-65 794 L-11 794 L24 908 L-45 908 L-65 794 L-65 794 Z M226 582 C208 582 190 580 173 574 L173 583 L47 583 L47 384 L47 56 L47 0 L173 0 L173 56 L173 384 C173 422 198 456 226 456 C253 456 277 422 277 384 L277 -96 L403 -96 L403 384 C403 493 324 582 226 582 L226 582 Z " />
<glyph glyph-name="Iotatonos" unicode="&#x38a;" horiz-adv-x="199" d="M-62 791 L-8 791 L27 905 L-42 905 L-62 791 L-62 791 Z " />
<glyph glyph-name="Omicrontonos" unicode="&#x38c;" horiz-adv-x="468" d="M-23 749 L31 749 L66 863 L-3 863 L-23 749 L-23 749 Z " />
<glyph glyph-name="Upsilontonos" unicode="&#x38e;" horiz-adv-x="496" d="M-63 786 L-9 786 L26 900 L-43 900 L-63 786 L-63 786 Z " />
<glyph glyph-name="Omegatonos" unicode="&#x38f;" horiz-adv-x="878" d="M648 127 C718 248 740 359 721 467 C692 618 557 742 416 742 C277 742 142 618 113 467 C94 359 116 248 186 127 L44 127 L44 1 L334 1 L334 128 C250 251 220 349 238 444 C254 535 338 616 418 616 C496 616 580 535 596 444 C614 349 584 251 499 128 L499 1 L790 1 L790 127 L648 127 L648 127 Z " />
<glyph glyph-name="iotadieresistonos" unicode="&#x390;" horiz-adv-x="430" d="M240 664 L317 664 L317 742 L240 742 L240 664 Z M5 666 L82 666 L82 744 L5 744 L5 666 Z M263 110 C261 108 256 107 253 107 C246 107 233 110 233 131 L233 644 L67 644 L67 518 L107 518 L107 131 C107 86 124 48 154 20 C180 -5 216 -19 253 -19 C291 -19 325 -5 352 20 C371 40 394 74 394 131 L268 131 C268 121 267 114 263 110 L263 110 Z M123 700 L177 700 L212 814 L143 814 L123 700 L123 700 Z " />
<glyph glyph-name="Alpha" unicode="&#x391;" horiz-adv-x="516" d="M208 812 L47 0 L175 0 L217 204 L324 204 L365 0 L493 0 L336 811 L208 812 Z M242 330 L271 476 L300 330 L242 330 L242 330 Z " />
<glyph glyph-name="Beta" unicode="&#x392;" horiz-adv-x="450" d="M355 484 C380 517 396 562 396 610 L396 631 C389 731 312 810 221 810 L47 810 L47 -1 L234 -1 C337 -1 421 85 421 191 L421 337 C421 396 396 449 355 484 L355 484 Z M221 684 C244 684 269 653 269 612 L269 596 L269 595 C264 563 242 540 222 540 L173 540 L173 684 L221 684 L221 684 Z M295 191 C295 155 268 125 234 125 L173 125 L173 403 L234 403 C268 403 295 374 295 337 L295 191 L295 191 Z " />
<glyph glyph-name="Gamma" unicode="&#x393;" horiz-adv-x="385" d="M336 806 L37 806 L37 -1 L164 -1 L164 680 L336 680 L336 806 L336 806 Z " />
<glyph glyph-name="&amp;#x394;" unicode="&#x394;" horiz-adv-x="536" d="M329 760 L229 760 L44 1 L515 1 L329 760 Z M354 127 L205 127 L280 432 L354 127 Z " />
<glyph glyph-name="&amp;#x2206;" unicode="&#x2206;" horiz-adv-x="536" d="M329 760 L229 760 L44 1 L515 1 L329 760 Z M354 127 L205 127 L280 432 L354 127 Z " />
<glyph glyph-name="Epsilon" unicode="&#x395;" horiz-adv-x="409" d="M47 0 L366 0 L366 126 L173 126 L173 307 L294 307 L294 433 L173 433 L173 685 L366 685 L366 811 L47 811 L47 0 L47 0 Z " />
<glyph glyph-name="Zeta" unicode="&#x396;" horiz-adv-x="499" d="M86 810 L86 684 L302 684 L47 0 L454 0 L454 126 L229 126 L485 811 L86 810 Z " />
<glyph glyph-name="Eta" unicode="&#x397;" horiz-adv-x="482" d="M313 433 L173 433 L173 811 L47 811 L47 0 L173 0 L173 307 L313 307 L313 0 L439 0 L439 811 L313 811 L313 433 L313 433 Z " />
<glyph glyph-name="Theta" unicode="&#x398;" horiz-adv-x="482" d="M254 810 L245 810 C136 810 47 721 47 612 L47 198 C47 89 136 0 245 0 L254 0 C364 0 452 89 452 198 L452 612 C452 721 364 810 254 810 L254 810 Z M326 198 C326 158 294 126 254 126 L245 126 C205 126 173 158 173 198 L173 612 C173 652 205 684 245 684 L254 684 C294 684 326 652 326 612 L326 198 L326 198 Z M86 348 L323 348 L323 474 L86 474 L86 348 L86 348 Z " />
<glyph glyph-name="Iota" unicode="&#x399;" horiz-adv-x="229" d="M47 0 L173 0 L173 811 L47 811 L47 0 L47 0 Z " />
<glyph glyph-name="Kappa" unicode="&#x39a;" horiz-adv-x="510" d="M329 811 L173 569 L173 811 L47 811 L47 373 L47 317 L47 0 L173 0 L173 336 L202 380 L338 0 L472 0 L288 514 L479 811 L329 811 L329 811 Z " />
<glyph glyph-name="Lambda" unicode="&#x39b;" horiz-adv-x="486" d="M258 430 L341 -1 L470 -1 L313 809 L204 809 L47 -1 L175 -1 L258 430 Z " />
<glyph glyph-name="Mu" unicode="&#x39c;" horiz-adv-x="570" d="M391 811 L281 519 L170 811 L47 811 L47 0 L173 0 L173 472 L246 215 L316 215 L391 481 L391 0 L517 0 L517 811 L391 811 L391 811 L391 811 Z " />
<glyph glyph-name="Nu" unicode="&#x39d;" horiz-adv-x="518" d="M181 812 L48 812 L47 812 L48 0 L174 0 L174 468 L350 0 L352 0 L478 0 L478 810 L352 810 L352 356 L181 812 Z " />
<glyph glyph-name="Xi" unicode="&#x39e;" horiz-adv-x="492" d="M89 341 L350 341 L350 467 L89 467 L89 341 L89 341 Z M43 732 L389 732 L389 858 L43 858 L43 732 L43 732 Z M43 -40 L389 -40 L389 86 L43 86 L43 -40 L43 -40 Z " />
<glyph glyph-name="Omicron" unicode="&#x39f;" horiz-adv-x="482" d="M254 810 L245 810 C136 810 47 721 47 612 L47 198 C47 89 136 0 245 0 L254 0 C364 0 452 89 452 198 L452 612 C452 721 364 810 254 810 L254 810 Z M326 198 C326 158 294 126 254 126 L245 126 C205 126 173 158 173 198 L173 612 C173 652 205 684 245 684 L254 684 C294 684 326 652 326 612 L326 198 L326 198 Z " />
<glyph glyph-name="Pi" unicode="&#x3a0;" horiz-adv-x="601" d="M232 -1 L232 583 L344 583 L344 -1 L470 -1 L470 583 L544 583 L544 709 L44 709 L44 583 L104 583 L104 -1 L232 -1 L232 -1 Z " />
<glyph glyph-name="Rho" unicode="&#x3a1;" horiz-adv-x="475" d="M246 811 L47 811 L47 810 L47 -1 L173 -1 L173 270 L246 270 C349 270 433 356 433 462 L433 619 C433 725 349 811 246 811 L246 811 Z M307 462 C307 425 280 396 246 396 L173 396 L173 685 L246 685 C280 685 307 655 307 619 L307 462 L307 462 Z " />
<glyph glyph-name="Sigma" unicode="&#x3a3;" horiz-adv-x="492" d="M464 -5 L464 121 L254 121 L378 282 L254 456 L464 456 L464 582 L44 582 L235 282 L44 -5 L464 -5 L464 -5 Z " />
<glyph glyph-name="Tau" unicode="&#x3a4;" horiz-adv-x="413" d="M414 810 L47 810 L47 684 L168 684 L168 0 L294 0 L294 684 L414 684 L414 810 L414 810 Z " />
<glyph glyph-name="Upsilon" unicode="&#x3a5;" horiz-adv-x="494" d="M179 810 L47 810 L204 310 L204 0 L330 0 L330 312 L481 810 L350 810 L266 533 L179 810 Z " />
<glyph glyph-name="Phi" unicode="&#x3a6;" horiz-adv-x="482" d="M254 810 L245 810 C136 810 47 721 47 612 L47 198 C47 89 136 0 245 0 L254 0 C364 0 452 89 452 198 L452 612 C452 721 364 810 254 810 L254 810 Z M326 198 C326 158 294 126 254 126 L245 126 C205 126 173 158 173 198 L173 612 C173 652 205 684 245 684 L254 684 C294 684 326 652 326 612 L326 198 L326 198 Z M186 -61 L312 -61 L312 894 L186 894 L186 -61 L186 -61 Z " />
<glyph glyph-name="Chi" unicode="&#x3a7;" horiz-adv-x="510" d="M350 810 L265 571 L181 810 L47 810 L199 383 L62 0 L196 0 L265 196 L336 0 L469 0 L332 383 L485 810 L350 810 L350 810 Z " />
<glyph glyph-name="Psi" unicode="&#x3a8;" horiz-adv-x="478" d="M364 809 L364 560 C364 526 344 496 320 490 L320 809 L194 809 L194 490 C170 496 151 526 151 560 L151 809 L25 809 L25 560 C25 454 100 367 194 362 L194 1 L320 1 L320 362 C415 367 490 454 490 560 L490 809 L364 809 L364 809 Z " />
<glyph glyph-name="&amp;#x3a9;" unicode="&#x3a9;" horiz-adv-x="858" d="M648 127 C718 248 740 359 721 467 C692 618 557 742 416 742 C277 742 142 618 113 467 C94 359 116 248 186 127 L44 127 L44 1 L334 1 L334 128 C250 251 220 349 238 444 C254 535 338 616 418 616 C496 616 580 535 596 444 C614 349 584 251 499 128 L499 1 L790 1 L790 127 L648 127 L648 127 Z " />
<glyph glyph-name="&amp;#x2126;" unicode="&#x2126;" horiz-adv-x="858" d="M648 127 C718 248 740 359 721 467 C692 618 557 742 416 742 C277 742 142 618 113 467 C94 359 116 248 186 127 L44 127 L44 1 L334 1 L334 128 C250 251 220 349 238 444 C254 535 338 616 418 616 C496 616 580 535 596 444 C614 349 584 251 499 128 L499 1 L790 1 L790 127 L648 127 L648 127 Z " />
<glyph glyph-name="Iotadieresis" unicode="&#x3aa;" horiz-adv-x="199" d="M105 956 L182 956 L182 1034 L105 1034 L105 956 L105 956 Z M-18 956 L59 956 L59 1034 L-18 1034 L-18 956 L-18 956 Z " />
<glyph glyph-name="Upsilondieresis" unicode="&#x3ab;" horiz-adv-x="500" d="M294 912 L371 912 L371 990 L294 990 L294 912 L294 912 Z M171 912 L248 912 L248 990 L171 990 L171 912 L171 912 Z M179 810 L47 810 L204 310 L204 0 L330 0 L330 312 L481 810 L350 810 L266 533 L179 810 Z " />
<glyph glyph-name="alphatonos" unicode="&#x3ac;" horiz-adv-x="730" d="M446 78 C480 16 526 1 559 1 C604 1 707 19 707 181 L581 181 C581 152 577 139 574 133 C572 130 571 128 564 127 C560 132 553 143 545 167 C541 180 536 194 533 209 C598 344 622 506 622 588 L496 588 C496 547 488 488 474 427 C468 444 461 461 452 478 C398 582 320 604 266 604 C196 604 136 562 94 486 C62 427 44 350 44 274 C44 224 52 151 90 89 C128 26 188 -8 259 -8 C335 -8 397 25 446 78 L446 78 Z M170 274 C170 378 217 478 266 478 C335 478 364 376 395 242 C396 236 397 230 400 224 C366 168 319 118 259 118 C174 118 170 248 170 274 L170 274 Z M310 700 L364 700 L399 814 L330 814 L310 700 L310 700 Z " />
<glyph glyph-name="epsilontonos" unicode="&#x3ad;" horiz-adv-x="448" d="M401 198 L275 198 C275 160 251 126 222 126 C194 126 170 160 170 198 L170 246 L170 263 L343 263 L343 389 L170 389 L170 416 L170 464 C170 503 194 536 222 536 C251 536 275 503 275 464 L401 464 C401 574 320 662 222 662 C124 662 44 574 44 464 L44 416 L44 246 L44 198 C44 89 124 0 222 0 C320 0 401 89 401 198 L401 198 Z M170 700 L224 700 L259 814 L190 814 L170 700 L170 700 Z " />
<glyph glyph-name="etatonos" unicode="&#x3ae;" horiz-adv-x="426" d="M226 582 C208 582 190 580 173 574 L173 583 L47 583 L47 384 L47 56 L47 0 L173 0 L173 56 L173 384 C173 422 198 456 226 456 C253 456 277 422 277 384 L277 -96 L403 -96 L403 384 C403 493 324 582 226 582 L226 582 Z M158 700 L212 700 L247 814 L178 814 L158 700 L158 700 Z " />
<glyph glyph-name="iotatonos" unicode="&#x3af;" horiz-adv-x="388" d="M240 110 C238 108 233 107 230 107 C223 107 210 110 210 131 L210 644 L44 644 L44 518 L84 518 L84 131 C84 86 101 48 131 20 C157 -5 193 -19 230 -19 C268 -19 302 -5 329 20 C348 40 371 74 371 131 L245 131 C245 121 244 114 240 110 L240 110 Z M139 700 L193 700 L228 814 L159 814 L139 700 L139 700 Z " />
<glyph glyph-name="upsilondieresistonos" unicode="&#x3b0;" horiz-adv-x="570" d="M360 640 L437 640 L437 718 L360 718 L360 640 L360 640 Z M125 642 L202 642 L202 720 L125 720 L125 642 L125 642 Z M248 700 L302 700 L337 814 L268 814 L248 700 L248 700 Z M266 -4 C344 -4 415 37 463 112 C547 242 556 457 481 624 L366 574 C422 446 418 275 356 180 C338 152 317 134 293 127 C283 152 268 212 252 344 C238 450 232 548 230 550 L226 631 L56 574 L97 455 L112 460 C116 414 122 354 131 294 C140 221 151 162 163 120 C173 83 196 -4 266 -4 L266 -4 Z " />
<glyph glyph-name="alpha" unicode="&#x3b1;" horiz-adv-x="730" d="M446 78 C480 16 526 1 559 1 C604 1 707 19 707 181 L581 181 C581 152 577 139 574 133 C572 130 571 128 564 127 C560 132 553 143 545 167 C541 180 536 194 533 209 C598 344 622 506 622 588 L496 588 C496 547 488 488 474 427 C468 444 461 461 452 478 C398 582 320 604 266 604 C196 604 136 562 94 486 C62 427 44 350 44 274 C44 224 52 151 90 89 C128 26 188 -8 259 -8 C335 -8 397 25 446 78 L446 78 Z M170 274 C170 378 217 478 266 478 C335 478 364 376 395 242 C396 236 397 230 400 224 C366 168 319 118 259 118 C174 118 170 248 170 274 L170 274 Z " />
<glyph glyph-name="beta" unicode="&#x3b2;" horiz-adv-x="498" d="M227 128 C217 128 209 130 200 130 L200 4 C211 4 233 1 254 1 C360 1 473 59 473 266 C473 379 442 462 380 511 C409 546 430 594 430 656 C430 773 350 860 239 860 C126 860 44 775 44 676 L44 -167 L170 -167 L170 676 C170 708 198 734 238 734 C288 734 304 694 304 658 C304 559 203 553 199 553 L220 428 C226 430 235 431 244 431 C305 431 347 383 347 266 C347 163 324 127 257 127 C247 127 238 127 227 128 L227 128 Z " />
<glyph glyph-name="gamma" unicode="&#x3b3;" horiz-adv-x="626" d="M619 582 L522 662 C472 601 431 530 398 449 C378 510 353 557 322 590 C286 630 240 650 190 650 C134 650 101 626 83 607 C40 559 43 496 44 484 L170 496 C169 502 172 517 176 522 C178 523 182 524 190 524 C199 524 214 522 229 504 C258 474 307 385 320 128 C320 125 320 121 320 118 C305 -46 318 -170 319 -176 L445 -174 C445 -168 454 -41 448 112 C463 263 508 446 619 582 L619 582 Z " />
<glyph glyph-name="delta" unicode="&#x3b4;" horiz-adv-x="458" d="M260 -18 C342 -18 409 28 436 100 C470 190 434 298 346 376 C245 463 235 511 234 522 C236 523 244 524 254 524 C308 524 323 502 324 500 C324 500 323 502 323 504 L438 554 C433 564 392 650 254 650 C187 650 134 619 115 568 C102 533 101 482 144 413 C101 356 72 302 56 252 C38 192 40 137 62 91 C95 22 167 -18 260 -18 L260 -18 Z M227 313 C238 302 250 292 263 281 C318 232 330 176 318 144 C310 120 289 108 260 108 C240 108 191 112 176 145 C162 173 170 230 227 313 L227 313 Z " />
<glyph glyph-name="epsilon" unicode="&#x3b5;" horiz-adv-x="448" d="M401 198 L275 198 C275 160 251 126 222 126 C194 126 170 160 170 198 L170 246 L170 263 L343 263 L343 389 L170 389 L170 416 L170 464 C170 503 194 536 222 536 C251 536 275 503 275 464 L401 464 C401 574 320 662 222 662 C124 662 44 574 44 464 L44 416 L44 246 L44 198 C44 89 124 0 222 0 C320 0 401 89 401 198 L401 198 Z " />
<glyph glyph-name="zeta" unicode="&#x3b6;" horiz-adv-x="601" d="M118 523 C110 493 106 461 102 426 C83 172 94 77 146 20 C194 -31 264 -31 344 -31 C354 -30 365 -30 376 -30 C419 -30 444 -40 457 -48 C445 -54 421 -61 380 -61 L380 -187 C438 -187 486 -176 523 -155 C565 -131 590 -91 590 -49 C590 20 523 96 376 96 C364 96 353 96 343 96 C295 95 250 95 239 106 C235 110 224 126 221 179 C217 230 220 304 228 416 C230 445 234 469 240 491 C280 494 325 508 376 530 C502 588 505 656 496 691 C481 743 426 774 358 767 C299 762 239 728 194 678 C188 670 182 662 176 654 C170 672 169 692 170 703 L170 703 L44 714 C43 701 36 584 118 523 L118 523 Z " />
<glyph glyph-name="eta" unicode="&#x3b7;" horiz-adv-x="461" d="M226 582 C208 582 190 580 173 574 L173 583 L47 583 L47 384 L47 56 L47 0 L173 0 L173 56 L173 384 C173 422 198 456 226 456 C253 456 277 422 277 384 L277 -96 L403 -96 L403 384 C403 493 324 582 226 582 L226 582 Z " />
<glyph glyph-name="theta" unicode="&#x3b8;" horiz-adv-x="458" d="M225 582 C127 582 46 493 46 384 L46 197 C46 89 127 -1 225 -1 C324 -1 403 89 403 197 L403 384 C403 493 324 582 225 582 L225 582 Z M277 197 C277 160 253 126 225 126 C198 126 172 160 172 197 L172 384 C172 422 198 456 225 456 C253 456 277 422 277 384 L277 197 L277 197 Z M55 247 L268 247 L268 373 L55 373 L55 247 L55 247 Z " />
<glyph glyph-name="iota" unicode="&#x3b9;" horiz-adv-x="388" d="M240 110 C238 108 233 107 230 107 C223 107 210 110 210 131 L210 644 L44 644 L44 518 L84 518 L84 131 C84 86 101 48 131 20 C157 -5 193 -19 230 -19 C268 -19 302 -5 329 20 C348 40 371 74 371 131 L245 131 C245 121 244 114 240 110 L240 110 Z " />
<glyph glyph-name="kappa" unicode="&#x3ba;" horiz-adv-x="445" d="M295 583 L173 420 L173 581 L47 581 L47 0 L173 0 L173 210 L210 259 L306 0 L440 0 L300 379 L454 583 L295 583 Z " />
<glyph glyph-name="lambda" unicode="&#x3bb;" horiz-adv-x="688" d="M539 228 C493 310 454 415 419 509 C391 586 367 652 342 696 C277 816 196 810 163 802 C95 784 44 709 44 628 L170 628 C170 655 187 677 194 679 C198 678 214 670 232 636 C252 599 276 534 301 466 C307 449 313 433 319 416 L133 1 L271 1 L385 254 C398 223 413 194 428 167 C496 47 569 -12 650 -12 L650 114 C619 114 580 155 539 228 L539 228 Z " />
<glyph glyph-name="nu" unicode="&#x3bd;" horiz-adv-x="420" d="M215 379 L175 583 L47 583 L160 0 L270 0 L383 583 L255 583 L215 379 L215 379 Z " />
<glyph glyph-name="xi" unicode="&#x3be;" horiz-adv-x="606" d="M376 96 C364 96 353 96 343 96 C295 95 250 95 239 106 C235 110 224 126 221 179 C220 199 220 222 220 251 L404 251 L404 377 L226 377 C226 389 227 402 228 416 C230 445 234 469 240 491 C280 494 325 508 376 530 C502 588 505 656 496 691 C481 743 426 774 358 767 C299 762 239 728 194 678 C188 670 182 662 176 654 C170 672 169 692 170 703 L170 703 L44 714 C43 701 36 584 118 523 C110 493 106 461 102 426 C83 172 94 77 146 20 C194 -31 264 -31 344 -31 C354 -30 365 -30 376 -30 C419 -30 444 -40 457 -48 C445 -54 421 -61 380 -61 L380 -187 C438 -187 486 -176 523 -155 C565 -131 590 -91 590 -49 C590 20 523 96 376 96 L376 96 Z " />
<glyph glyph-name="omicron" unicode="&#x3bf;" horiz-adv-x="458" d="M225 582 C127 582 46 493 46 384 L46 197 C46 89 127 -1 225 -1 C324 -1 403 89 403 197 L403 384 C403 493 324 582 225 582 L225 582 Z M277 197 C277 160 253 126 225 126 C198 126 172 160 172 197 L172 384 C172 422 198 456 225 456 C253 456 277 422 277 384 L277 197 L277 197 Z " />
<glyph glyph-name="pi" unicode="&#x3c0;" horiz-adv-x="700" d="M677 511 C606 550 544 568 484 569 C430 569 386 554 349 541 C283 518 235 503 127 562 L67 451 C109 428 148 412 186 403 L186 1 L312 1 L312 400 C341 404 366 414 390 421 C402 426 414 430 426 433 L426 1 L552 1 L552 430 C571 422 592 413 617 400 L677 511 L677 511 Z " />
<glyph glyph-name="rho" unicode="&#x3c1;" horiz-adv-x="461" d="M228 582 C208 582 190 578 172 572 L172 583 L46 583 L46 -170 L172 -170 L172 8 C190 1 208 -1 228 -1 C326 -1 406 88 406 197 L406 384 C406 493 326 582 228 582 L228 582 Z M280 197 C280 158 255 125 228 125 C200 125 176 158 176 197 L176 384 C176 422 200 456 228 456 C255 456 280 422 280 384 L280 197 L280 197 Z " />
<glyph glyph-name="sigma1" unicode="&#x3c2;" horiz-adv-x="586" d="M278 630 C154 617 49 488 44 342 C42 266 67 197 116 142 C172 80 253 41 360 24 C384 19 400 10 402 -5 C404 -13 402 -25 391 -32 C370 -47 317 -44 240 8 L168 -95 C247 -150 311 -166 360 -166 C409 -166 443 -149 461 -138 C514 -102 539 -40 526 22 C511 88 456 136 380 148 C241 170 167 239 170 338 C173 419 230 498 290 504 C338 509 372 500 394 479 C430 443 432 374 430 350 L430 350 L556 338 C557 353 568 484 484 568 C449 601 386 640 278 630 L278 630 Z " />
<glyph glyph-name="sigma" unicode="&#x3c3;" horiz-adv-x="496" d="M222 1 C320 1 401 90 401 199 L401 382 C401 407 396 432 389 454 L509 454 L509 580 L222 580 C124 580 44 491 44 382 L44 199 C44 90 124 1 222 1 L222 1 Z M170 382 C170 420 194 454 222 454 C251 454 275 420 275 382 L275 199 C275 161 251 127 222 127 C194 127 170 161 170 199 L170 382 L170 382 Z " />
<glyph glyph-name="tau" unicode="&#x3c4;" horiz-adv-x="250" d="M-28 612 L79 612 L79 70 L205 70 L205 738 L-28 738 L-28 612 L-28 612 Z " />
<glyph glyph-name="upsilon" unicode="&#x3c5;" horiz-adv-x="545" d="M254 -4 C332 -4 403 37 451 112 C535 242 544 457 469 624 L354 574 C410 446 406 275 344 180 C326 152 305 134 281 127 C271 152 256 212 240 344 C226 450 220 548 218 550 L214 631 L44 574 L85 455 L100 460 C104 414 110 354 119 294 C128 221 139 162 151 120 C161 83 184 -4 254 -4 L254 -4 Z " />
<glyph glyph-name="phi" unicode="&#x3c6;" horiz-adv-x="458" d="M225 582 C127 582 46 493 46 384 L46 197 C46 89 127 -1 225 -1 C324 -1 403 89 403 197 L403 384 C403 493 324 582 225 582 L225 582 Z M277 197 C277 160 253 126 225 126 C198 126 172 160 172 197 L172 384 C172 422 198 456 225 456 C253 456 277 422 277 384 L277 197 L277 197 Z M164 -35 L290 -35 L290 634 L164 634 L164 -35 L164 -35 Z " />
<glyph glyph-name="chi" unicode="&#x3c7;" horiz-adv-x="504" d="M473 583 L332 583 L269 455 L205 583 L65 583 L199 311 L47 0 L187 0 L270 168 L353 0 L493 0 L340 311 L473 583 L473 583 Z " />
<glyph glyph-name="psi" unicode="&#x3c8;" horiz-adv-x="473" d="M364 581 L364 332 C364 298 344 268 320 262 L320 581 L194 581 L194 262 C170 268 151 298 151 332 L151 581 L25 581 L25 332 C25 226 100 139 194 134 L194 -227 L320 -227 L320 134 C415 139 490 226 490 332 L490 581 L364 581 L364 581 Z " />
<glyph glyph-name="omega" unicode="&#x3c9;" horiz-adv-x="784" d="M412 68 C414 71 415 72 416 74 C425 62 433 52 442 42 C470 12 505 -4 544 -4 C634 -4 712 52 749 144 C779 215 784 300 764 386 C743 479 695 564 625 634 L536 545 C649 432 670 283 632 193 C619 161 593 122 544 122 C541 122 539 122 533 130 C510 152 494 206 485 270 C492 349 487 444 470 556 L344 548 C344 545 341 454 349 348 C350 319 354 293 358 268 C350 215 337 175 317 150 C300 132 280 122 250 122 C224 122 204 138 190 168 C151 247 166 397 269 533 L168 608 C107 529 66 438 50 346 C36 258 46 175 77 112 C113 38 176 -4 250 -4 C316 -4 372 22 412 68 L412 68 Z " />
<glyph glyph-name="iotadieresis" unicode="&#x3ca;" horiz-adv-x="388" d="M240 110 C238 108 233 107 230 107 C223 107 210 110 210 131 L210 644 L44 644 L44 518 L84 518 L84 131 C84 86 101 48 131 20 C157 -5 193 -19 230 -19 C268 -19 302 -5 329 20 C348 40 371 74 371 131 L245 131 C245 121 244 114 240 110 L240 110 Z M139 732 L216 732 L216 810 L139 810 L139 732 L139 732 Z M16 732 L93 732 L93 810 L16 810 L16 732 L16 732 Z " />
<glyph glyph-name="upsilondieresis" unicode="&#x3cb;" horiz-adv-x="545" d="M254 -4 C332 -4 403 37 451 112 C535 242 544 457 469 624 L354 574 C410 446 406 275 344 180 C326 152 305 134 281 127 C271 152 256 212 240 344 C226 450 220 548 218 550 L214 631 L44 574 L85 455 L100 460 C104 414 110 354 119 294 C128 221 139 162 151 120 C161 83 184 -4 254 -4 L254 -4 Z M277 732 L354 732 L354 810 L277 810 L277 732 L277 732 Z M154 732 L231 732 L231 810 L154 810 L154 732 L154 732 Z " />
<glyph glyph-name="omicrontonos" unicode="&#x3cc;" horiz-adv-x="421" d="M156 700 L210 700 L245 814 L176 814 L156 700 L156 700 Z " />
<glyph glyph-name="upsilontonos" unicode="&#x3cd;" horiz-adv-x="563" d="M254 -4 C332 -4 403 37 451 112 C535 242 544 457 469 624 L354 574 C410 446 406 275 344 180 C326 152 305 134 281 127 C271 152 256 212 240 344 C226 450 220 548 218 550 L214 631 L44 574 L85 455 L100 460 C104 414 110 354 119 294 C128 221 139 162 151 120 C161 83 184 -4 254 -4 L254 -4 Z M237 670 L291 670 L326 784 L257 784 L237 670 L237 670 Z " />
<glyph glyph-name="omegatonos" unicode="&#x3ce;" horiz-adv-x="827" d="M354 764 L359 632 L428 632 L434 764 L354 764 Z M412 68 C414 71 415 72 416 74 C425 62 433 52 442 42 C470 12 505 -4 544 -4 C634 -4 712 52 749 144 C779 215 784 300 764 386 C743 479 695 564 625 634 L536 545 C649 432 670 283 632 193 C619 161 593 122 544 122 C541 122 539 122 533 130 C510 152 494 206 485 270 C492 349 487 444 470 556 L344 548 C344 545 341 454 349 348 C350 319 354 293 358 268 C350 215 337 175 317 150 C300 132 280 122 250 122 C224 122 204 138 190 168 C151 247 166 397 269 533 L168 608 C107 529 66 438 50 346 C36 258 46 175 77 112 C113 38 176 -4 250 -4 C316 -4 372 22 412 68 L412 68 Z " />
<glyph glyph-name="afii10023" unicode="&#x401;" horiz-adv-x="389" d="M225 924 L302 924 L302 1002 L225 1002 L225 924 L225 924 Z M102 924 L179 924 L179 1002 L102 1002 L102 924 L102 924 Z " />
<glyph glyph-name="afii10051" unicode="&#x402;" horiz-adv-x="461" d="M251 601 C233 601 215 598 199 592 L199 626 L306 626 L306 754 L199 754 L199 827 L73 827 L73 754 L37 754 L37 626 L73 626 L73 403 L73 58 L73 1 L199 1 L199 58 L199 403 C199 442 223 475 251 475 C278 475 304 442 304 403 L304 197 C304 158 275 126 240 126 L240 -1 C344 -1 430 88 430 197 L430 403 C430 512 349 601 251 601 L251 601 Z " />
<glyph glyph-name="afii10052" unicode="&#x403;" horiz-adv-x="382" d="M336 806 L37 806 L37 -1 L164 -1 L164 680 L336 680 L336 806 L336 806 Z M152 856 L206 856 L241 970 L172 970 L152 856 L152 856 Z M152 856 L206 856 L241 970 L172 970 L152 856 L152 856 Z " />
<glyph glyph-name="afii10053" unicode="&#x404;" horiz-adv-x="448" d="M154 808 L37 808 L37 680 L154 680 C181 680 205 647 205 610 L205 539 C205 502 181 468 154 468 L73 468 L73 467 L73 341 L73 341 L154 341 C181 341 205 307 205 269 L205 199 C205 161 181 127 154 127 L37 127 L37 1 L154 1 C252 1 331 90 331 199 L331 269 C331 320 313 368 283 404 C313 439 331 487 331 539 L331 610 C331 718 252 808 154 808 L154 808 Z " />
<glyph glyph-name="afii10054" unicode="&#x405;" horiz-adv-x="482" d="M287 456 C216 516 173 560 173 625 C174 658 206 684 248 684 C288 684 322 654 322 617 L448 617 C448 724 358 810 248 810 C137 810 48 730 47 626 C46 499 134 420 205 359 C278 298 323 257 322 188 C320 170 319 126 248 126 C208 126 174 156 174 193 L48 193 C48 86 138 0 248 0 C301 0 349 16 384 46 C412 68 445 112 448 185 C450 317 360 394 287 456 L287 456 Z " />
<glyph glyph-name="afii10055" unicode="&#x406;" horiz-adv-x="229" d="M47 0 L173 0 L173 811 L47 811 L47 0 L47 0 Z " />
<glyph glyph-name="Yi" unicode="&#x407;" horiz-adv-x="229" d="M47 0 L173 0 L173 811 L47 811 L47 0 L47 0 Z M149 845 L226 845 L226 923 L149 923 L149 845 L149 845 Z M26 845 L103 845 L103 923 L26 923 L26 845 L26 845 Z " />
<glyph glyph-name="afii10057" unicode="&#x408;" horiz-adv-x="480" d="M318 203 C318 161 286 125 245 125 C205 125 173 161 173 203 L173 373 L47 373 L47 203 C47 91 136 -1 245 -1 C355 -1 444 91 444 203 L444 810 L318 810 L318 203 L318 203 Z " />
<glyph glyph-name="afii10058" unicode="&#x409;" horiz-adv-x="748" d="M556 596 L503 596 L503 808 L401 808 L377 808 L198 808 L198 150 C198 130 186 126 179 126 C176 126 172 126 169 130 C166 133 164 140 164 150 L37 150 C37 94 61 59 80 40 C107 14 142 0 179 0 C216 0 252 14 278 40 C308 67 325 106 325 150 L325 682 L377 682 L377 2 L440 2 L503 2 L556 2 C654 2 734 91 734 200 L734 398 C734 508 654 596 556 596 L556 596 Z M608 200 C608 162 583 128 556 128 L503 128 L503 470 L556 470 C583 470 608 437 608 398 L608 200 L608 200 Z " />
<glyph glyph-name="afii10059" unicode="&#x40a;" horiz-adv-x="737" d="M498 596 L466 596 L466 809 L340 809 L340 596 L325 596 L325 808 L198 808 L198 150 C198 130 186 126 179 126 C176 126 172 126 169 130 C166 133 164 140 164 150 L37 150 C37 94 61 59 80 40 C107 14 142 0 179 0 C216 0 252 14 278 40 C308 67 325 106 325 150 L325 470 L340 470 L340 2 L402 2 L466 2 L517 2 C616 2 696 91 696 200 L696 398 C696 508 607 596 498 596 L498 596 Z M570 200 C570 162 546 128 517 128 L466 128 L466 470 L498 470 C538 470 570 438 570 398 L570 200 L570 200 Z " />
<glyph glyph-name="afii10060" unicode="&#x40b;" horiz-adv-x="502" d="M251 444 C233 444 215 440 199 434 L199 512 L306 512 L306 638 L37 638 L37 512 L73 512 L73 246 L73 61 L73 1 L199 1 L199 61 L199 246 C199 283 223 317 251 317 C278 317 304 283 304 246 L304 2 L430 2 L430 246 C430 355 349 444 251 444 L251 444 Z " />
<glyph glyph-name="afii10061" unicode="&#x40c;" horiz-adv-x="488" d="M190 924 L244 924 L279 1038 L210 1038 L190 924 L190 924 Z " />
<glyph glyph-name="afii10062" unicode="&#x40e;" horiz-adv-x="494" d="M179 810 L47 810 L204 310 L204 0 L330 0 L330 312 L481 810 L350 810 L266 533 L179 810 Z M317 1034 C317 995 293 962 264 962 C236 962 212 995 212 1034 L86 1034 C86 924 166 836 264 836 C362 836 443 924 443 1034 L317 1034 L317 1034 Z " />
<glyph glyph-name="afii10145" unicode="&#x40f;" horiz-adv-x="577" d="M388 270 L164 270 L164 805 L37 805 L37 144 L212 144 L212 1 L338 1 L338 144 L514 144 L514 811 L388 811 L388 270 L388 270 Z " />
<glyph glyph-name="afii10017" unicode="&#x410;" horiz-adv-x="516" d="M208 812 L47 0 L175 0 L217 204 L324 204 L365 0 L493 0 L336 811 L208 812 Z M242 330 L271 476 L300 330 L242 330 L242 330 Z " />
<glyph glyph-name="afii10018" unicode="&#x411;" horiz-adv-x="467" d="M209 404 L164 404 L164 539 L331 539 L331 665 L37 665 L37 -1 L101 -1 L164 -1 L216 -1 C314 -1 395 88 395 197 L395 206 C395 316 311 404 209 404 L209 404 Z M269 197 C269 158 244 125 216 125 L164 125 L164 278 L209 278 C241 278 269 246 269 206 L269 197 L269 197 Z " />
<glyph glyph-name="afii10019" unicode="&#x412;" horiz-adv-x="450" d="M355 484 C380 517 396 562 396 610 L396 631 C389 731 312 810 221 810 L47 810 L47 -1 L234 -1 C337 -1 421 85 421 191 L421 337 C421 396 396 449 355 484 L355 484 Z M221 684 C244 684 269 653 269 612 L269 596 L269 595 C264 563 242 540 222 540 L173 540 L173 684 L221 684 L221 684 Z M295 191 C295 155 268 125 234 125 L173 125 L173 403 L234 403 C268 403 295 374 295 337 L295 191 L295 191 Z " />
<glyph glyph-name="afii10020" unicode="&#x413;" horiz-adv-x="486" d="M408 806 L37 806 L37 -1 L164 -1 L164 680 L408 680 L408 806 L408 806 Z " />
<glyph glyph-name="afii10021" unicode="&#x414;" horiz-adv-x="799" d="M700 810 L246 810 L246 746 C246 661 236 520 209 403 C181 287 140 215 101 215 L37 215 L37 2 L164 2 L164 89 L625 89 L625 2 L751 2 L751 215 L700 215 L700 810 L700 810 Z M332 374 C356 476 367 592 371 683 L574 683 L574 215 L276 215 C298 257 317 311 332 374 L332 374 Z " />
<glyph glyph-name="afii10022" unicode="&#x415;" horiz-adv-x="409" d="M47 0 L366 0 L366 126 L173 126 L173 307 L294 307 L294 433 L173 433 L173 685 L366 685 L366 811 L47 811 L47 0 L47 0 Z " />
<glyph glyph-name="afii10024" unicode="&#x416;" horiz-adv-x="794" d="M772 809 L622 809 L467 571 L467 809 L466 809 L341 809 L340 809 L340 571 L185 809 L35 809 L226 514 L42 0 L175 0 L312 380 L340 338 L340 317 L340 0 L341 0 L466 0 L467 0 L467 317 L467 338 L494 380 L631 0 L764 0 L581 514 L772 809 L772 809 Z " />
<glyph glyph-name="afii10025" unicode="&#x417;" horiz-adv-x="461" d="M215 808 C116 808 37 718 37 610 L37 539 C37 487 55 439 85 404 C55 368 37 320 37 269 L37 199 C37 90 116 1 215 1 L331 1 L331 127 L215 127 C187 127 163 161 163 199 L163 269 C163 307 187 341 215 341 L295 341 L295 341 L295 467 L295 468 L215 468 C187 468 163 502 163 539 L163 610 C163 647 187 680 215 680 L331 680 L331 808 L215 808 L215 808 Z " />
<glyph glyph-name="afii10026" unicode="&#x418;" horiz-adv-x="518" d="M52 356 L52 810 L-74 810 L-74 0 L52 0 L54 0 L230 468 L230 0 L356 0 L357 812 L356 812 L223 812 L52 356 Z " />
<glyph glyph-name="afii10027" unicode="&#x419;" horiz-adv-x="514" d="M298 574 L431 574 L432 574 L431 573 L431 0 L305 0 L305 277 L187 0 L186 0 L60 0 L60 574 L186 574 L186 313 L298 574 Z M327 821 C327 782 303 749 274 749 C246 749 222 782 222 821 L96 821 C96 711 176 623 274 623 C372 623 453 711 453 821 L327 821 L327 821 Z " />
<glyph glyph-name="afii10028" unicode="&#x41a;" horiz-adv-x="510" d="M329 811 L173 569 L173 811 L47 811 L47 373 L47 317 L47 0 L173 0 L173 336 L202 380 L338 0 L472 0 L288 514 L479 811 L329 811 L329 811 Z " />
<glyph glyph-name="afii10029" unicode="&#x41b;" horiz-adv-x="631" d="M212 666 L150 666 L150 222 C150 164 120 127 101 127 L37 127 L37 1 L101 1 C151 1 198 28 232 73 C260 114 276 167 276 222 L276 540 L457 540 L457 0 L583 0 L583 666 L276 666 L212 666 L212 666 Z " />
<glyph glyph-name="afii10030" unicode="&#x41c;" horiz-adv-x="570" d="M391 811 L281 519 L170 811 L47 811 L47 0 L173 0 L173 472 L246 215 L316 215 L391 481 L391 0 L517 0 L517 811 L391 811 L391 811 L391 811 Z " />
<glyph glyph-name="afii10031" unicode="&#x41d;" horiz-adv-x="482" d="M313 433 L173 433 L173 811 L47 811 L47 0 L173 0 L173 307 L313 307 L313 0 L439 0 L439 811 L313 811 L313 433 L313 433 Z " />
<glyph glyph-name="afii10032" unicode="&#x41e;" horiz-adv-x="482" d="M254 810 L245 810 C136 810 47 721 47 612 L47 198 C47 89 136 0 245 0 L254 0 C364 0 452 89 452 198 L452 612 C452 721 364 810 254 810 L254 810 Z M326 198 C326 158 294 126 254 126 L245 126 C205 126 173 158 173 198 L173 612 C173 652 205 684 245 684 L254 684 C294 684 326 652 326 612 L326 198 L326 198 Z " />
<glyph glyph-name="afii10033" unicode="&#x41f;" horiz-adv-x="532" d="M184 1 L184 1 L184 680 L432 680 L432 1 L558 1 L558 806 L58 806 L58 1 L184 1 L184 1 Z " />
<glyph glyph-name="afii10034" unicode="&#x420;" horiz-adv-x="475" d="M246 811 L47 811 L47 810 L47 -1 L173 -1 L173 270 L246 270 C349 270 433 356 433 462 L433 619 C433 725 349 811 246 811 L246 811 Z M307 462 C307 425 280 396 246 396 L173 396 L173 685 L246 685 C280 685 307 655 307 619 L307 462 L307 462 Z " />
<glyph glyph-name="afii10035" unicode="&#x421;" horiz-adv-x="475" d="M245 683 L254 683 C274 683 292 676 305 662 C313 654 320 643 323 631 L444 666 C436 698 418 728 394 752 C355 790 306 810 254 810 L245 810 C136 810 47 721 47 612 L47 198 C47 89 136 0 245 0 L254 0 C337 0 412 53 440 131 L322 174 C312 145 284 127 254 127 L245 127 C205 127 173 158 173 198 L173 612 C173 652 205 683 245 683 L245 683 Z " />
<glyph glyph-name="afii10036" unicode="&#x422;" horiz-adv-x="413" d="M414 810 L47 810 L47 684 L168 684 L168 0 L294 0 L294 684 L414 684 L414 810 L414 810 Z " />
<glyph glyph-name="afii10037" unicode="&#x423;" horiz-adv-x="452" d="M277 542 L277 197 C277 158 253 125 226 125 C198 125 173 158 173 197 L173 582 L47 582 L47 197 C47 88 127 -1 226 -1 C243 -1 259 2 275 7 C268 -22 247 -43 226 -43 C214 -43 204 -37 198 -31 L114 -126 C145 -154 185 -169 226 -169 C324 -169 403 -80 403 29 L403 197 L403 542 L403 583 L277 583 L277 542 L277 542 Z " />
<glyph glyph-name="afii10038" unicode="&#x424;" horiz-adv-x="468" d="M254 810 L245 810 C136 810 47 721 47 612 L47 198 C47 89 136 0 245 0 L254 0 C364 0 452 89 452 198 L452 612 C452 721 364 810 254 810 L254 810 Z M326 198 C326 158 294 126 254 126 L245 126 C205 126 173 158 173 198 L173 612 C173 652 205 684 245 684 L254 684 C294 684 326 652 326 612 L326 198 L326 198 Z M186 -61 L312 -61 L312 894 L186 894 L186 -61 L186 -61 Z " />
<glyph glyph-name="afii10039" unicode="&#x425;" horiz-adv-x="510" d="M350 810 L265 571 L181 810 L47 810 L199 383 L62 0 L196 0 L265 196 L336 0 L469 0 L332 383 L485 810 L350 810 L350 810 Z " />
<glyph glyph-name="afii10040" unicode="&#x426;" horiz-adv-x="665" d="M502 806 L376 806 L376 126 L164 126 L164 806 L37 806 L37 0 L382 0 L492 0 L492 -82 L618 -82 L618 126 L502 126 L502 806 L502 806 Z " />
<glyph glyph-name="afii10041" unicode="&#x427;" horiz-adv-x="505" d="M353 750 L353 408 C353 368 322 336 282 336 L235 336 C196 336 164 368 164 408 L164 808 L37 808 L37 408 C37 299 126 210 235 210 L282 210 C307 210 331 215 353 224 L353 0 L480 0 L480 408 L480 750 L480 806 L353 806 L353 750 L353 750 Z " />
<glyph glyph-name="afii10042" unicode="&#x428;" horiz-adv-x="637" d="M473 126 L382 126 L382 809 L256 809 L256 126 L164 126 L164 806 L37 806 L37 0 L599 0 L599 806 L473 806 L473 126 L473 126 Z " />
<glyph glyph-name="afii10043" unicode="&#x429;" horiz-adv-x="760" d="M599 806 L473 806 L473 126 L382 126 L382 809 L256 809 L256 126 L164 126 L164 806 L37 806 L37 0 L500 0 L584 0 L584 -82 L710 -82 L710 126 L599 126 L599 806 L599 806 Z " />
<glyph glyph-name="afii10044" unicode="&#x42a;" horiz-adv-x="545" d="M311 502 L266 502 L266 808 L37 808 L37 682 L140 682 L140 -1 L204 -1 L266 -1 L319 -1 C418 -1 498 88 498 197 L498 304 C498 413 414 502 311 502 L311 502 Z M372 197 C372 158 347 125 319 125 L266 125 L266 376 L311 376 C344 376 372 343 372 304 L372 197 L372 197 Z " />
<glyph glyph-name="afii10045" unicode="&#x42b;" horiz-adv-x="570" d="M215 502 L170 502 L170 809 L44 809 L44 -1 L223 -1 C322 -1 402 88 402 197 L402 304 C402 413 318 502 215 502 L215 502 Z M276 197 C276 158 251 125 223 125 L170 125 L170 376 L215 376 C248 376 276 343 276 304 L276 197 Z M439 0 L565 0 L565 811 L439 811 L439 0 L439 0 Z " />
<glyph glyph-name="afii10046" unicode="&#x42c;" horiz-adv-x="452" d="M215 502 L170 502 L170 809 L44 809 L44 -1 L223 -1 C322 -1 402 88 402 197 L402 304 C402 413 318 502 215 502 L215 502 Z M276 197 C276 158 251 125 223 125 L170 125 L170 376 L215 376 C248 376 276 343 276 304 L276 197 Z " />
<glyph glyph-name="afii10047" unicode="&#x42d;" horiz-adv-x="527" d="M344 564 L344 500 L344 461 L92 461 L92 335 L344 335 L344 290 L344 242 C344 179 304 126 254 126 C205 126 163 179 163 242 L37 242 C37 108 134 0 254 0 C373 0 472 108 472 242 L472 290 L472 500 L472 564 C472 698 373 808 254 808 C134 808 37 698 37 564 L163 564 C163 628 205 680 254 680 C304 680 344 628 344 564 L344 564 Z " />
<glyph glyph-name="afii10048" unicode="&#x42e;" horiz-adv-x="626" d="M392 809 C294 809 214 720 214 611 L214 464 L164 464 L164 809 L37 809 L37 0 L164 0 L164 338 L214 338 L214 199 C214 90 294 1 392 1 C491 1 571 90 571 199 L571 611 C571 720 491 809 392 809 L392 809 Z M445 199 C445 161 420 127 392 127 C365 127 340 161 340 199 L340 611 C340 648 365 682 392 682 C420 682 445 648 445 611 L445 199 L445 199 Z " />
<glyph glyph-name="afii10049" unicode="&#x42f;" horiz-adv-x="478" d="M-23 462 C-23 412 -5 366 26 332 C-6 296 -26 250 -26 198 L-26 0 L100 0 L100 198 C100 238 133 270 172 270 L237 270 L237 0 L363 0 L363 270 L363 397 L363 810 L164 810 C61 810 -23 724 -23 618 L-23 462 Z M237 684 L237 397 L164 397 C130 397 103 426 103 462 L103 618 C103 654 130 684 164 684 L237 684 Z " />
<glyph glyph-name="afii10065" unicode="&#x430;" horiz-adv-x="463" d="M252 583 L246 583 L246 583 C162 580 94 514 94 432 L220 432 C220 445 234 456 249 457 C265 456 277 442 277 426 L277 412 C260 418 241 421 223 421 C126 421 46 336 46 232 L46 191 C46 86 126 1 223 1 C241 1 259 5 277 11 L277 0 L403 0 L403 426 C403 511 336 580 252 583 L252 583 Z M223 122 C193 122 168 154 168 191 L168 232 C168 269 193 301 223 301 C249 301 273 274 277 240 L277 181 C273 148 249 122 223 122 L223 122 Z " />
<glyph glyph-name="afii10066" unicode="&#x431;" horiz-adv-x="437" d="M234 475 C266 475 294 442 294 403 L420 403 C420 512 336 601 234 601 C131 601 47 512 47 403 L47 209 L47 206 L47 198 C47 89 131 0 234 0 C336 0 420 89 420 198 L420 198 C420 202 420 204 420 206 L420 209 C420 318 336 407 234 407 C212 407 192 403 173 397 L173 403 C173 442 200 475 234 475 L234 475 Z M234 281 C266 281 294 248 294 209 L294 206 C294 168 266 134 234 134 C200 134 173 168 173 206 L173 209 C173 248 200 281 234 281 L234 281 Z " />
<glyph glyph-name="afii10067" unicode="&#x432;" horiz-adv-x="391" d="M352 433 C352 512 283 576 199 576 L48 576 L47 0 L209 0 C299 0 372 65 372 144 L372 249 C372 288 354 323 324 349 C341 373 352 402 352 433 L352 433 Z M173 468 L199 468 C211 468 226 452 226 433 C226 409 206 392 199 392 L173 392 L173 468 L173 468 Z M246 144 C246 125 229 108 209 108 L173 108 L173 283 L209 283 C229 283 246 267 246 249 L246 144 L246 144 Z " />
<glyph glyph-name="afii10068" unicode="&#x433;" horiz-adv-x="395" d="M336 578 L37 578 L37 0 L164 0 L164 452 L336 452 L336 578 Z " />
<glyph glyph-name="afii10069" unicode="&#x434;" horiz-adv-x="697" d="M611 666 L211 666 L211 604 C211 550 205 432 181 328 C168 275 152 232 136 204 C128 192 114 173 101 173 L37 173 L37 2 L164 2 L164 47 L527 47 L527 2 L653 2 L653 173 L611 173 L611 666 L611 666 Z M304 299 C323 383 332 474 336 540 L484 540 L484 173 L262 173 C278 208 293 250 304 299 L304 299 Z " />
<glyph glyph-name="afii10070" unicode="&#x435;" horiz-adv-x="463" d="M226 582 C127 582 47 493 47 384 L47 198 C47 89 127 0 226 0 C324 0 403 89 403 198 L277 198 C277 160 253 126 226 126 C198 126 173 160 173 198 L173 241 L403 241 L403 384 C403 493 324 582 226 582 L226 582 Z M277 367 L173 367 L173 384 C173 422 198 456 226 456 C253 456 277 422 277 384 L277 367 L277 367 Z " />
<glyph glyph-name="afii10072" unicode="&#x436;" horiz-adv-x="713" d="M724 583 L565 583 L443 420 L443 581 L442 581 L317 581 L316 581 L316 420 L193 583 L35 583 L188 379 L48 0 L182 0 L278 259 L316 210 L316 0 L317 0 L442 0 L443 0 L443 210 L480 259 L576 0 L710 0 L570 379 L724 583 L724 583 Z " />
<glyph glyph-name="afii10073" unicode="&#x437;" horiz-adv-x="433" d="M166 668 L37 668 L37 542 L166 542 C202 542 230 510 230 470 L230 470 C230 424 206 398 199 398 L104 398 L104 397 L104 272 L104 271 L199 271 C206 271 230 246 230 199 L230 199 C230 160 202 127 166 127 L37 127 L37 1 L166 1 C271 1 356 90 356 199 L356 199 C356 252 341 300 316 335 C341 370 356 418 356 470 L356 470 C356 580 271 668 166 668 L166 668 Z " />
<glyph glyph-name="afii10074" unicode="&#x438;" horiz-adv-x="461" d="M104 313 L104 574 L-22 574 L-22 0 L104 0 L105 0 L223 277 L223 0 L349 0 L349 573 L350 574 L349 574 L216 574 L104 313 Z " />
<glyph glyph-name="afii10075" unicode="&#x439;" horiz-adv-x="437" d="M285 814 C285 775 261 742 232 742 C204 742 180 775 180 814 L54 814 C54 704 134 616 232 616 C330 616 411 704 411 814 L285 814 L285 814 Z " />
<glyph glyph-name="afii10076" unicode="&#x43a;" horiz-adv-x="496" d="M295 583 L173 420 L173 581 L47 581 L47 0 L173 0 L173 210 L210 259 L306 0 L440 0 L300 379 L454 583 L295 583 Z " />
<glyph glyph-name="afii10077" unicode="&#x43b;" horiz-adv-x="640" d="M212 696 L150 696 L150 221 C150 163 120 126 101 126 L37 126 L37 0 L101 0 C151 0 198 26 232 72 C260 113 276 166 276 221 L276 570 L457 570 L457 2 L583 2 L583 696 L276 696 L212 696 L212 696 Z " />
<glyph glyph-name="afii10078" unicode="&#x43c;" horiz-adv-x="482" d="M329 574 L252 372 L175 574 L173 574 L47 574 L47 0 L173 0 L173 229 L202 153 L302 153 L334 236 L334 0 L460 0 L460 574 L329 574 L329 574 Z " />
<glyph glyph-name="afii10079" unicode="&#x43d;" horiz-adv-x="406" d="M260 316 L173 316 L173 574 L47 574 L47 0 L173 0 L173 208 L260 208 L260 0 L386 0 L386 574 L260 574 L260 316 L260 316 Z " />
<glyph glyph-name="afii10080" unicode="&#x43e;" horiz-adv-x="458" d="M225 582 C127 582 46 493 46 384 L46 197 C46 89 127 -1 225 -1 C324 -1 403 89 403 197 L403 384 C403 493 324 582 225 582 L225 582 Z M277 197 C277 160 253 126 225 126 C198 126 172 160 172 197 L172 384 C172 422 198 456 225 456 C253 456 277 422 277 384 L277 197 L277 197 Z " />
<glyph glyph-name="afii10081" unicode="&#x43f;" horiz-adv-x="470" d="M184 464 L336 464 L336 1 L462 1 L462 590 L58 590 L58 1 L184 1 L184 464 Z " />
<glyph glyph-name="afii10082" unicode="&#x440;" horiz-adv-x="461" d="M228 582 C208 582 190 578 172 572 L172 583 L46 583 L46 -170 L172 -170 L172 8 C190 1 208 -1 228 -1 C326 -1 406 88 406 197 L406 384 C406 493 326 582 228 582 L228 582 Z M280 197 C280 158 255 125 228 125 C200 125 176 158 176 197 L176 384 C176 422 200 456 228 456 C255 456 280 422 280 384 L280 197 L280 197 Z " />
<glyph glyph-name="afii10083" unicode="&#x441;" horiz-adv-x="413" d="M226 457 C239 457 252 450 263 436 L365 509 C331 557 280 583 226 583 C127 583 47 494 47 385 L47 198 C47 89 127 0 226 0 C278 0 329 26 364 72 L262 148 C252 134 239 126 226 126 C198 126 173 160 173 198 L173 385 C173 424 198 457 226 457 L226 457 Z " />
<glyph glyph-name="afii10084" unicode="&#x442;" horiz-adv-x="382" d="M47 466 L144 466 L144 0 L270 0 L270 466 L365 466 L365 574 L47 574 L47 466 L47 466 Z " />
<glyph glyph-name="afii10085" unicode="&#x443;" horiz-adv-x="452" d="M277 542 L277 197 C277 158 253 125 226 125 C198 125 173 158 173 197 L173 582 L47 582 L47 197 C47 88 127 -1 226 -1 C243 -1 259 2 275 7 C268 -22 247 -43 226 -43 C214 -43 204 -37 198 -31 L114 -126 C145 -154 185 -169 226 -169 C324 -169 403 -80 403 29 L403 197 L403 542 L403 583 L277 583 L277 542 L277 542 Z " />
<glyph glyph-name="afii10086" unicode="&#x444;" horiz-adv-x="650" d="M450 594 C432 594 416 592 401 587 L401 808 L275 808 L275 583 C257 590 236 594 216 594 C118 594 37 505 37 396 L37 179 C37 70 118 -19 216 -19 C236 -19 257 -16 275 -8 L275 -169 L401 -169 L401 -12 C416 -17 432 -19 450 -19 C548 -19 628 70 628 179 L628 396 C628 505 548 594 450 594 L450 594 Z M269 179 C269 140 244 107 216 107 C188 107 164 140 164 179 L164 396 C164 434 188 468 216 468 C244 468 269 434 269 396 L269 179 L269 179 Z M502 179 C502 140 478 107 450 107 C428 107 408 127 401 154 L401 421 C408 448 428 468 450 468 C478 468 502 434 502 396 L502 179 L502 179 Z " />
<glyph glyph-name="afii10087" unicode="&#x445;" horiz-adv-x="504" d="M473 583 L332 583 L269 455 L205 583 L65 583 L199 311 L47 0 L187 0 L270 168 L353 0 L493 0 L340 311 L473 583 L473 583 Z " />
<glyph glyph-name="afii10088" unicode="&#x446;" horiz-adv-x="581" d="M450 581 L324 581 L324 126 L164 126 L164 581 L37 581 L37 0 L338 0 L422 0 L422 -82 L548 -82 L548 126 L450 126 L450 581 L450 581 Z " />
<glyph glyph-name="afii10089" unicode="&#x447;" horiz-adv-x="472" d="M316 563 L316 313 C316 274 283 242 244 242 L235 242 C196 242 164 274 164 313 L164 620 L37 620 L37 313 C37 204 126 115 235 115 L244 115 C269 115 294 120 316 130 L316 0 L442 0 L442 313 L442 563 L442 619 L316 619 L316 563 L316 563 Z " />
<glyph glyph-name="afii10090" unicode="&#x448;" horiz-adv-x="650" d="M473 126 L382 126 L382 584 L256 584 L256 126 L164 126 L164 583 L37 583 L37 0 L599 0 L599 583 L473 583 L473 126 L473 126 Z " />
<glyph glyph-name="afii10091" unicode="&#x449;" horiz-adv-x="713" d="M599 583 L473 583 L473 126 L382 126 L382 584 L256 584 L256 126 L164 126 L164 583 L37 583 L37 0 L496 0 L580 0 L580 -82 L706 -82 L706 126 L599 126 L599 583 L599 583 Z " />
<glyph glyph-name="afii10092" unicode="&#x44a;" horiz-adv-x="550" d="M311 397 L266 397 L266 668 L37 668 L37 542 L140 542 L140 -1 L204 -1 L266 -1 L319 -1 C418 -1 498 88 498 197 L498 199 C498 308 414 397 311 397 L311 397 Z M372 197 C372 158 347 125 319 125 L266 125 L266 271 L311 271 C344 271 372 239 372 199 L372 197 L372 197 Z " />
<glyph glyph-name="afii10093" unicode="&#x44b;" horiz-adv-x="518" d="M215 406 L170 406 L170 581 L44 581 L44 -1 L223 -1 C322 -1 402 88 402 197 L402 208 C402 317 318 406 215 406 L215 406 Z M276 197 C276 158 251 125 223 125 L170 125 L170 280 L215 280 C248 280 276 247 276 208 L276 197 Z M433 0 L559 0 L559 584 L433 584 L433 0 L433 0 Z " />
<glyph glyph-name="afii10094" unicode="&#x44c;" horiz-adv-x="432" d="M215 502 L170 502 L170 809 L44 809 L44 -1 L223 -1 C322 -1 402 88 402 197 L402 304 C402 413 318 502 215 502 L215 502 Z M276 197 C276 158 251 125 223 125 L170 125 L170 376 L215 376 C248 376 276 343 276 304 L276 197 L276 197 Z " />
<glyph glyph-name="afii10095" unicode="&#x44d;" horiz-adv-x="458" d="M268 436 L268 401 L268 372 L95 372 L95 246 L268 246 L268 197 C268 160 244 126 216 126 C188 126 163 160 163 197 L37 197 C37 89 118 0 216 0 C314 0 395 89 395 197 L395 262 L395 401 L395 436 C395 545 314 634 216 634 C118 634 37 545 37 436 L163 436 C163 474 188 508 216 508 C244 508 268 474 268 436 L268 436 Z " />
<glyph glyph-name="afii10096" unicode="&#x44e;" horiz-adv-x="576" d="M372 632 C278 632 202 544 202 434 L202 374 L164 374 L164 635 L37 635 L37 0 L164 0 L164 248 L202 248 L202 199 C202 90 278 1 372 1 C466 1 542 90 542 199 L542 434 C542 544 466 632 372 632 L372 632 Z M416 199 C416 158 394 127 372 127 C352 127 328 158 328 199 L328 434 C328 476 352 506 372 506 C394 506 416 476 416 434 L416 199 L416 199 Z " />
<glyph glyph-name="afii10097" unicode="&#x44f;" horiz-adv-x="413" d="M-26 324 C-26 287 -10 254 15 228 C-12 200 -28 160 -28 118 L-28 0 L98 0 L98 118 C98 154 124 180 148 180 L185 180 L185 0 L311 0 L311 574 L311 574 L137 574 C47 574 -26 511 -26 432 L-26 324 Z M185 466 L185 288 L137 288 C117 288 100 304 100 324 L100 432 C100 450 117 466 137 466 L185 466 Z " />
<glyph glyph-name="afii10071" unicode="&#x451;" horiz-adv-x="380" d="M234 795 L311 795 L311 873 L234 873 L234 795 L234 795 Z M111 795 L188 795 L188 873 L111 873 L111 795 L111 795 Z M47 70 L326 70 L326 196 L173 196 L173 311 L260 311 L260 437 L173 437 L173 612 L326 612 L326 738 L47 738 L47 70 L47 70 Z " />
<glyph glyph-name="afii10099" unicode="&#x452;" horiz-adv-x="502" d="M251 601 C233 601 215 598 199 592 L199 626 L306 626 L306 754 L199 754 L199 827 L73 827 L73 754 L37 754 L37 626 L73 626 L73 403 L73 58 L73 1 L199 1 L199 58 L199 403 C199 442 223 475 251 475 C278 475 304 442 304 403 L304 41 C304 2 275 -30 240 -30 L240 -157 C344 -157 430 -68 430 41 L430 403 C430 512 349 601 251 601 L251 601 Z " />
<glyph glyph-name="afii10100" unicode="&#x453;" horiz-adv-x="349" d="M313 620 L37 620 L37 -1 L164 -1 L164 494 L313 494 L313 620 L313 620 Z M140 628 L194 628 L229 742 L160 742 L140 628 L140 628 Z " />
<glyph glyph-name="afii10101" unicode="&#x454;" horiz-adv-x="416" d="M228 668 C122 668 37 580 37 470 L37 470 C37 418 53 370 78 335 C53 300 37 252 37 199 L37 199 C37 90 122 1 228 1 L356 1 L356 127 L228 127 C192 127 163 160 163 199 L163 199 C163 246 187 271 194 271 L289 271 L289 272 L289 397 L289 398 L194 398 C187 398 163 424 163 470 L163 470 C163 510 192 542 228 542 L356 542 L356 668 L228 668 L228 668 Z " />
<glyph glyph-name="afii10102" unicode="&#x455;" horiz-adv-x="428" d="M251 346 C197 385 173 407 174 434 C174 439 175 444 181 449 C190 455 200 457 205 456 C227 454 253 437 266 422 L359 508 C332 538 281 574 222 582 C180 587 133 572 101 545 C68 520 50 482 48 442 C42 342 119 284 175 242 C229 203 254 181 252 151 C250 127 223 126 215 126 L214 126 C193 126 166 148 161 158 L47 103 C74 47 148 1 212 0 C214 0 216 0 217 0 C304 0 370 59 377 140 C386 244 308 302 251 346 L251 346 Z " />
<glyph glyph-name="afii10103" unicode="&#x456;" horiz-adv-x="226" d="M47 0 L173 0 L173 583 L47 583 L47 0 L47 0 Z M47 610 L173 610 L173 740 L47 740 L47 610 L47 610 Z " />
<glyph glyph-name="afii10104" unicode="&#x457;" horiz-adv-x="250" d="M-28 612 L79 612 L79 70 L205 70 L205 738 L-28 738 L-28 612 L-28 612 Z M131 732 L208 732 L208 810 L131 810 L131 732 L131 732 Z M8 732 L85 732 L85 810 L8 810 L8 732 L8 732 Z " />
<glyph glyph-name="afii10105" unicode="&#x458;" horiz-adv-x="257" d="M-40 610 L86 610 L86 740 L-40 740 L-40 610 L-40 610 Z M-40 29 C-40 -10 -66 -43 -93 -43 C-105 -43 -115 -37 -121 -31 L-205 -126 C-174 -154 -134 -169 -93 -169 C5 -169 86 -80 86 29 L86 583 L-40 583 L-40 29 L-40 29 Z " />
<glyph glyph-name="afii10106" unicode="&#x459;" horiz-adv-x="748" d="M552 502 L500 502 L500 670 L374 670 L374 667 L198 667 L198 150 C198 130 186 126 179 126 C176 126 172 126 169 130 C166 133 164 140 164 150 L37 150 C37 94 61 59 80 40 C107 14 142 0 179 0 C216 0 252 14 278 40 C308 67 325 106 325 150 L325 541 L374 541 L374 0 L437 0 L437 -1 L552 -1 C650 -1 731 88 731 197 L731 304 C731 413 650 502 552 502 L552 502 Z M605 197 C605 158 581 125 552 125 L500 125 L500 376 L552 376 C581 376 605 342 605 304 L605 197 L605 197 Z " />
<glyph glyph-name="afii10107" unicode="&#x45a;" horiz-adv-x="734" d="M558 502 L497 502 L497 635 L371 635 L371 502 L325 502 L325 632 L198 632 L198 150 C198 130 186 126 179 126 C176 126 172 126 169 130 C166 133 164 140 164 150 L37 150 C37 94 61 59 80 40 C107 14 142 0 179 0 C216 0 252 14 278 40 C308 67 325 106 325 150 L325 376 L371 376 L371 -1 L462 -1 L497 -1 L577 -1 C676 -1 756 88 756 197 L756 304 C756 413 667 502 558 502 L558 502 Z M630 197 C630 158 606 125 577 125 L497 125 L497 376 L558 376 C598 376 630 343 630 304 L630 197 L630 197 Z " />
<glyph glyph-name="afii10108" unicode="&#x45b;" horiz-adv-x="500" d="M251 601 C233 601 215 598 199 592 L199 640 L306 640 L306 766 L199 766 L199 839 L73 839 L73 766 L37 766 L37 640 L73 640 L73 403 L73 55 L73 -1 L199 -1 L199 55 L199 403 C199 442 223 475 251 475 C278 475 304 442 304 403 L304 2 L430 2 L430 403 C430 512 349 601 251 601 L251 601 Z " />
<glyph glyph-name="afii10109" unicode="&#x45c;" horiz-adv-x="444" d="M168 700 L222 700 L257 814 L188 814 L168 700 L168 700 Z " />
<glyph glyph-name="afii10110" unicode="&#x45e;" horiz-adv-x="428" d="M309 814 C309 775 285 742 256 742 C228 742 204 775 204 814 L78 814 C78 704 158 616 256 616 C354 616 435 704 435 814 L309 814 L309 814 Z " />
<glyph glyph-name="afii10193" unicode="&#x45f;" horiz-adv-x="577" d="M388 270 L164 270 L164 628 L37 628 L37 144 L212 144 L212 1 L338 1 L338 144 L514 144 L514 635 L388 635 L388 270 L388 270 Z " />
<glyph glyph-name="afii10050" unicode="&#x490;" horiz-adv-x="518" d="M472 808 L346 808 L346 762 L37 762 L37 -1 L164 -1 L164 636 L472 636 L472 808 L472 808 Z " />
<glyph glyph-name="afii10098" unicode="&#x491;" horiz-adv-x="511" d="M346 643 L37 643 L37 1 L164 1 L164 517 L472 517 L472 690 L346 690 L346 643 L346 643 Z " />
<glyph glyph-name="endash" unicode="&#x2013;" horiz-adv-x="484" d="M44 348 L362 348 L362 474 L44 474 L44 348 L44 348 Z " />
<glyph glyph-name="emdash" unicode="&#x2014;" horiz-adv-x="673" d="M44 348 L518 348 L518 474 L44 474 L44 348 L44 348 Z " />
<glyph glyph-name="afii00208" unicode="&#x2015;" horiz-adv-x="673" d="M44 276 L518 276 L518 402 L44 402 L44 276 L44 276 Z " />
<glyph glyph-name="quoteleft" unicode="&#x2018;" horiz-adv-x="184" d="M79 748 C79 785 104 781 104 781 L104 811 C31 811 32 748 32 748 L32 668 L116 668 L116 748 L79 748 L79 748 L79 748 Z " />
<glyph glyph-name="quoteright" unicode="&#x2019;" horiz-adv-x="178" d="M128 811 L44 811 L44 732 L82 732 L82 732 C82 695 56 698 56 698 L56 668 C130 668 128 732 128 732 L128 811 L128 811 Z " />
<glyph glyph-name="quotesinglbase" unicode="&#x201a;" horiz-adv-x="182" d="M128 150 L44 150 L44 71 L82 71 L82 71 C82 34 56 38 56 38 L56 8 C130 8 128 71 128 71 L128 150 Z " />
<glyph glyph-name="quotedblleft" unicode="&#x201c;" horiz-adv-x="268" d="M116 668 L116 748 L79 748 L79 748 C79 785 104 781 104 781 L104 811 C31 811 32 748 32 748 L32 668 L116 668 L116 668 Z M232 668 L232 748 L193 748 L193 748 C193 785 218 781 218 781 L218 811 C145 811 146 748 146 748 L146 668 L232 668 L232 668 Z " />
<glyph glyph-name="quotedblright" unicode="&#x201d;" horiz-adv-x="253" d="M197 732 C197 695 172 698 172 698 L172 668 C245 668 244 732 244 732 L244 811 L158 811 L158 732 L197 732 L197 732 L197 732 Z M56 698 L56 668 C130 668 128 732 128 732 L128 811 L44 811 L44 732 L82 732 L82 732 C82 695 56 698 56 698 L56 698 Z " />
<glyph glyph-name="quotedblbase" unicode="&#x201e;" horiz-adv-x="259" d="M244 153 L158 153 L158 74 L197 74 L197 74 C197 36 172 40 172 40 L172 10 C245 10 244 74 244 74 L244 153 L244 153 Z M128 153 L44 153 L44 74 L82 74 L82 74 C82 36 56 40 56 40 L56 10 C130 10 128 74 128 74 L128 153 L128 153 Z " />
<glyph glyph-name="dagger" unicode="&#x2020;" horiz-adv-x="426" d="M275 808 L149 808 L149 650 L44 650 L44 524 L149 524 L149 1 L275 1 L275 524 L368 524 L368 650 L275 650 L275 808 L275 808 Z " />
<glyph glyph-name="daggerdbl" unicode="&#x2021;" horiz-adv-x="428" d="M275 808 L149 808 L149 650 L44 650 L44 524 L149 524 L149 442 L44 442 L44 316 L149 316 L149 1 L275 1 L275 316 L368 316 L368 442 L275 442 L275 524 L368 524 L368 650 L275 650 L275 808 L275 808 Z " />
<glyph glyph-name="bullet" unicode="&#x2022;" horiz-adv-x="199" d="M98 480 C68 480 44 456 44 426 C44 396 68 372 98 372 C128 372 152 396 152 426 C152 456 128 480 98 480 L98 480 Z " />
<glyph glyph-name="onedotenleader" unicode="&#x2024;" horiz-adv-x="172" d="M44 1 L133 1 L133 82 L44 82 L44 1 L44 1 Z " />
<glyph glyph-name="twodotenleader" unicode="&#x2025;" horiz-adv-x="343" d="M44 1 L133 1 L133 82 L44 82 L44 1 L44 1 Z M216 1 L305 1 L305 82 L216 82 L216 1 L216 1 Z " />
<glyph glyph-name="ellipsis" unicode="&#x2026;" horiz-adv-x="379" d="M293 70 L382 70 L382 150 L293 150 L293 70 L293 70 Z M168 70 L258 70 L258 150 L168 150 L168 70 L168 70 Z M44 70 L133 70 L133 150 L44 150 L44 70 L44 70 Z " />
<glyph glyph-name="perthousand" unicode="&#x2030;" horiz-adv-x="1201" d="M401 518 L401 613 C401 722 320 811 222 811 C124 811 44 722 44 613 L44 518 C44 409 124 320 222 320 C320 320 401 409 401 518 L401 518 Z M275 518 C275 480 251 446 222 446 C194 446 170 480 170 518 L170 613 C170 652 194 685 222 685 C251 685 275 652 275 613 L275 518 L275 518 Z M694 490 C595 490 515 401 515 292 L515 196 C515 86 595 -2 694 -2 C792 -2 871 86 871 196 L871 292 C871 401 792 490 694 490 L694 490 Z M745 196 C745 157 721 124 694 124 C665 124 641 157 641 196 L641 292 C641 330 665 364 694 364 C721 364 745 330 745 292 L745 196 L745 196 Z M1067 490 C968 490 888 401 888 292 L888 196 C888 86 968 -2 1067 -2 C1165 -2 1246 86 1246 196 L1246 292 C1246 401 1165 490 1067 490 L1067 490 Z M1120 196 C1120 157 1094 124 1067 124 C1039 124 1014 157 1014 196 L1014 292 C1014 330 1039 364 1067 364 C1094 364 1120 330 1120 292 L1120 196 L1120 196 Z M551 808 L266 1 L377 1 L661 808 L551 808 L551 808 Z " />
<glyph glyph-name="guilsinglleft" unicode="&#x2039;" horiz-adv-x="313" d="M187 624 L44 396 L187 164 L294 229 L193 396 L294 557 L187 624 Z " />
<glyph glyph-name="guilsinglright" unicode="&#x203a;" horiz-adv-x="439" d="M44 557 L145 396 L44 229 L151 164 L294 396 L151 624 L44 557 L44 557 Z " />
<glyph glyph-name="fraction" unicode="&#x2044;" horiz-adv-x="520" d="M329 814 L44 7 L168 7 L451 814 L329 814 Z " />
<glyph glyph-name="zerosuperior" unicode="&#x2070;" horiz-adv-x="347" d="M180 919 L143 919 C86 919 40 872 40 816 L40 583 C40 527 86 480 143 480 L180 480 C236 480 282 527 282 583 L282 816 C282 872 236 919 180 919 L180 919 Z M203 583 C203 571 192 560 180 560 L143 560 C130 560 119 571 119 583 L119 816 C119 829 130 840 143 840 L180 840 C192 840 203 829 203 816 L203 583 L203 583 Z " />
<glyph glyph-name="foursuperior" unicode="&#x2074;" horiz-adv-x="349" d="M258 918 L170 918 L40 616 L180 616 L180 480 L258 480 L258 616 L287 616 L287 694 L258 694 L258 918 L258 918 Z M180 694 L160 694 L180 739 L180 694 L180 694 Z " />
<glyph glyph-name="fivesuperior" unicode="&#x2075;" horiz-adv-x="323" d="M205 791 C184 806 158 814 130 812 L130 840 L223 840 L223 918 L50 918 L50 712 L102 727 C120 733 144 738 158 727 C173 716 181 686 181 644 C181 612 178 559 150 559 C140 559 132 565 126 576 C121 584 119 593 119 604 L40 604 C40 580 46 557 58 538 C77 502 112 480 150 480 C182 480 260 497 260 644 C260 714 241 764 205 791 L205 791 Z " />
<glyph glyph-name="sixsuperior" unicode="&#x2076;" horiz-adv-x="314" d="M142 840 C154 840 163 824 163 809 L242 809 C242 869 197 918 142 918 C85 918 40 869 40 809 L40 684 L40 588 L40 588 C40 586 41 584 41 583 C42 527 86 480 142 480 C196 480 240 527 242 583 C242 584 242 586 242 588 L242 684 C242 740 197 786 142 786 C133 786 126 785 119 784 L119 809 C119 824 130 840 142 840 L142 840 Z M142 707 C154 707 163 696 163 684 L163 588 C163 587 163 587 163 587 C163 574 154 564 142 564 C130 564 120 574 119 587 C119 587 119 587 119 588 L119 684 C119 696 130 707 142 707 L142 707 Z " />
<glyph glyph-name="sevensuperior" unicode="&#x2077;" horiz-adv-x="342" d="M40 918 L40 839 L146 839 C110 767 60 637 60 480 L139 480 C139 692 246 856 247 857 L288 918 L40 918 L40 918 Z " />
<glyph glyph-name="eightsuperior" unicode="&#x2078;" horiz-adv-x="323" d="M250 821 C250 876 205 920 149 920 C94 920 49 876 49 821 C49 799 56 779 67 762 C50 744 40 719 40 692 L40 586 C40 529 86 482 143 482 L156 482 C212 482 258 529 258 586 L258 692 C258 719 248 744 232 762 C242 779 250 799 250 821 L250 821 Z M149 841 C161 841 170 832 170 821 C170 809 161 799 149 799 C138 799 128 809 128 821 C128 832 138 841 149 841 L149 841 Z M180 586 C180 574 169 562 156 562 L143 562 C130 562 119 574 119 586 L119 692 C119 704 130 715 143 715 L156 715 C169 715 180 704 180 692 L180 586 L180 586 Z " />
<glyph glyph-name="ninesuperior" unicode="&#x2079;" horiz-adv-x="298" d="M142 918 C142 918 142 918 142 918 L142 918 L142 918 C85 918 40 872 40 815 L40 721 C40 664 85 618 142 618 C149 618 156 619 163 620 L163 588 C163 572 154 559 142 559 C130 559 119 572 119 588 L40 588 C40 529 85 480 142 480 C197 480 242 529 242 588 L242 721 L242 811 L242 815 C242 872 197 918 142 918 L142 918 Z M142 697 C130 697 119 708 119 721 L119 811 C119 826 130 839 142 839 C142 839 142 839 142 839 C154 839 163 826 163 811 L163 721 C163 708 154 697 142 697 L142 697 Z " />
<glyph glyph-name="parenleftsuperior" unicode="&#x207d;" horiz-adv-x="186" d="M82 871 C12 711 12 521 82 361 C101 361 127 361 144 361 C72 521 72 711 144 871 C127 871 101 871 82 871 L82 871 Z " />
<glyph glyph-name="parenrightsuperior" unicode="&#x207e;" horiz-adv-x="164" d="M72 871 C55 871 29 871 12 871 C82 711 82 521 12 361 C29 361 55 361 72 361 C144 521 144 711 72 871 L72 871 Z " />
<glyph glyph-name="nsuperior" unicode="&#x207f;" horiz-adv-x="388" d="M191 954 C177 954 162 953 149 948 L149 955 L46 955 L46 480 L149 480 L149 793 C149 824 169 852 191 852 C214 852 234 824 234 793 L234 480 L336 480 L336 793 C336 882 272 954 191 954 L191 954 Z " />
<glyph glyph-name="zeroinferior" unicode="&#x2080;" horiz-adv-x="347" d="M180 301 L143 301 C86 301 40 254 40 198 L40 -35 C40 -91 86 -138 143 -138 L180 -138 C236 -138 282 -91 282 -35 L282 198 C282 254 236 301 180 301 L180 301 Z M203 -35 C203 -47 192 -58 180 -58 L143 -58 C130 -58 119 -47 119 -35 L119 198 C119 211 130 222 143 222 L180 222 C192 222 203 211 203 198 L203 -35 L203 -35 Z " />
<glyph glyph-name="oneinferior" unicode="&#x2081;" horiz-adv-x="284" d="M97 215 L40 158 L96 102 L128 134 L128 -223 L206 -223 L206 215 L206 215 L97 215 L97 215 Z " />
<glyph glyph-name="twoinferior" unicode="&#x2082;" horiz-adv-x="338" d="M259 181 C259 247 210 300 150 300 C89 300 40 244 40 175 L119 175 C119 199 133 222 150 222 C167 222 180 203 181 181 C181 134 155 106 121 71 C84 31 38 -18 41 -100 L41 -138 L235 -138 L235 -59 L125 -59 C134 -31 155 -10 179 17 C217 56 260 103 259 181 L259 181 Z " />
<glyph glyph-name="threeinferior" unicode="&#x2083;" horiz-adv-x="353" d="M192 173 L295 300 L74 300 L74 222 L131 222 L40 109 L122 109 C140 109 188 109 188 22 C188 -30 170 -59 157 -59 C142 -59 127 -38 127 -14 L48 -14 C48 -83 97 -138 157 -138 C210 -138 268 -88 268 22 C268 103 234 150 192 173 L192 173 Z " />
<glyph glyph-name="fourinferior" unicode="&#x2084;" horiz-adv-x="349" d="M258 302 L170 302 L40 0 L180 0 L180 -136 L258 -136 L258 0 L287 0 L287 78 L258 78 L258 302 L258 302 Z M180 78 L160 78 L180 124 L180 78 L180 78 Z " />
<glyph glyph-name="fiveinferior" unicode="&#x2085;" horiz-adv-x="323" d="M205 173 C184 188 158 196 130 194 L130 222 L223 222 L223 300 L50 300 L50 94 L102 109 C120 115 144 120 158 109 C173 98 181 68 181 26 C181 -6 178 -59 150 -59 C140 -59 132 -53 126 -42 C121 -34 119 -25 119 -14 L40 -14 C40 -38 46 -61 58 -80 C77 -116 112 -138 150 -138 C182 -138 260 -121 260 26 C260 96 241 146 205 173 L205 173 Z " />
<glyph glyph-name="sixinferior" unicode="&#x2086;" horiz-adv-x="314" d="M142 222 C154 222 163 206 163 191 L242 191 C242 251 197 300 142 300 C85 300 40 251 40 191 L40 66 L40 -30 L40 -30 C40 -32 41 -34 41 -35 C42 -91 86 -138 142 -138 C196 -138 240 -91 242 -35 C242 -34 242 -32 242 -30 L242 66 C242 122 197 168 142 168 C133 168 126 167 119 166 L119 191 C119 206 130 222 142 222 L142 222 Z M142 89 C154 89 163 78 163 66 L163 -30 C163 -31 163 -31 163 -31 C163 -44 154 -54 142 -54 C130 -54 120 -44 119 -31 C119 -31 119 -31 119 -30 L119 66 C119 78 130 89 142 89 L142 89 Z " />
<glyph glyph-name="seveninferior" unicode="&#x2087;" horiz-adv-x="342" d="M40 300 L40 221 L146 221 C110 149 60 19 60 -138 L139 -138 C139 74 246 238 247 239 L288 300 L40 300 L40 300 Z " />
<glyph glyph-name="eightinferior" unicode="&#x2088;" horiz-adv-x="323" d="M250 200 C250 256 205 300 149 300 C94 300 49 256 49 200 C49 179 56 158 67 142 C50 124 40 98 40 72 L40 -35 C40 -91 86 -138 143 -138 L156 -138 C212 -138 258 -91 258 -35 L258 72 C258 98 248 124 232 142 C242 158 250 179 250 200 L250 200 Z M149 221 C161 221 170 211 170 200 C170 188 161 179 149 179 C138 179 128 188 128 200 C128 211 138 221 149 221 L149 221 Z M180 -35 C180 -47 169 -59 156 -59 L143 -59 C130 -59 119 -47 119 -35 L119 72 C119 84 130 95 143 95 L156 95 C169 95 180 84 180 72 L180 -35 L180 -35 Z " />
<glyph glyph-name="nineinferior" unicode="&#x2089;" horiz-adv-x="298" d="M142 300 C142 300 142 300 142 300 L142 300 L142 300 C85 300 40 254 40 197 L40 103 C40 46 85 0 142 0 C149 0 156 1 163 2 L163 -30 C163 -46 154 -59 142 -59 C130 -59 119 -46 119 -30 L40 -30 C40 -89 85 -138 142 -138 C197 -138 242 -89 242 -30 L242 103 L242 193 L242 197 C242 254 197 300 142 300 L142 300 Z M142 79 C130 79 119 90 119 103 L119 193 C119 208 130 221 142 221 C142 221 142 221 142 221 C154 221 163 208 163 193 L163 103 C163 90 154 79 142 79 L142 79 Z " />
<glyph glyph-name="parenleftinferior" unicode="&#x208d;" horiz-adv-x="194" d="M95 359 C37 231 37 79 95 -50 C109 -50 130 -50 144 -50 C87 79 87 231 144 359 C130 359 109 359 95 359 L95 359 Z " />
<glyph glyph-name="parenrightinferior" unicode="&#x208e;" horiz-adv-x="169" d="M79 359 C64 359 43 359 29 359 C87 231 87 79 29 -50 C43 -50 64 -50 79 -50 C136 79 136 231 79 359 L79 359 Z " />
<glyph glyph-name="colonmonetary" unicode="&#x20a1;" horiz-adv-x="475" d="M444 666 C439 684 431 702 421 719 L463 850 L389 850 L365 775 C355 782 347 787 336 792 L355 850 L281 850 L268 810 C263 810 259 810 254 810 L245 810 C136 810 47 721 47 612 L47 198 C47 180 49 163 54 146 L-4 -30 L72 -30 L102 61 C109 53 118 46 127 40 L104 -30 L180 -30 L192 7 C209 2 227 0 245 0 L254 0 C337 0 412 53 440 131 L322 174 C312 145 284 127 254 127 L245 127 C240 127 235 127 230 128 L400 653 L444 666 L444 666 Z M173 612 C173 646 196 672 226 680 L173 516 L173 612 L173 612 Z M173 198 L173 283 L298 668 C300 667 302 665 305 662 C311 655 317 648 320 638 L174 185 C173 190 173 193 173 198 L173 198 Z " />
<glyph glyph-name="Euro" unicode="&#x20ac;" horiz-adv-x="514" d="M256 706 L265 706 C305 706 337 673 337 634 L463 634 C463 743 374 832 265 832 L256 832 C146 832 58 743 58 634 L58 559 L44 559 L44 433 L58 433 L58 394 L44 394 L44 268 L58 268 L58 191 C58 82 146 -7 256 -7 L265 -7 C374 -7 463 82 463 191 L337 191 C337 151 305 119 265 119 L256 119 C216 119 184 151 184 191 L184 268 L380 268 L380 394 L184 394 L184 433 L380 433 L380 559 L184 559 L184 634 C184 673 216 706 256 706 L256 706 Z " />
<glyph glyph-name="afii61352" unicode="&#x2116;" horiz-adv-x="931" d="M713 782 C615 782 534 693 534 584 L534 397 C534 289 615 199 713 199 C812 199 891 289 891 397 L891 584 C891 693 812 782 713 782 L713 782 Z M765 397 C765 360 741 326 713 326 C686 326 660 360 660 397 L660 584 C660 622 686 656 713 656 C741 656 765 622 765 584 L765 397 L765 397 Z M181 812 L48 812 L47 812 L48 0 L174 0 L174 468 L350 0 L352 0 L478 0 L478 810 L352 810 L352 356 L181 812 Z M558 31 L862 31 L862 157 L558 157 L558 31 L558 31 Z " />
<glyph glyph-name="trademark" unicode="&#x2122;" horiz-adv-x="511" d="M23 751 L72 751 L72 480 L135 480 L135 751 L182 751 L182 814 L23 814 L23 751 L23 751 Z M348 814 L310 696 L271 814 L270 814 L207 814 L207 480 L270 480 L270 613 L285 569 L335 569 L351 617 L351 480 L414 480 L414 814 L348 814 L348 814 Z " />
<glyph glyph-name="onethird" unicode="&#x2153;" horiz-adv-x="659" d="M516 310 L618 438 L397 438 L397 359 L454 359 L364 247 L446 247 C464 247 512 247 512 160 C512 107 494 79 481 79 C466 79 451 100 451 122 L372 122 C372 55 421 0 481 0 C534 0 592 49 592 160 C592 241 558 288 516 310 L516 310 Z M79 809 L22 752 L78 696 L109 728 L109 371 L188 371 L188 809 L188 809 L79 809 L79 809 Z M377 814 L92 7 L216 7 L499 814 L377 814 Z " />
<glyph glyph-name="twothirds" unicode="&#x2154;" horiz-adv-x="745" d="M576 310 L678 438 L457 438 L457 359 L514 359 L424 247 L506 247 C524 247 572 247 572 160 C572 107 554 79 541 79 C526 79 511 100 511 122 L432 122 C432 55 481 0 541 0 C594 0 652 49 652 160 C652 241 618 288 576 310 L576 310 Z M259 686 C259 751 210 804 149 804 C89 804 40 748 40 680 L119 680 C119 703 133 726 149 726 C167 726 180 707 181 685 C181 638 155 610 121 575 C84 535 38 486 40 406 L41 366 L235 366 L235 445 L125 445 C134 473 155 496 179 521 C217 562 260 607 259 686 L259 686 Z M433 814 L148 7 L272 7 L555 814 L433 814 Z " />
<glyph glyph-name="oneeighth" unicode="&#x215b;" horiz-adv-x="648" d="M588 337 C588 392 544 438 487 438 C432 438 388 392 388 337 C388 316 395 295 406 280 C389 260 378 236 378 209 L378 103 C378 46 425 0 481 0 L494 0 C551 0 596 46 596 103 L596 209 C596 236 587 260 569 280 C581 295 588 316 588 337 L588 337 Z M487 359 C499 359 509 349 509 337 C509 326 499 317 487 317 C476 317 466 326 466 337 C466 349 476 359 487 359 L487 359 Z M518 103 C518 90 508 79 494 79 L481 79 C468 79 457 90 457 103 L457 209 C457 222 468 233 481 233 L494 233 C508 233 518 222 518 209 L518 103 L518 103 Z M79 809 L22 752 L78 696 L109 728 L109 371 L188 371 L188 809 L188 809 L79 809 L79 809 Z M394 814 L109 7 L233 7 L516 814 L394 814 Z " />
<glyph glyph-name="threeeighths" unicode="&#x215c;" horiz-adv-x="659" d="M593 337 C593 392 548 438 492 438 C437 438 392 392 392 337 C392 316 400 295 410 280 C394 260 383 236 383 209 L383 103 C383 46 430 0 486 0 L499 0 C556 0 601 46 601 103 L601 209 C601 236 592 260 574 280 C586 295 593 316 593 337 L593 337 Z M492 359 C504 359 514 349 514 337 C514 326 504 317 492 317 C481 317 470 326 470 337 C470 349 481 359 492 359 L492 359 Z M523 103 C523 90 512 79 499 79 L486 79 C473 79 462 90 462 103 L462 209 C462 222 473 233 486 233 L499 233 C512 233 523 222 523 209 L523 103 L523 103 Z M163 680 L265 809 L46 809 L46 730 L101 730 L11 618 L94 618 C112 618 160 618 160 530 C160 478 142 450 128 450 C113 450 98 470 98 493 L19 493 C19 426 68 371 128 371 C181 371 239 420 239 530 C239 612 205 659 163 680 L163 680 Z M400 814 L115 7 L239 7 L522 814 L400 814 Z " />
<glyph glyph-name="fiveeighths" unicode="&#x215d;" horiz-adv-x="696" d="M629 337 C629 392 584 438 528 438 C473 438 428 392 428 337 C428 316 436 295 446 280 C430 260 419 236 419 209 L419 103 C419 46 466 0 522 0 L535 0 C592 0 637 46 637 103 L637 209 C637 236 628 260 610 280 C622 295 629 316 629 337 L629 337 Z M528 359 C540 359 550 349 550 337 C550 326 540 317 528 317 C517 317 506 326 506 337 C506 349 517 359 528 359 L528 359 Z M559 103 C559 90 548 79 535 79 L522 79 C509 79 498 90 498 103 L498 209 C498 222 509 233 522 233 L535 233 C548 233 559 222 559 209 L559 103 L559 103 Z M205 677 C184 692 158 700 130 698 L130 726 L223 726 L223 804 L50 804 L50 598 L102 613 C120 619 144 624 158 613 C173 602 181 572 181 530 C181 499 178 445 149 445 C140 445 132 452 126 462 C121 470 119 480 119 490 L40 490 C40 466 46 443 58 424 C77 388 112 367 149 367 C182 367 260 383 260 530 C260 601 241 650 205 677 L205 677 Z M421 814 L136 7 L260 7 L543 814 L421 814 Z " />
<glyph glyph-name="seveneighths" unicode="&#x215e;" horiz-adv-x="631" d="M40 808 L40 728 L146 728 C110 656 60 527 60 370 L139 370 C139 582 246 744 247 746 L288 808 L40 808 Z M533 337 C533 392 488 438 432 438 C377 438 332 392 332 337 C332 316 340 295 350 280 C334 260 323 236 323 209 L323 103 C323 47 370 0 426 0 L439 0 C496 0 541 47 541 103 L541 209 C541 236 532 260 514 280 C526 295 533 316 533 337 L533 337 Z M432 359 C444 359 454 349 454 337 C454 326 444 317 432 317 C421 317 410 326 410 337 C410 349 421 359 432 359 L432 359 Z M463 103 C463 90 452 79 439 79 L426 79 C413 79 402 90 402 103 L402 209 C402 222 413 233 426 233 L439 233 C452 233 463 222 463 209 L463 103 Z M329 814 L44 7 L168 7 L451 814 L329 814 Z " />
<glyph glyph-name="partialdiff" unicode="&#x2202;" horiz-adv-x="532" d="M377 833 C274 833 175 743 156 634 L282 634 C288 673 322 706 354 706 C386 706 408 673 402 634 L389 560 C372 568 352 571 330 571 C227 571 128 482 109 373 L79 199 C78 196 78 193 78 191 L78 191 C58 80 125 -8 228 -8 C331 -8 431 80 451 191 L452 199 L482 373 L529 634 C548 743 480 833 377 833 L377 833 Z M235 373 C242 412 276 445 308 445 C341 445 362 412 355 373 L325 199 C318 160 284 127 252 127 C220 127 198 160 205 199 L235 373 L235 373 Z " />
<glyph glyph-name="product" unicode="&#x220f;" horiz-adv-x="520" d="M184 1 L184 1 L184 680 L432 680 L432 1 L558 1 L558 806 L58 806 L58 1 L184 1 L184 1 Z " />
<glyph glyph-name="summation" unicode="&#x2211;" horiz-adv-x="492" d="M464 -9 L464 109 L254 109 L378 258 L254 420 L464 420 L464 537 L44 537 L235 258 L44 -9 L464 -9 L464 -9 Z " />
<glyph glyph-name="minus" unicode="&#x2212;" horiz-adv-x="593" d="M44 348 L348 348 L348 474 L44 474 L44 348 L44 348 Z " />
<glyph glyph-name="radical" unicode="&#x221a;" horiz-adv-x="716" d="M182 284 L372 -158 L689 808 L569 847 L356 198 L244 462 L44 353 L104 242 L182 284 L182 284 Z " />
<glyph glyph-name="infinity" unicode="&#x221e;" horiz-adv-x="737" d="M710 409 C710 488 653 546 575 546 C550 546 524 540 498 529 L376 478 C337 494 301 509 274 521 L256 529 C230 540 204 546 179 546 C101 546 44 488 44 409 C44 370 58 335 83 310 C108 286 142 272 180 272 C204 272 230 277 256 289 L376 340 C413 325 446 311 473 299 L498 288 C523 277 550 272 574 272 C574 272 574 272 574 272 C612 272 646 286 671 310 C696 335 710 370 710 409 L710 409 Z M206 404 C194 400 185 398 180 398 C175 398 172 400 172 400 C172 400 170 403 170 409 C170 414 172 418 172 419 C173 419 175 420 179 420 C185 420 193 419 206 413 L216 409 L206 404 L206 404 Z M582 400 C582 400 580 398 574 398 L574 398 C569 398 559 400 547 404 L536 409 L547 414 C560 419 569 420 575 420 C580 420 582 419 582 419 C583 418 584 415 584 409 C584 403 583 400 582 400 L582 400 Z " />
<glyph glyph-name="integral" unicode="&#x222b;" horiz-adv-x="407" d="M76 632 L76 181 C76 134 52 109 44 108 C44 108 44 108 44 108 L44 -18 C131 -18 202 71 202 181 L202 632 C202 671 227 706 254 706 C266 706 276 700 282 694 L366 787 C335 816 295 832 254 832 C156 832 76 743 76 632 L76 632 Z " />
<glyph glyph-name="approxequal" unicode="&#x2248;" horiz-adv-x="540" d="M422 173 L502 271 C384 367 300 330 245 306 C224 296 208 289 194 290 C175 292 150 313 133 330 L44 241 C102 182 154 164 197 164 C236 164 269 179 295 191 C341 210 364 221 422 173 L422 173 Z M295 383 C341 403 364 413 422 366 L502 463 C384 559 300 522 245 498 C224 490 208 482 194 482 C175 485 150 505 133 522 L44 433 C102 374 154 356 197 356 C236 356 269 371 295 383 L295 383 Z " />
<glyph glyph-name="notequal" unicode="&#x2260;" horiz-adv-x="410" d="M72 230 L190 184 L220 263 L348 263 L348 389 L269 389 L280 414 L348 414 L348 540 L329 540 L341 571 L223 617 L193 540 L44 540 L44 414 L144 414 L134 389 L44 389 L44 263 L84 263 L72 230 L72 230 Z " />
<glyph glyph-name="lessequal" unicode="&#x2264;" horiz-adv-x="420" d="M214 221 L322 287 L220 452 L322 614 L214 680 L72 454 L214 221 Z M44 215 L44 89 L368 89 L368 215 L44 215 Z " />
<glyph glyph-name="greaterequal" unicode="&#x2265;" horiz-adv-x="421" d="M199 221 L341 454 L199 680 L91 614 L193 452 L91 287 L199 221 L199 221 Z M368 215 L44 215 L44 89 L368 89 L368 215 L368 215 Z " />
<glyph glyph-name="lozenge" unicode="&#x25ca;" horiz-adv-x="444" d="M275 112 L427 422 L293 703 L276 739 L197 739 L44 428 L196 112 L275 112 L275 112 Z M235 532 L288 422 L236 319 L185 428 L235 532 L235 532 Z " />
<glyph glyph-name="ff" unicode="&#xfb00;" horiz-adv-x="763" d="M532 811 C433 811 354 722 354 612 L354 583 L260 583 L260 457 L354 457 L354 0 L480 0 L480 457 L529 457 L529 583 L480 583 L480 612 C480 652 504 685 532 685 C544 685 553 679 559 673 L644 768 C612 796 572 811 532 811 L532 811 Z M270 811 C172 811 93 722 93 612 L93 583 L47 583 L47 457 L93 457 L93 0 L219 0 L219 457 L268 457 L268 583 L219 583 L219 612 C219 652 243 685 270 685 C282 685 292 679 298 673 L383 768 C351 796 311 811 270 811 L270 811 Z " />
<glyph glyph-name="fi" unicode="&#xfb01;" horiz-adv-x="565" d="M332 0 L458 0 L458 583 L332 583 L332 0 L332 0 Z M392 764 C360 793 317 809 276 809 C178 809 92 719 92 610 L92 583 L47 583 L47 457 L92 457 L92 0 L218 0 L218 457 L268 457 L268 583 L218 583 L218 610 C218 648 248 682 276 682 C288 682 301 676 307 671 C323 656 332 634 332 610 L458 610 C458 670 434 726 392 764 L392 764 Z " />
<glyph glyph-name="fl" unicode="&#xfb02;" horiz-adv-x="574" d="M408 764 C376 793 322 809 281 809 C182 809 92 719 92 610 L91 583 L46 583 L46 457 L91 457 L92 0 L218 0 L217 457 L266 457 L266 583 L217 583 L218 610 C218 648 253 682 281 682 C293 682 317 676 323 671 C338 656 348 634 348 610 L348 0 L474 0 L474 610 C474 670 450 726 408 764 L408 764 Z " />
<glyph glyph-name="ffi" unicode="&#xfb03;" horiz-adv-x="841" d="M601 0 L727 0 L727 583 L601 583 L601 0 L601 0 Z M661 764 C629 793 586 809 545 809 C446 809 361 719 361 610 L361 583 L244 583 L244 457 L361 457 L361 0 L487 0 L487 457 L536 457 L536 583 L487 583 L487 610 C487 648 517 682 545 682 C557 682 570 676 576 671 C592 656 601 634 601 610 L727 610 C727 670 703 726 661 764 L661 764 Z M270 811 C172 811 93 722 93 612 L93 583 L47 583 L47 457 L93 457 L93 0 L219 0 L219 457 L268 457 L268 583 L219 583 L219 612 C219 652 243 685 270 685 C282 685 292 679 298 673 L383 768 C351 796 311 811 270 811 L270 811 Z " />
<glyph glyph-name="ffl" unicode="&#xfb04;" horiz-adv-x="858" d="M662 764 C630 793 576 809 535 809 C437 809 347 719 347 610 L346 583 L252 583 L252 457 L346 457 L347 0 L473 0 L472 457 L521 457 L521 583 L472 583 L473 610 C473 648 508 682 535 682 C547 682 571 676 577 671 C593 656 602 634 602 610 L602 0 L728 0 L728 610 C728 670 704 726 662 764 L662 764 Z M270 811 C172 811 93 722 93 612 L93 583 L47 583 L47 457 L93 457 L93 0 L219 0 L219 457 L268 457 L268 583 L219 583 L219 612 C219 652 243 685 270 685 C282 685 292 679 298 673 L383 768 C351 796 311 811 270 811 L270 811 Z " />
</font>
</svg>
