<?xml version="1.0" standalone="no"?>
<!DOCTYPE svg PUBLIC "-//W3C//DTD SVG 20010904//EN"
 "http://www.w3.org/TR/2001/REC-SVG-20010904/DTD/svg10.dtd">
<svg version="1.0" xmlns="http://www.w3.org/2000/svg"
 width="2500.000000pt" height="2506.000000pt" viewBox="0 0 2500.000000 2506.000000"
 preserveAspectRatio="xMidYMid meet">
<metadata>
Created by potrace 1.15, written by Peter Selinger 2001-2017
</metadata>
<g transform="translate(0.000000,2506.000000) scale(0.100000,-0.100000)"
fill="#000000" stroke="none">
<path d="M10446 24092 c-3 -5 8 -62 23 -128 40 -166 96 -406 130 -554 70 -305
123 -533 146 -630 24 -100 87 -369 106 -455 20 -93 61 -266 119 -515 34 -146
73 -314 86 -375 13 -60 35 -155 49 -210 25 -102 39 -164 95 -406 l32 -136 141
-6 c78 -4 273 -7 433 -7 l291 0 17 88 c10 48 26 121 37 162 10 41 30 129 44
195 14 66 32 145 39 175 8 30 26 107 40 170 88 386 110 486 131 580 13 58 35
157 49 220 45 194 114 552 141 725 19 117 35 158 35 87 0 -39 17 -169 54 -412
8 -52 18 -115 21 -140 3 -25 15 -90 25 -145 24 -130 54 -291 80 -435 12 -63
30 -155 40 -205 10 -49 31 -157 45 -240 15 -82 33 -177 40 -210 7 -33 21 -98
29 -145 60 -323 90 -466 100 -472 6 -4 197 -8 424 -8 l412 0 10 26 c6 14 21
69 35 123 29 112 94 361 125 476 12 44 37 139 55 210 18 72 47 180 64 240 16
61 44 164 61 230 17 66 51 194 75 285 23 91 61 235 83 320 23 85 48 182 57
215 9 33 27 101 40 150 13 50 35 135 50 190 36 136 84 319 133 505 22 85 57
214 76 286 20 73 36 139 36 148 0 14 -39 16 -399 16 l-399 0 -16 -67 c-16 -67
-58 -272 -116 -568 -16 -82 -38 -190 -50 -240 -22 -100 -86 -413 -100 -490 -5
-27 -15 -84 -24 -125 -8 -41 -24 -131 -36 -200 -12 -69 -30 -168 -40 -220 -11
-52 -31 -167 -45 -255 -46 -283 -59 -352 -63 -320 -2 17 -10 75 -18 130 -8 55
-21 152 -29 215 -15 115 -28 197 -65 405 -11 61 -29 166 -40 235 -12 69 -30
168 -40 220 -10 52 -26 133 -34 180 -36 199 -68 371 -86 460 -10 52 -28 151
-40 220 -19 113 -41 228 -71 378 l-10 52 -419 0 -419 0 -6 -37 c-8 -42 -48
-233 -70 -333 -8 -36 -31 -141 -51 -235 -70 -335 -113 -541 -129 -615 -30
-136 -105 -503 -135 -660 -17 -85 -39 -198 -50 -250 -10 -52 -31 -162 -45
-245 -32 -184 -32 -187 -34 -151 -1 30 -19 144 -51 331 -10 61 -28 173 -40
250 -12 77 -30 185 -40 240 -10 55 -30 170 -45 255 -15 85 -40 227 -56 315
-17 88 -34 185 -38 215 -11 67 -45 260 -71 390 -10 52 -28 156 -41 230 -12 74
-29 173 -38 220 l-17 85 -416 3 c-229 1 -419 -2 -422 -6z"/>
<path d="M9575 23790 c-97 -38 -384 -147 -478 -181 -43 -16 -120 -45 -172 -65
l-93 -37 -6 -41 c-3 -22 -12 -126 -20 -231 -9 -104 -20 -251 -26 -325 -6 -74
-14 -259 -17 -411 l-6 -275 -81 84 c-45 47 -173 173 -286 280 -234 224 -418
399 -506 484 l-61 59 -94 -36 c-52 -20 -104 -40 -115 -45 -12 -5 -84 -32 -160
-60 -77 -28 -184 -68 -239 -90 -55 -21 -128 -48 -162 -60 -35 -13 -63 -28 -63
-34 0 -6 183 -164 407 -351 223 -187 508 -425 632 -529 124 -104 272 -227 329
-274 70 -59 102 -91 102 -106 0 -11 -7 -57 -15 -101 -14 -75 -39 -229 -84
-515 -49 -305 -175 -1093 -197 -1223 -8 -54 -14 -101 -11 -103 3 -3 83 24 178
60 447 167 652 246 657 250 11 11 65 794 80 1165 l7 164 140 -132 c76 -73 182
-172 234 -220 53 -47 214 -196 359 -329 197 -183 267 -242 280 -237 23 9 242
92 317 120 33 12 89 34 125 48 36 14 136 51 223 84 90 33 156 63 155 69 -3 12
-137 123 -1030 853 -285 232 -518 424 -518 426 0 2 9 57 20 122 11 65 29 174
40 243 23 148 106 649 150 905 10 61 29 173 40 250 12 77 30 186 41 243 22
121 23 132 7 131 -7 -1 -44 -13 -83 -29z"/>
<path d="M15498 23683 c-14 -43 -72 -211 -128 -373 -113 -329 -166 -482 -245
-710 -29 -85 -99 -287 -154 -447 -56 -161 -146 -425 -202 -585 -55 -161 -125
-363 -154 -448 -29 -85 -85 -247 -124 -359 -39 -113 -71 -212 -71 -222 0 -9
10 -19 23 -22 12 -3 108 -35 212 -72 190 -66 374 -130 535 -185 47 -16 171
-59 275 -95 105 -37 235 -81 290 -100 55 -18 192 -66 305 -105 266 -92 408
-140 418 -140 5 0 46 109 91 243 46 133 91 264 102 291 25 64 24 82 -3 89 -13
3 -108 35 -213 72 -104 37 -235 82 -290 100 -91 31 -260 90 -610 211 -71 25
-140 48 -152 51 -28 7 -28 5 2 95 100 287 140 404 166 483 16 50 37 109 45
132 l16 41 232 -80 c127 -44 362 -125 521 -180 160 -55 321 -110 358 -124 l68
-23 14 32 c7 18 41 113 75 212 34 99 75 218 91 264 16 47 29 90 29 97 0 6 -42
26 -92 43 -51 17 -178 60 -283 96 -104 37 -242 84 -305 105 -63 22 -200 69
-305 104 -104 36 -191 66 -191 66 -1 0 14 44 33 98 128 370 157 453 171 498
l17 52 245 -85 c135 -47 263 -91 285 -98 22 -7 153 -52 290 -100 414 -143 427
-147 435 -139 5 5 34 83 65 174 31 91 77 225 102 298 25 73 44 134 42 136 -2
2 -78 28 -169 59 -157 54 -298 102 -955 329 -159 55 -335 115 -390 134 -55 18
-185 63 -289 99 -104 36 -192 65 -196 65 -4 0 -18 -35 -32 -77z"/>
<path d="M18503 22218 c-93 -134 -271 -387 -394 -563 -124 -176 -427 -608
-674 -960 -441 -629 -553 -789 -654 -932 -28 -39 -54 -78 -57 -86 -4 -10 45
-50 163 -133 92 -65 191 -133 218 -153 28 -19 266 -186 530 -371 264 -185 558
-391 653 -458 95 -67 177 -122 181 -122 4 0 52 64 106 143 55 78 139 198 187
266 49 68 88 127 86 132 -2 4 -51 42 -110 83 -203 142 -234 163 -608 425 -206
145 -376 264 -378 266 -2 2 13 27 34 57 21 29 63 89 94 133 31 44 72 103 91
130 20 28 84 119 142 203 59 83 155 221 214 305 112 160 142 203 233 330 59
84 59 84 222 318 60 85 151 215 204 289 52 74 115 164 140 200 24 36 77 112
119 170 41 58 75 110 75 117 0 6 -35 36 -77 65 -43 30 -185 129 -315 221 -131
92 -242 167 -246 167 -5 0 -85 -109 -179 -242z"/>
<path d="M4614 21089 c-208 -182 -380 -337 -382 -343 -1 -7 14 -48 33 -91 20
-44 47 -102 60 -130 46 -101 114 -251 133 -295 52 -119 194 -435 231 -513 22
-48 41 -89 41 -92 0 -2 17 -41 39 -87 21 -46 67 -146 101 -223 136 -307 277
-618 369 -818 23 -49 41 -90 41 -92 0 -4 135 -303 186 -413 19 -40 34 -74 34
-77 0 -2 19 -46 43 -97 24 -51 66 -143 93 -205 27 -62 55 -113 62 -113 10 0
499 418 595 509 19 19 14 33 -155 381 -203 417 -219 453 -206 465 7 7 159 139
338 295 179 156 335 292 347 303 l22 20 63 -40 c35 -23 145 -92 245 -154 101
-63 246 -153 323 -202 l141 -87 282 246 c155 136 297 260 315 275 17 16 32 33
32 38 0 5 -26 24 -57 43 -32 20 -130 79 -218 133 -88 54 -200 123 -250 153
-49 30 -135 83 -190 117 -55 34 -242 149 -415 255 -173 106 -355 218 -405 248
-49 31 -115 71 -145 90 -30 18 -300 184 -600 368 -300 184 -589 361 -642 394
-53 33 -103 63 -111 66 -9 3 -159 -122 -393 -327z m581 -625 c167 -115 645
-422 895 -577 33 -21 58 -42 55 -47 -4 -6 -113 -103 -243 -217 -130 -114 -239
-210 -242 -213 -3 -3 -15 -13 -27 -24 l-22 -18 -24 53 c-13 30 -94 200 -180
379 -140 292 -191 392 -301 595 -116 211 -120 221 -95 199 13 -11 96 -70 184
-130z"/>
<path d="M21170 20374 c-36 -30 -155 -129 -265 -219 -110 -90 -297 -243 -415
-340 -118 -97 -255 -210 -305 -250 -49 -41 -133 -109 -185 -151 -52 -43 -219
-180 -370 -304 -151 -124 -311 -255 -355 -291 -472 -385 -661 -542 -664 -551
-2 -5 12 -26 31 -46 19 -21 187 -224 374 -452 186 -228 383 -469 437 -535 55
-66 190 -231 300 -367 111 -136 207 -247 213 -248 10 0 448 352 498 400 18 18
16 21 -60 112 -83 99 -355 429 -438 532 -27 34 -108 132 -180 219 -179 217
-166 194 -127 224 18 14 137 112 265 217 128 105 329 270 447 366 117 96 304
249 414 340 111 91 309 253 440 360 131 107 295 242 364 299 69 57 134 109
143 115 10 6 18 15 18 21 -1 17 -485 600 -500 602 -8 1 -44 -23 -80 -53z"/>
<path d="M2305 18533 c-37 -82 -87 -188 -111 -238 -23 -49 -71 -153 -107 -230
-36 -77 -81 -175 -101 -218 -21 -43 -36 -82 -34 -87 2 -5 73 -73 158 -151 85
-78 211 -195 280 -259 491 -457 711 -649 1244 -1080 71 -57 124 -106 118 -108
-7 -2 -35 3 -64 12 -29 8 -107 26 -173 41 -66 14 -158 34 -205 45 -47 10 -132
28 -190 38 -58 11 -157 30 -220 42 -63 12 -146 28 -185 36 -66 13 -263 43
-418 64 -38 5 -105 16 -150 24 -45 8 -149 24 -232 36 -82 11 -188 27 -235 35
-47 8 -119 19 -160 25 -41 5 -87 13 -101 16 -24 4 -28 0 -48 -46 -12 -27 -39
-87 -60 -132 -21 -46 -89 -191 -151 -323 -61 -132 -132 -284 -157 -338 -29
-60 -43 -101 -37 -107 8 -8 231 -131 494 -272 41 -23 80 -44 85 -48 6 -4 60
-33 120 -65 61 -32 119 -64 130 -71 11 -6 74 -41 140 -77 66 -35 170 -91 230
-124 61 -33 139 -76 175 -95 36 -20 157 -86 270 -148 113 -61 264 -144 335
-182 72 -39 165 -91 207 -114 42 -24 79 -44 82 -44 3 0 31 -15 63 -34 32 -18
90 -50 128 -71 227 -123 417 -227 465 -254 30 -17 61 -31 68 -31 7 0 31 39 54
88 22 48 52 114 68 147 189 402 194 415 184 424 -5 5 -72 41 -149 81 -77 40
-210 110 -295 155 -85 45 -227 119 -315 165 -244 126 -386 200 -430 225 -22
12 -98 53 -170 90 -71 37 -175 91 -230 120 -55 29 -206 107 -335 173 -369 189
-417 214 -390 208 116 -29 161 -39 270 -65 223 -54 686 -147 825 -167 22 -3
83 -14 135 -24 52 -10 138 -25 190 -34 176 -29 345 -57 400 -66 134 -21 494
-82 590 -99 58 -11 126 -22 151 -26 l45 -6 79 168 c43 92 100 215 127 272 27
57 48 110 46 117 -2 7 -239 228 -528 490 -289 262 -577 525 -640 583 -152 142
-413 370 -641 560 -231 194 -223 186 -179 167 19 -8 62 -28 95 -44 105 -51
709 -315 1035 -452 107 -45 236 -99 285 -120 50 -21 178 -75 285 -119 107 -45
215 -90 240 -101 25 -10 88 -37 140 -59 52 -22 143 -60 202 -85 59 -25 113
-46 121 -46 8 0 22 15 30 33 8 17 64 138 125 267 60 129 124 265 141 302 17
37 31 73 31 81 0 15 -24 27 -155 78 -79 31 -237 93 -325 129 -43 17 -134 54
-347 139 -54 21 -172 69 -263 106 -91 36 -203 81 -250 99 -47 19 -474 189
-949 380 -475 190 -869 346 -876 346 -6 0 -42 -66 -80 -147z"/>
<path d="M12766 18531 c-3 -4 -34 -14 -68 -21 -133 -26 -394 -100 -509 -145
-49 -19 -91 -35 -94 -35 -3 0 -5 11 -5 25 0 38 -36 48 -100 27 -45 -14 -52
-14 -60 -2 -7 12 -12 8 -21 -18 -10 -30 -14 -33 -43 -27 -63 13 -128 37 -133
51 -8 22 -25 16 -68 -26 -40 -40 -55 -43 -55 -10 0 26 -16 28 -100 13 -173
-30 -210 -35 -308 -40 -85 -4 -110 -2 -143 12 -21 10 -39 22 -39 28 0 5 -6 7
-12 4 -237 -101 -711 -261 -1012 -342 -54 -14 -168 -50 -253 -80 -141 -49
-158 -57 -211 -107 -79 -72 -210 -140 -253 -131 -27 5 -31 4 -26 -10 10 -25
142 -221 221 -327 39 -52 74 -99 78 -105 11 -15 17 -3 38 74 40 141 104 236
188 277 20 10 67 20 104 22 55 3 76 0 120 -20 110 -51 156 -123 168 -267 10
-107 39 -208 106 -369 116 -277 472 -872 523 -872 25 0 291 93 291 102 0 4
-13 8 -29 8 -43 0 -57 52 -23 84 18 15 23 14 86 -19 97 -50 154 -49 284 6 111
48 193 59 256 37 35 -13 49 -12 125 4 147 31 295 40 448 29 267 -21 379 -12
541 42 l72 24 0 -32 c0 -45 36 -61 87 -40 29 12 38 13 44 3 6 -10 54 -13 191
-13 101 0 189 -4 197 -9 16 -10 31 9 31 41 0 33 16 36 46 8 17 -16 36 -24 47
-21 14 3 16 0 12 -15 -9 -26 11 -24 59 6 l40 24 11 -22 c16 -32 49 -44 158
-55 72 -8 104 -16 124 -31 23 -19 40 -21 143 -21 121 0 202 -10 282 -36 35
-11 52 -24 67 -50 28 -48 255 -190 346 -217 28 -8 91 -31 140 -52 50 -21 128
-53 175 -72 114 -46 224 -105 346 -186 55 -37 105 -67 110 -67 5 0 16 15 25
32 18 38 29 43 54 24 16 -12 17 -16 6 -29 -25 -31 6 -68 93 -110 49 -24 80
-46 83 -58 9 -34 33 -22 33 16 0 36 -3 38 -53 50 -40 8 -35 49 6 53 35 4 67
-22 60 -49 -4 -16 0 -19 26 -19 l31 0 -7 -62 c-3 -35 -10 -71 -14 -80 -5 -9
-9 -21 -9 -26 0 -5 66 -42 148 -82 292 -144 452 -254 456 -316 1 -17 16 -49
34 -71 37 -47 41 -79 12 -88 -32 -10 -23 -31 20 -45 48 -16 64 -6 92 60 29 67
42 72 87 34 l31 -26 -24 -29 c-13 -15 -26 -34 -28 -41 -4 -10 -8 -10 -22 1 -9
8 -20 11 -24 6 -4 -4 15 -27 41 -51 30 -27 43 -44 33 -44 -24 0 -19 -16 12
-35 15 -10 37 -31 50 -46 13 -16 54 -50 90 -76 744 -522 1319 -1044 1852
-1683 331 -397 690 -927 925 -1368 39 -73 73 -132 77 -132 10 0 15 21 38 154
11 65 20 154 20 196 0 82 5 90 51 90 27 0 24 11 -15 49 l-34 33 -5 401 c-5
341 -9 422 -26 532 -48 296 -49 299 -110 398 -70 113 -114 210 -116 257 -1 19
-18 69 -37 110 -31 65 -74 167 -124 290 -19 47 -88 244 -125 353 -16 49 -26
93 -23 99 4 5 17 8 30 5 33 -6 30 9 -10 46 -34 32 -56 99 -56 167 0 46 -27 38
-35 -10 -6 -34 -9 -39 -22 -29 -32 27 -45 81 -39 166 4 66 2 82 -10 87 -26 10
-114 70 -114 78 0 5 7 8 15 8 8 0 15 7 15 15 0 9 -9 15 -25 15 -30 0 -30 6 -8
62 l17 42 -75 68 c-41 38 -95 79 -121 91 -39 18 -47 27 -48 50 0 17 5 27 15
27 8 0 15 4 15 9 0 30 -259 440 -278 441 -8 0 -11 -7 -8 -17 23 -79 16 -92
-37 -70 -32 14 -107 82 -107 98 0 4 9 5 19 2 32 -8 61 30 61 81 0 24 3 51 6
60 5 13 -1 16 -25 16 -27 0 -31 -3 -31 -27 0 -16 -4 -34 -9 -42 -11 -18 -29
-7 -125 74 -74 63 -99 97 -66 88 27 -7 25 10 -5 42 -16 18 -30 53 -41 103 -23
108 -40 140 -83 158 -20 8 -45 23 -56 33 -43 39 -63 44 -100 22 -32 -18 -34
-18 -49 -2 -21 23 -21 23 10 56 31 34 28 56 -11 67 -62 16 -165 146 -165 207
0 21 -3 23 -35 17 -58 -11 -106 26 -204 156 -49 66 -79 88 -119 88 -27 0 -31
5 -48 60 -11 33 -23 60 -27 60 -4 0 -21 -10 -37 -21 -39 -29 -120 -37 -143
-14 -21 20 -22 69 -2 125 8 23 15 46 15 51 0 12 -27 0 -87 -38 -29 -18 -54
-33 -57 -33 -2 0 -33 34 -68 76 -34 41 -106 110 -158 152 -115 93 -425 303
-535 362 -44 23 -122 65 -174 93 -124 66 -263 144 -442 250 -156 93 -131 84
-439 147 -516 106 -530 109 -530 135 0 8 -6 15 -13 15 -12 0 -140 49 -229 88
-32 14 -50 17 -54 10 -7 -12 -7 -12 95 -70 l74 -43 -61 -3 c-55 -3 -80 4 -219
56 -159 60 -197 72 -333 110 -204 57 -356 76 -544 70 -109 -4 -138 -8 -173
-26 -23 -12 -60 -22 -82 -22 -34 0 -45 6 -83 46 -56 59 -91 78 -136 70 -21 -3
-32 -2 -26 4 5 5 24 10 43 12 51 5 53 28 2 28 -22 0 -42 -4 -45 -9z"/>
<path d="M8542 18358 c-64 -190 -82 -315 -89 -613 -6 -271 7 -447 57 -740 67
-393 292 -1099 451 -1416 l48 -96 -117 120 c-161 164 -383 364 -732 657 -452
379 -616 525 -851 760 -323 322 -473 507 -564 698 -22 45 -42 82 -45 82 -11 0
-40 -141 -52 -256 -9 -90 -9 -145 0 -250 49 -538 244 -1121 642 -1915 124
-248 203 -453 260 -671 52 -202 68 -300 81 -500 20 -282 -10 -538 -90 -776
-76 -228 -175 -396 -329 -554 -150 -155 -275 -231 -474 -292 -162 -49 -263
-66 -395 -66 -260 0 -417 66 -520 220 -50 74 -53 69 -17 -20 80 -198 180 -355
316 -496 218 -226 409 -343 665 -408 88 -23 123 -26 262 -26 389 0 640 79 951
298 215 153 416 400 550 677 92 189 149 366 237 735 7 32 40 -107 82 -345 46
-263 55 -370 56 -645 0 -305 -18 -452 -82 -663 -14 -48 -24 -90 -20 -93 9 -9
195 74 294 132 177 104 325 242 465 434 238 328 359 617 452 1080 38 191 29
191 120 -1 152 -319 214 -649 203 -1074 -5 -199 -30 -394 -72 -554 -25 -97
-27 -95 73 -60 481 170 808 617 973 1332 89 386 126 929 80 1172 -79 411 -167
688 -315 985 -114 228 -261 450 -431 650 -152 180 -263 343 -414 613 -204 365
-313 640 -329 830 -6 67 -10 82 -25 85 -40 8 -100 -211 -161 -588 l-14 -85
-134 136 c-209 211 -375 430 -593 779 -107 173 -268 487 -348 684 -30 72 -58
131 -63 133 -6 2 -24 -38 -42 -89z"/>
<path d="M22740 18308 c-194 -80 -578 -199 -860 -268 -69 -17 -159 -39 -200
-49 -41 -11 -105 -25 -142 -31 -44 -8 -68 -17 -68 -26 0 -7 4 -15 9 -18 4 -3
66 -87 137 -186 l128 -180 121 0 c338 0 854 61 1283 151 82 17 102 25 97 37
-3 8 -53 85 -112 171 -59 86 -148 217 -199 291 -50 74 -97 136 -105 137 -8 1
-48 -12 -89 -29z"/>
<path d="M8153 17191 c-62 -16 -383 -220 -383 -244 0 -7 13 -23 29 -37 16 -14
91 -79 167 -145 203 -177 407 -345 417 -345 5 0 7 8 4 18 -51 172 -104 401
-130 559 -36 218 -33 211 -104 194z"/>
<path d="M22650 17178 c-76 -11 -191 -49 -275 -91 -194 -97 -342 -260 -426
-471 -25 -61 -66 -215 -80 -298 -5 -34 -14 -223 -19 -418 -4 -195 -13 -384
-20 -420 -17 -98 -74 -207 -133 -251 -135 -101 -304 -87 -430 37 -125 124
-208 320 -268 634 -18 93 -22 153 -23 318 -1 174 -3 202 -16 202 -24 0 -254
-28 -365 -44 -55 -8 -141 -20 -192 -27 l-92 -12 -7 -45 c-11 -70 3 -303 25
-432 26 -150 77 -349 116 -450 83 -216 132 -316 230 -465 182 -276 401 -453
662 -531 80 -25 103 -27 253 -27 204 -1 297 20 465 105 232 117 376 283 460
533 63 189 85 388 85 788 0 268 11 351 61 455 51 105 155 162 270 149 146 -18
277 -161 360 -397 64 -178 91 -340 92 -537 0 -79 3 -143 6 -143 8 0 381 36
522 51 63 6 120 13 127 15 24 7 10 279 -24 459 -24 124 -89 339 -139 460 -177
427 -452 710 -805 828 -102 34 -282 45 -420 25z"/>
<path d="M6603 15953 c-352 -381 -715 -872 -930 -1258 -25 -44 -60 -107 -80
-140 -63 -109 -112 -209 -236 -485 -93 -209 -137 -323 -197 -510 -29 -91 -67
-210 -85 -265 -74 -229 -171 -734 -194 -1015 -28 -333 -32 -540 -17 -756 9
-115 20 -244 26 -285 6 -41 15 -117 21 -169 19 -190 168 -693 251 -846 23 -44
66 -116 95 -162 29 -45 59 -97 67 -115 7 -18 32 -54 54 -80 23 -26 56 -68 73
-93 22 -32 34 -43 42 -35 11 11 -3 33 -78 134 l-35 47 47 -36 c37 -28 54 -35
80 -32 42 5 49 -14 28 -73 -20 -60 -19 -86 4 -92 23 -6 31 0 31 24 0 32 29 49
80 49 57 0 91 11 120 40 l21 21 10 -31 c7 -19 18 -30 30 -30 22 0 24 16 4 50
-19 33 -19 60 1 60 9 0 12 5 8 11 -4 8 -27 9 -66 5 l-60 -6 7 37 c8 46 33 95
44 89 5 -3 6 -17 3 -32 -4 -20 -1 -25 9 -22 9 3 15 23 17 57 3 49 2 52 -17 46
-23 -7 -145 51 -174 83 -21 23 -40 82 -26 82 5 0 9 17 9 38 0 51 12 65 55 66
31 2 39 7 49 31 l12 29 13 -31 c16 -38 66 -87 80 -79 15 9 14 93 -1 102 -6 4
-16 0 -23 -9 -15 -21 -25 -12 -25 24 0 28 19 39 68 39 22 0 23 3 18 58 -3 31
-3 49 0 39 7 -23 38 -18 42 6 2 10 -10 47 -27 84 l-31 66 20 22 c25 27 25 36
-2 110 -15 42 -19 70 -14 90 l8 30 20 -24 c16 -21 22 -23 36 -13 9 7 28 20 42
29 25 16 25 16 23 152 -2 97 0 129 7 113 12 -28 25 -22 34 14 5 17 0 37 -13
60 -20 33 -20 35 -2 118 22 100 25 106 55 106 26 0 36 22 36 81 0 29 -7 42
-40 72 -41 36 -44 45 -34 85 10 36 24 25 24 -17 0 -46 11 -57 39 -39 17 10 21
25 23 96 3 78 4 82 21 69 10 -7 22 -28 25 -45 4 -18 11 -34 15 -35 6 -1 33 55
37 79 0 0 -54 49 -119 107 -200 178 -316 333 -435 576 -84 173 -110 256 -103
325 14 134 116 226 252 226 36 0 80 -6 99 -14 47 -20 101 -70 132 -124 70
-123 126 -147 339 -147 123 0 153 4 244 29 182 50 215 67 311 158 48 46 116
110 151 143 35 33 73 77 84 97 l20 38 -23 16 -23 15 49 44 c88 79 131 145 162
249 91 301 87 706 -10 1071 -60 229 -110 354 -264 668 -98 200 -256 544 -326
715 -5 12 -13 22 -18 22 -5 0 -50 -44 -99 -97z"/>
<path d="M14250 15281 c-25 -5 -72 -18 -104 -30 -189 -67 -340 -239 -381 -436
-19 -89 -19 -134 0 -230 41 -216 201 -389 425 -460 257 -82 715 -288 1053
-473 1117 -614 2041 -1442 2703 -2422 353 -523 672 -1183 849 -1757 63 -206
102 -282 189 -369 114 -114 258 -174 419 -174 371 0 656 360 571 720 -8 36
-48 164 -88 285 -428 1282 -1142 2404 -2130 3344 -819 780 -1827 1429 -2869
1847 -341 137 -511 178 -637 155z"/>
<path d="M13852 13615 c-64 -18 -132 -64 -166 -114 -14 -20 -115 -218 -224
-441 -110 -223 -378 -765 -597 -1205 -219 -440 -486 -980 -595 -1200 -109
-220 -533 -1077 -944 -1904 -410 -827 -746 -1508 -746 -1513 0 -4 2 -8 4 -8 5
0 664 158 986 236 102 25 325 78 495 119 171 41 499 120 730 176 740 178 814
196 1175 283 470 113 1507 362 3060 736 366 88 695 167 733 176 237 55 325
317 166 498 -17 19 -55 47 -85 61 -85 40 -131 41 -274 7 -69 -17 -278 -67
-465 -112 -545 -131 -678 -163 -1075 -259 -1490 -358 -1916 -461 -2830 -681
-228 -55 -602 -145 -830 -200 -228 -55 -478 -115 -555 -134 -77 -19 -141 -33
-143 -32 -1 2 192 394 429 872 237 478 529 1067 649 1309 216 436 598 1208
1168 2355 291 587 295 596 300 667 5 91 -15 156 -69 217 -74 84 -192 120 -297
91z"/>
<path d="M2132 13401 c-16 -53 -15 -272 2 -351 8 -36 28 -105 45 -155 16 -49
28 -92 25 -94 -2 -3 -23 13 -47 36 -23 22 -73 66 -112 98 -117 96 -284 266
-306 313 -24 48 -39 50 -51 6 -25 -84 28 -293 127 -504 86 -182 109 -267 103
-384 -10 -205 -120 -326 -296 -326 -69 0 -76 2 -102 30 -15 17 -31 30 -34 30
-28 0 38 -113 100 -171 78 -72 109 -84 214 -84 88 0 101 3 162 33 105 51 187
153 228 281 l17 54 12 -77 c15 -102 14 -158 -4 -235 -9 -35 -13 -67 -10 -70 8
-7 103 43 135 72 68 61 123 154 154 260 l23 80 22 -64 c36 -106 39 -255 6
-342 -18 -45 85 -4 148 60 89 88 135 219 144 409 5 110 3 128 -21 214 -35 119
-69 187 -149 291 -35 46 -82 116 -104 154 -40 68 -83 178 -83 210 0 26 -21 16
-34 -17 -8 -18 -17 -53 -21 -78 l-8 -44 -34 39 c-59 68 -147 207 -183 288 -18
42 -39 77 -45 77 -7 0 -17 -17 -23 -39z"/>
<path d="M22696 13431 c-16 -24 -28 -166 -22 -251 7 -97 44 -260 78 -338 10
-24 18 -45 18 -48 0 -2 -72 57 -160 132 -170 145 -286 262 -316 322 -11 20
-20 39 -22 42 -2 3 -10 -4 -18 -14 -18 -26 -18 -132 1 -212 23 -99 53 -180
120 -324 77 -165 110 -287 102 -380 -11 -134 -74 -244 -166 -292 -45 -24 -65
-28 -131 -28 -75 0 -79 1 -103 30 -14 17 -31 30 -37 30 -29 0 39 -119 100
-174 74 -67 114 -81 220 -80 87 0 100 3 159 33 35 18 86 55 112 82 45 46 119
179 119 213 0 9 4 16 9 16 22 0 29 -216 9 -299 -6 -28 -9 -54 -5 -57 9 -10 89
32 135 71 56 48 127 166 148 245 10 36 20 69 24 73 10 11 39 -85 50 -164 9
-61 5 -107 -16 -206 -6 -30 -4 -33 18 -33 57 0 159 93 207 187 31 62 61 194
67 303 6 83 3 108 -20 194 -32 118 -73 200 -165 323 -100 134 -171 274 -171
338 0 15 -6 25 -14 25 -17 0 -33 -40 -42 -103 l-6 -49 -34 33 c-49 47 -140
187 -185 284 -36 80 -51 97 -63 76z"/>
<path d="M15013 12545 c-135 -29 -283 -132 -357 -248 -59 -91 -79 -167 -74
-278 3 -83 8 -104 35 -160 61 -123 148 -197 286 -244 135 -45 291 -32 436 37
79 37 202 156 243 234 195 366 -139 752 -569 659z"/>
<path d="M17555 11008 c-5 -66 -43 -248 -66 -321 -10 -33 -4 -51 33 -98 18
-22 26 -42 22 -52 -8 -23 -21 -21 -29 3 -10 33 -50 26 -68 -12 -45 -96 -45
-183 -3 -292 44 -111 56 -156 56 -211 0 -64 -14 -105 -35 -105 -10 0 -15 -10
-15 -30 0 -35 7 -36 95 -15 81 19 251 19 329 -1 177 -45 337 -174 416 -337
158 -327 28 -705 -299 -867 -42 -21 -160 -54 -374 -106 -359 -86 -574 -138
-667 -161 -49 -12 -73 -24 -96 -49 -36 -39 -50 -42 -57 -14 -9 35 -36 14 -31
-23 3 -22 -2 -43 -18 -69 -26 -41 -171 -160 -190 -156 -9 2 -15 -18 -19 -62
-3 -35 -11 -66 -18 -68 -19 -6 -13 -34 7 -28 57 17 69 17 93 -3 19 -16 21 -20
7 -21 -24 0 -56 -46 -64 -89 -14 -84 -35 -140 -60 -160 -35 -27 -44 -26 -44 4
0 18 7 28 25 35 32 12 32 22 -7 116 -27 64 -33 93 -33 152 0 49 -4 72 -12 72
-6 0 -14 -9 -18 -19 -12 -39 -44 -69 -66 -64 -20 5 -20 4 -9 -18 7 -13 21 -36
32 -51 l18 -27 -45 -37 c-49 -42 -75 -87 -75 -131 0 -37 8 -45 31 -33 17 10
17 8 4 -25 -8 -19 -15 -54 -15 -79 0 -25 -5 -48 -12 -52 -7 -4 -8 -3 -4 4 17
28 -43 8 -115 -38 -89 -57 -137 -65 -163 -28 -21 29 -21 59 -1 52 12 -5 15 2
15 30 0 20 -3 36 -6 36 -3 0 -19 -11 -36 -25 -33 -28 -48 -32 -48 -11 0 15
-24 28 -34 19 -3 -3 -1 -14 4 -24 13 -22 -30 -75 -84 -104 -43 -23 -44 -34
-11 -65 26 -24 32 -72 16 -114 -6 -16 -12 -11 -40 33 -38 58 -75 91 -103 91
-33 0 -75 -28 -88 -59 -15 -36 -7 -51 22 -43 13 3 19 1 15 -5 -4 -6 -28 -14
-54 -17 -71 -10 -138 -34 -158 -56 -10 -11 -30 -20 -44 -20 -32 0 -121 41
-140 64 -13 15 -15 15 -33 -4 -11 -12 -53 -37 -93 -56 -80 -38 -100 -56 -111
-98 l-7 -29 44 6 c36 4 51 14 84 50 45 50 72 67 108 67 22 0 26 -6 32 -41 4
-22 5 -42 3 -43 -27 -23 -198 -131 -221 -141 -18 -7 -44 -11 -60 -8 -20 4 -27
1 -27 -11 0 -10 8 -16 23 -16 49 0 48 -19 -6 -88 -107 -137 -189 -204 -204
-166 -7 19 17 46 62 70 19 10 34 23 32 29 -8 22 -60 15 -130 -18 -39 -19 -82
-38 -94 -42 -40 -11 -25 5 22 26 25 11 45 24 45 29 0 4 3 15 6 24 10 26 -20
19 -86 -21 -49 -29 -63 -34 -70 -23 -5 8 -4 22 2 33 22 41 -9 35 -45 -8 -41
-49 -42 -65 -2 -57 20 3 25 0 25 -17 0 -23 -13 -27 -95 -34 -62 -5 -180 -69
-241 -132 -23 -23 -66 -91 -98 -153 -31 -61 -60 -113 -65 -116 -5 -3 -16 3
-26 14 -18 19 -17 20 4 20 16 0 26 10 36 34 8 19 19 37 25 41 13 8 13 35 0 35
-5 0 -19 -9 -30 -20 -49 -49 -170 7 -170 77 0 27 -8 29 -38 7 -29 -20 -28 -38
4 -59 14 -9 22 -20 18 -24 -5 -4 -44 -16 -88 -27 -87 -21 -103 -37 -63 -66 15
-11 27 -26 27 -33 0 -56 -203 -115 -230 -66 -15 29 -12 41 11 41 39 0 13 25
-29 28 -72 5 -148 -54 -108 -84 15 -11 11 -16 -38 -49 -35 -23 -59 -47 -62
-62 -4 -16 -11 -22 -21 -19 -8 3 -21 6 -29 6 -21 0 -17 21 6 27 23 6 26 23 8
41 -22 22 -47 12 -84 -33 -36 -43 -39 -44 -83 -39 -84 10 -91 13 -91 39 0 30
-20 33 -27 5 -10 -37 -75 -38 -116 -2 -14 12 -22 14 -35 5 -18 -11 -20 -24 -8
-60 7 -22 5 -23 -41 -23 -26 0 -64 -3 -84 -6 l-36 -6 -12 76 c-7 42 -10 90 -6
106 4 19 3 30 -4 30 -16 0 -51 -61 -51 -88 0 -29 -15 -58 -34 -65 -10 -4 -13
-1 -9 9 3 9 -12 31 -42 58 -45 42 -47 46 -40 83 6 40 6 40 -39 62 -37 17 -65
21 -140 21 -118 0 -146 -9 -146 -49 0 -23 7 -32 38 -46 68 -32 68 -37 7 -56
-66 -20 -115 -51 -192 -120 -72 -66 -128 -92 -182 -83 -44 7 -49 4 -26 -20 13
-13 11 -15 -18 -21 -17 -4 -47 -16 -64 -27 -29 -17 -33 -18 -33 -3 0 30 -38
91 -85 134 -62 58 -136 91 -202 91 -47 0 -53 -2 -53 -20 0 -11 16 -43 35 -71
19 -28 35 -57 35 -64 0 -8 -21 -15 -56 -20 -65 -8 -77 -3 -34 15 16 7 30 19
30 27 0 11 -5 13 -17 7 -44 -20 -97 -9 -160 34 -67 45 -84 50 -106 28 -12 -12
-19 -3 -50 60 -22 43 -43 74 -52 74 -19 0 -19 -15 1 -46 12 -17 14 -28 7 -35
-16 -16 -192 -41 -251 -37 -56 5 -91 29 -118 81 -8 15 -21 27 -29 27 -18 0
-18 -2 -3 -51 8 -29 8 -45 0 -64 -16 -35 -42 -33 -42 4 0 44 -32 75 -110 105
l-71 28 19 22 c29 32 35 66 11 66 -10 0 -19 -3 -19 -7 0 -5 -7 -16 -14 -26
-14 -18 -16 -18 -55 5 -36 20 -41 26 -35 51 7 34 -12 36 -28 2 -13 -28 -64
-55 -105 -54 -15 0 -57 6 -93 13 l-65 12 3 37 c3 40 -17 59 -73 73 -43 10 -54
22 -61 65 -7 43 -15 47 -35 23 -24 -29 -56 -34 -130 -22 -54 9 -77 9 -101 0
-51 -19 -60 -3 -52 90 4 43 3 78 0 78 -4 0 -16 -5 -27 -10 -16 -9 -24 -5 -50
25 -17 19 -67 65 -110 101 -62 51 -78 70 -74 85 5 15 1 19 -18 19 -14 0 -27
-4 -29 -8 -1 -4 -27 -17 -55 -29 l-53 -22 0 30 c0 29 -1 29 -42 23 -24 -4 -51
-14 -60 -22 -16 -14 -18 -13 -18 2 0 18 -65 54 -77 42 -5 -4 4 -18 19 -31 26
-22 26 -24 8 -40 -17 -15 -21 -14 -68 14 -27 17 -57 31 -66 31 -9 0 -16 7 -16
16 0 14 7 15 46 9 36 -5 45 -4 42 7 -3 7 -19 17 -36 22 -37 10 -37 11 -16 61
18 43 12 79 -9 52 -6 -9 -43 -32 -82 -51 -101 -49 -127 -76 -123 -129 3 -42 2
-42 -33 -45 -24 -2 -40 3 -52 16 -16 17 -16 22 -2 62 28 80 23 85 -45 49 -33
-17 -67 -28 -76 -25 -8 3 -26 31 -40 62 -26 59 -23 73 16 74 8 0 33 16 55 34
36 31 40 39 40 80 l0 46 69 0 c67 0 69 -1 106 -41 21 -23 40 -37 44 -31 10 16
-25 68 -59 88 -26 16 -28 19 -10 22 43 7 48 11 35 27 -9 10 -32 15 -75 15 -93
0 -98 4 -75 48 26 48 25 68 -6 130 -31 63 -60 71 -50 15 4 -21 9 -46 12 -55 7
-23 -12 -24 -20 -1 -5 12 -10 13 -18 5 -8 -8 -20 -4 -45 18 -40 35 -78 47 -98
30 -17 -14 -11 -30 12 -30 8 0 31 -13 50 -30 23 -21 44 -30 68 -30 32 0 35 -3
35 -29 l0 -30 -57 5 c-85 8 -103 13 -103 29 0 8 -7 15 -15 15 -10 0 -15 -10
-15 -28 0 -30 -16 -52 -38 -52 -7 0 -44 12 -80 27 -74 30 -101 32 -114 8 -12
-20 -24 -19 -48 5 -26 26 -25 45 2 47 37 3 46 24 50 116 2 74 1 87 -12 85 -10
-2 -16 -18 -18 -48 -2 -25 -7 -49 -12 -54 -13 -13 -39 36 -46 87 -6 39 -4 47
10 47 21 0 20 7 -5 69 -12 28 -28 51 -35 51 -17 0 -34 -32 -34 -64 0 -14 -4
-26 -8 -26 -8 0 -72 80 -72 89 1 17 117 71 151 71 49 0 44 12 -27 68 -72 57
-107 69 -138 48 -21 -13 -26 -13 -36 -1 -23 28 -30 15 -30 -56 0 -62 -2 -70
-17 -67 -10 2 -22 13 -28 25 -6 15 -25 25 -65 35 -52 12 -55 15 -54 43 1 17 4
44 8 60 8 37 -8 69 -24 45 -5 -8 -10 -28 -10 -43 0 -24 -4 -28 -22 -25 -25 3
-28 34 -6 75 9 19 8 26 -6 42 -30 33 -81 52 -109 42 -20 -8 -26 -6 -37 14 -15
27 -7 45 21 45 28 0 24 20 -21 88 -60 94 -90 154 -90 183 0 17 -9 32 -25 43
-33 22 -55 20 -55 -4 0 -11 -4 -20 -9 -20 -5 0 -5 17 0 40 20 90 -20 178 -163
357 -57 70 -106 132 -109 137 -4 5 -21 -1 -38 -13 l-31 -23 -29 31 c-16 17
-33 31 -39 31 -11 0 14 79 29 95 7 7 17 3 29 -12 20 -25 40 -30 40 -11 0 6
-11 26 -25 44 -46 60 -25 72 39 24 22 -17 47 -30 57 -30 19 0 59 44 59 65 0
16 -70 79 -112 101 -18 9 -46 27 -61 38 -47 35 -75 106 -42 106 19 0 19 29 0
57 -13 19 -13 22 1 27 23 9 50 -9 64 -44 23 -56 59 -26 41 35 -26 90 -57 115
-120 97 -54 -17 -107 -15 -125 4 -10 9 -16 33 -16 59 0 35 5 48 26 64 15 12
35 21 44 21 36 0 43 25 20 77 -21 49 -47 83 -62 83 -13 0 -9 -27 7 -40 25 -21
18 -59 -19 -96 -38 -38 -63 -46 -46 -15 18 35 11 78 -22 127 -29 42 -115 114
-138 114 -14 0 -22 -111 -15 -214 4 -63 2 -119 -5 -150 -13 -57 -6 -66 51 -66
40 0 64 -15 74 -47 5 -20 3 -23 -20 -23 -27 0 -30 -4 -40 -63 -6 -36 -5 -37
18 -32 21 6 27 0 49 -44 27 -56 24 -61 -38 -61 -46 0 -76 -31 -72 -73 3 -35
10 -37 83 -22 37 8 39 7 22 -9 -12 -13 -14 -22 -7 -36 8 -16 4 -19 -38 -25
-45 -7 -48 -6 -78 29 -42 49 -54 46 -54 -11 1 -95 49 -158 173 -229 48 -27 71
-46 69 -56 -1 -9 6 -19 17 -23 25 -8 81 -65 81 -82 0 -17 -4 -17 -50 7 -37 19
-70 18 -70 -1 0 -5 11 -27 24 -48 23 -36 23 -38 5 -34 -40 11 -18 -28 36 -62
79 -51 74 -62 -30 -57 -53 3 -85 1 -85 -5 0 -6 34 -28 75 -49 l75 -38 -7 -41
c-7 -48 -18 -64 -35 -47 -15 15 -28 15 -28 1 0 -6 29 -52 65 -103 l64 -93 -29
-32 c-17 -18 -30 -39 -30 -46 0 -16 42 -30 63 -22 19 7 168 -102 187 -136 14
-27 14 -29 -12 -52 -16 -13 -28 -28 -28 -32 1 -4 22 -21 48 -38 25 -16 85 -66
132 -110 47 -44 103 -95 124 -112 33 -26 37 -33 23 -39 -20 -7 -23 -66 -7
-110 13 -33 8 -39 -20 -24 -29 16 -32 10 -13 -29 19 -38 52 -55 136 -71 63
-13 76 -27 58 -66 -15 -34 -56 -48 -108 -36 -60 13 -58 -11 2 -34 25 -9 45
-22 45 -28 0 -7 22 -18 50 -25 54 -14 67 -32 50 -75 -14 -37 -12 -67 5 -90 13
-18 15 -18 48 3 38 24 47 20 47 -21 0 -18 5 -28 15 -28 8 0 15 5 15 10 0 6 7
10 16 10 24 0 74 -32 74 -47 0 -8 11 -18 24 -24 16 -7 22 -17 19 -29 -3 -10 3
-30 12 -44 28 -43 -1 -29 -41 19 -32 40 -64 58 -64 37 0 -29 151 -164 243
-217 l47 -27 11 30 c8 23 15 29 30 25 30 -8 32 -21 10 -52 -25 -35 -26 -44 -5
-76 20 -30 40 -32 54 -4 11 19 13 18 41 -21 32 -44 89 -85 160 -114 24 -9 78
-34 118 -54 72 -35 74 -36 49 -46 -34 -15 -58 -36 -58 -52 0 -8 6 -14 14 -14
7 0 64 -25 127 -56 137 -67 260 -114 300 -114 27 0 29 -2 29 -41 0 -116 79
-215 192 -243 16 -4 42 0 62 8 30 13 37 12 58 -2 12 -10 64 -37 113 -62 93
-46 100 -56 80 -102 -10 -26 19 -23 36 2 l14 21 55 -23 c30 -13 57 -26 58 -30
8 -17 32 -7 32 13 0 19 4 18 39 -14 47 -43 93 -57 182 -57 36 0 81 -5 100 -11
43 -15 107 -61 91 -67 -7 -2 -12 -10 -12 -18 0 -9 12 -14 37 -14 l36 0 -21
-23 c-42 -44 -33 -51 146 -106 92 -28 173 -51 180 -51 18 0 15 14 -8 35 -11
10 -19 20 -17 22 12 12 111 21 134 12 l26 -10 -22 -15 c-31 -22 -14 -38 64
-59 79 -22 106 -45 51 -45 -26 0 -36 -4 -36 -15 0 -13 11 -15 58 -13 54 3 57
4 60 31 2 15 5 27 7 27 21 0 57 -29 74 -61 13 -22 32 -41 46 -45 36 -9 69 -1
73 18 3 14 -3 18 -25 18 -15 0 -35 5 -43 10 -13 9 -11 14 14 36 38 33 81 30
81 -6 0 -19 5 -24 19 -22 10 2 53 -3 95 -12 42 -8 104 -18 138 -22 77 -8 95
-25 64 -57 -11 -13 -21 -25 -21 -28 0 -2 74 -4 165 -4 150 0 165 -2 165 -17 0
-23 4 -23 50 3 l38 22 55 -47 c30 -25 57 -46 61 -46 12 0 6 23 -11 42 -15 17
-13 18 72 18 l87 0 -16 -25 c-9 -13 -16 -26 -16 -28 0 -2 30 -7 67 -10 37 -4
107 -18 156 -33 87 -25 143 -28 190 -9 14 6 16 4 10 -11 -5 -14 -3 -16 13 -9
71 30 93 30 149 2 63 -31 82 -33 130 -13 29 12 34 12 39 0 3 -7 -3 -18 -14
-24 -23 -12 -26 -30 -6 -30 7 0 34 12 60 26 l46 26 0 -37 c0 -51 19 -41 51 25
l26 54 23 -32 c26 -35 47 -41 57 -16 5 13 8 12 27 -5 39 -37 90 -51 186 -51
70 0 99 -4 129 -20 21 -10 41 -17 44 -14 3 3 -3 28 -13 55 l-19 50 46 29 c98
62 215 80 524 80 269 0 367 11 456 51 l61 27 6 -34 c4 -19 11 -34 15 -34 5 0
38 30 73 67 72 73 104 80 66 13 -16 -28 -20 -42 -12 -50 19 -19 88 41 116 102
20 42 37 61 71 82 40 23 77 27 77 7 0 -3 -20 -19 -45 -34 -25 -16 -45 -36 -45
-44 0 -8 3 -13 8 -11 4 2 93 46 197 100 210 106 303 142 345 133 32 -7 64 20
36 31 -9 3 -16 10 -16 15 0 14 91 56 211 99 60 22 119 45 130 51 19 9 19 9 10
-10 -6 -11 -19 -22 -30 -26 -27 -8 -53 -41 -49 -61 3 -17 5 -16 24 4 11 12 47
33 80 46 l59 24 3 -24 c2 -13 6 -24 8 -24 10 0 71 34 134 74 86 55 139 76 168
65 16 -6 22 -5 22 6 0 7 -4 17 -10 20 -16 10 -11 41 9 59 14 13 28 16 49 11
46 -10 92 15 174 94 88 84 108 100 128 101 9 0 3 -12 -18 -31 -37 -35 -34 -53
6 -38 37 14 60 36 89 87 18 30 28 40 34 31 5 -9 46 25 134 109 105 101 131
121 150 116 36 -9 90 20 166 92 50 47 74 63 81 56 16 -16 48 4 48 28 0 15 -7
20 -26 20 -32 0 -27 24 7 28 13 2 38 17 57 33 38 34 56 37 47 9 -9 -27 7 -25
44 6 l31 26 0 -42 c0 -49 14 -50 47 -2 24 36 38 116 28 161 -5 24 -2 32 17 42
13 6 46 29 74 50 29 21 63 41 77 44 21 6 26 3 29 -17 l3 -23 25 28 c38 44 105
82 238 135 137 56 183 86 221 146 14 23 50 63 79 90 49 47 53 48 59 28 11 -44
30 -20 77 96 43 107 51 118 70 115 18 -4 34 9 73 54 74 86 159 204 242 336 40
64 77 114 82 112 5 -3 15 9 22 27 25 60 71 125 138 196 37 38 84 101 105 141
25 48 41 68 48 61 17 -17 23 -12 30 23 9 49 49 97 118 143 l62 41 -3 103 c-1
57 -7 114 -12 127 -6 15 -5 31 1 43 5 10 10 21 10 23 0 3 -28 25 -62 50 -110
79 -225 212 -288 337 -13 25 -58 151 -101 281 -192 586 -424 1077 -731 1552
-64 98 -88 124 -88 97 0 -20 -21 -9 -38 20 -27 48 -39 37 -47 -42z"/>
<path d="M23550 10880 c-30 -5 -143 -18 -250 -30 -107 -11 -267 -30 -355 -41
-265 -32 -395 -48 -505 -59 -58 -6 -154 -17 -215 -25 -60 -8 -174 -22 -253
-31 l-142 -17 -10 -36 c-5 -20 -16 -74 -24 -121 -9 -47 -24 -130 -34 -185 -11
-55 -22 -120 -26 -145 l-6 -45 117 -60 c65 -33 170 -87 233 -121 63 -33 195
-102 292 -152 98 -50 237 -123 310 -161 336 -176 412 -215 545 -283 78 -40
145 -69 149 -65 4 4 15 51 25 105 10 53 27 144 37 202 11 58 19 106 18 107 -1
1 -95 48 -210 103 l-208 101 7 37 c15 81 57 311 68 373 l11 67 196 21 c299 34
271 24 287 101 15 71 51 273 60 333 6 37 5 37 -28 36 -19 -1 -59 -5 -89 -9z
m-760 -530 c-28 -167 -52 -286 -59 -293 -4 -4 -105 40 -224 98 -120 58 -238
114 -265 124 -26 11 -65 27 -87 37 l-40 18 210 17 c278 22 459 40 464 45 8 8
9 -2 1 -46z"/>
<path d="M3100 10809 c-89 -22 -164 -39 -325 -74 -66 -14 -158 -34 -205 -45
-235 -52 -457 -101 -565 -125 -66 -14 -187 -41 -270 -60 -82 -18 -165 -37
-182 -40 -32 -6 -33 -7 -33 -62 0 -112 64 -431 124 -616 131 -400 368 -635
696 -687 207 -32 469 8 654 101 177 90 291 211 362 387 49 122 58 177 57 352
0 140 -4 186 -28 300 -41 204 -93 394 -147 538 -22 60 -23 60 -138 31z m-73
-497 c26 -73 53 -213 53 -274 -1 -202 -104 -362 -285 -440 -123 -54 -169 -62
-335 -63 l-155 0 -78 37 c-44 21 -100 58 -130 87 -87 82 -157 239 -182 404 -6
39 -4 46 12 50 51 14 161 39 268 62 66 14 188 41 270 60 83 18 236 52 340 75
105 23 192 44 194 46 7 7 14 -4 28 -44z"/>
<path d="M16190 10824 c-162 -26 -258 -72 -357 -170 -55 -54 -81 -89 -110
-150 -34 -71 -38 -88 -41 -177 -4 -83 -1 -107 18 -160 70 -193 247 -310 470
-311 277 0 515 188 561 444 40 224 -113 448 -346 508 -48 13 -160 22 -195 16z"/>
<path d="M13719 10235 c-187 -61 -328 -206 -374 -380 -72 -279 133 -537 446
-562 221 -17 452 115 551 314 39 77 43 93 46 177 5 113 -11 177 -67 263 -48
75 -133 143 -221 179 -55 23 -83 28 -185 31 -107 3 -128 0 -196 -22z"/>
<path d="M21481 9255 c-35 -108 -62 -197 -60 -199 4 -3 220 -74 484 -159 77
-25 244 -79 370 -120 127 -41 345 -111 485 -156 140 -45 275 -89 298 -98 24
-8 47 -11 52 -7 13 16 130 385 125 395 -4 5 -12 9 -20 9 -8 0 -74 20 -147 44
-73 24 -227 74 -343 111 -115 37 -262 84 -325 105 -63 21 -198 65 -300 98
-102 33 -263 85 -358 116 -96 31 -179 56 -186 56 -7 0 -39 -82 -75 -195z"/>
<path d="M3565 9058 c-84 -36 -502 -210 -670 -280 -66 -27 -156 -64 -200 -83
-44 -19 -152 -64 -240 -100 -139 -57 -231 -96 -387 -162 -21 -9 -38 -22 -38
-30 0 -8 13 -45 29 -81 15 -37 48 -115 72 -174 26 -64 50 -108 58 -108 14 0
118 41 316 125 251 106 307 127 315 119 4 -5 20 -40 36 -79 20 -50 29 -87 29
-130 0 -90 -35 -133 -230 -280 -88 -66 -186 -145 -219 -176 l-59 -55 30 -75
c88 -214 125 -304 129 -311 3 -4 62 39 132 95 71 56 164 129 208 162 109 83
234 210 263 268 13 27 25 66 28 87 l5 38 47 -36 c25 -19 75 -49 111 -66 62
-29 71 -31 186 -31 118 0 121 1 195 37 209 103 288 239 276 471 -8 168 -70
352 -214 642 -62 125 -131 248 -137 244 0 -1 -32 -15 -71 -31z m7 -541 c72
-146 85 -239 46 -317 -47 -92 -163 -144 -264 -119 -79 20 -148 98 -205 230
l-46 106 116 46 c64 26 159 64 211 86 52 22 98 41 101 41 3 0 22 -33 41 -73z"/>
<path d="M21470 8641 c-155 -49 -293 -196 -419 -449 -79 -158 -211 -500 -211
-546 0 -4 26 -18 58 -32 51 -23 157 -72 392 -181 41 -20 163 -76 270 -125 107
-50 229 -106 270 -125 41 -19 134 -62 205 -95 72 -33 187 -87 257 -120 70 -33
131 -57 136 -54 11 7 176 365 171 370 -2 2 -94 46 -204 96 -263 121 -415 192
-415 196 0 2 16 37 35 77 80 169 145 192 416 143 226 -41 356 -59 374 -52 9 3
32 41 52 83 19 43 57 125 84 181 27 57 49 110 49 118 0 9 -11 14 -34 14 -40 0
-279 35 -375 54 -222 46 -345 42 -448 -14 l-53 -28 0 33 c0 144 -88 306 -208
382 -93 60 -172 83 -282 82 -52 0 -106 -4 -120 -8z m193 -429 c91 -41 131
-106 131 -212 -1 -67 -6 -87 -48 -186 l-48 -112 -96 45 c-54 25 -137 64 -187
88 -49 23 -100 45 -112 49 -28 9 -28 17 -3 84 90 235 207 314 363 244z"/>
<path d="M4165 7636 c-205 -117 -710 -403 -780 -441 -38 -21 -74 -41 -80 -46
-5 -4 -37 -22 -71 -41 -227 -124 -484 -275 -484 -283 0 -5 30 -62 66 -125 36
-63 79 -141 96 -172 17 -32 35 -58 40 -58 5 0 134 71 286 157 152 86 306 173
342 193 36 20 119 68 185 105 66 37 177 100 246 139 410 232 479 272 479 284
0 8 -8 26 -18 40 -10 15 -54 91 -97 170 -43 78 -83 142 -89 142 -6 0 -60 -29
-121 -64z"/>
<path d="M20390 6988 c-157 -236 -293 -442 -303 -458 l-17 -27 731 -488 c403
-268 737 -488 743 -491 10 -3 628 915 633 941 1 6 -50 44 -114 85 -64 41 -128
83 -144 93 l-28 18 -198 -300 -199 -300 -162 107 c-89 59 -162 110 -162 113 0
4 79 124 175 268 96 144 175 264 174 269 -1 13 -271 183 -284 178 -7 -2 -90
-122 -185 -265 l-172 -260 -57 37 c-31 21 -95 64 -142 95 l-87 57 190 286
c105 156 189 286 187 288 -16 14 -282 186 -287 185 -4 0 -135 -194 -292 -431z"/>
<path d="M4530 7172 c0 -5 -15 -29 -33 -53 -19 -24 -213 -296 -432 -604 -219
-308 -443 -622 -497 -699 -55 -76 -97 -144 -94 -151 9 -24 267 -366 280 -371
6 -2 133 36 281 84 149 49 500 165 780 257 281 92 554 182 608 200 53 17 100
34 103 38 4 3 -53 85 -125 182 -105 140 -136 175 -149 170 -26 -11 -575 -214
-682 -252 -138 -49 -405 -156 -544 -218 l-58 -26 42 48 c84 96 208 251 325
404 327 429 485 639 485 644 0 3 -59 84 -130 180 -113 151 -160 200 -160 167z"/>
<path d="M19679 6037 c-458 -503 -502 -551 -557 -612 l-55 -59 51 -46 c27 -25
84 -75 125 -112 41 -38 79 -68 84 -68 6 0 123 123 259 274 l249 273 31 -131
c17 -72 59 -255 93 -406 35 -151 72 -313 82 -360 11 -47 27 -114 35 -150 8
-36 25 -112 38 -170 14 -58 29 -128 36 -155 10 -45 20 -59 91 -123 45 -40 87
-72 93 -70 7 2 59 55 117 119 116 129 436 480 661 725 81 89 148 166 148 170
0 5 -57 61 -126 123 l-127 114 -41 -45 c-23 -24 -146 -161 -275 -302 -157
-173 -237 -253 -241 -244 -4 7 -14 42 -23 78 -43 178 -125 528 -149 635 -22
102 -27 122 -93 400 -26 110 -50 214 -53 231 -5 21 -33 56 -93 112 -48 45 -91
82 -95 82 -5 0 -124 -128 -265 -283z"/>
<path d="M5300 5424 c-190 -196 -465 -481 -612 -633 -148 -152 -268 -281 -268
-287 0 -5 44 -53 98 -105 53 -52 231 -225 396 -384 164 -160 306 -290 316
-290 10 0 68 53 129 117 l112 117 -178 174 c-98 95 -214 207 -258 249 l-79 76
81 88 c45 49 106 113 137 143 l55 54 231 -223 231 -224 110 110 c61 60 114
116 119 125 8 13 -12 37 -93 115 -56 55 -159 155 -229 224 l-127 125 118 121
119 122 240 -234 c132 -129 244 -234 249 -234 4 0 62 54 128 120 l120 120 -55
54 c-195 190 -740 716 -743 716 -1 0 -158 -160 -347 -356z"/>
<path d="M18623 4987 c-166 -133 -389 -312 -497 -397 -126 -100 -195 -160
-192 -170 5 -23 197 -260 210 -260 6 1 139 104 296 229 157 126 286 228 287
227 3 -3 21 -239 33 -436 6 -96 17 -265 25 -375 8 -110 17 -245 20 -300 3 -55
11 -154 16 -220 10 -117 11 -121 49 -170 21 -27 53 -67 71 -88 l34 -38 500
401 c275 221 517 414 537 428 21 15 37 31 38 36 0 16 -202 261 -216 261 -7 0
-153 -112 -324 -249 -171 -137 -312 -247 -314 -245 -6 6 -54 622 -71 904 -3
44 -12 179 -21 300 l-17 220 -75 93 c-41 50 -77 92 -81 92 -3 -1 -142 -110
-308 -243z"/>
<path d="M7044 4447 c-17 -28 -57 -94 -88 -145 -32 -51 -56 -97 -54 -103 2 -5
31 -27 66 -47 195 -116 322 -197 322 -205 0 -5 -8 -21 -19 -35 -10 -15 -56
-90 -103 -167 -47 -77 -116 -189 -153 -250 -111 -181 -137 -223 -239 -390
-200 -326 -216 -353 -216 -362 0 -11 327 -213 345 -213 7 0 59 75 116 168 56
92 116 190 134 217 18 28 40 64 49 80 9 17 43 73 76 125 32 52 77 124 98 160
144 239 274 445 280 445 7 0 288 -168 353 -211 19 -13 40 -24 45 -24 6 0 24
21 41 48 83 130 143 231 143 244 0 7 -19 24 -43 37 -35 20 -269 163 -747 456
-47 29 -148 91 -226 139 -77 47 -143 86 -145 86 -2 0 -18 -24 -35 -53z"/>
<path d="M17656 4272 c-3 -5 -75 -51 -161 -103 -85 -52 -155 -100 -155 -108 0
-7 40 -77 89 -155 48 -77 141 -226 206 -331 64 -104 128 -207 141 -227 51 -80
75 -119 189 -303 140 -226 297 -479 301 -484 6 -8 354 211 354 223 0 5 -99
167 -219 360 -176 283 -542 871 -680 1093 -24 40 -53 55 -65 35z"/>
<path d="M5923 4049 c-43 -55 -79 -104 -81 -109 -3 -8 527 -417 550 -424 14
-5 168 195 167 216 0 7 -53 52 -117 101 -64 48 -184 139 -267 202 -82 63 -156
115 -162 115 -7 0 -48 -45 -90 -101z"/>
<path d="M16824 3749 c-40 -4 -116 -23 -170 -40 -170 -56 -644 -307 -644 -341
0 -6 15 -43 34 -82 35 -73 54 -113 176 -376 39 -85 87 -186 105 -225 18 -38
80 -171 138 -295 58 -124 127 -272 154 -330 28 -58 67 -142 88 -187 21 -46 42
-83 47 -83 4 0 84 36 177 80 94 44 175 80 181 80 5 0 10 5 10 11 0 9 -103 234
-236 514 -13 27 -22 50 -21 51 1 1 50 24 108 51 58 28 135 70 170 93 82 56
197 171 234 234 75 129 94 280 54 425 -84 300 -307 455 -605 420z m51 -360
c54 -15 127 -91 149 -154 51 -150 -15 -276 -189 -360 -120 -58 -108 -63 -169
67 -167 355 -161 337 -139 354 40 29 122 68 178 85 71 21 115 23 170 8z"/>
<path d="M8385 3678 c-4 -13 -22 -59 -40 -103 -18 -44 -108 -269 -200 -500
-92 -231 -177 -445 -190 -475 -63 -149 -216 -542 -213 -546 13 -13 383 -152
389 -146 4 4 28 61 54 127 45 115 63 159 170 427 l46 117 47 -18 c239 -92 540
-216 538 -220 -2 -3 -56 -139 -120 -301 -65 -162 -125 -312 -133 -333 -19 -43
-15 -48 47 -70 25 -8 101 -39 170 -67 69 -28 134 -49 145 -48 13 2 25 19 37
53 10 28 32 82 48 120 66 158 580 1453 580 1461 0 8 -364 154 -381 154 -4 0
-62 -138 -129 -307 -67 -170 -123 -309 -125 -311 -1 -1 -35 11 -76 28 -41 17
-108 44 -149 60 -104 40 -353 140 -357 143 -1 2 51 138 117 302 66 164 120
307 120 316 0 12 -12 22 -32 28 -18 5 -93 34 -167 65 -173 71 -187 74 -196 44z"/>
<path d="M10045 3038 c-3 -13 -16 -79 -30 -148 -14 -69 -36 -179 -50 -245 -26
-122 -79 -379 -134 -650 -17 -82 -35 -172 -42 -200 -24 -112 -89 -431 -89
-442 0 -6 21 -16 48 -21 203 -45 333 -72 346 -72 11 0 16 9 16 28 0 15 5 43
10 63 13 45 46 198 66 304 8 44 21 109 29 145 8 36 17 80 20 98 l7 32 51 -6
c82 -11 158 -43 198 -84 50 -53 68 -123 74 -305 6 -163 24 -357 34 -372 3 -5
33 -14 66 -21 33 -7 122 -26 198 -43 76 -16 143 -29 149 -29 6 0 8 11 4 28 -3
15 -10 99 -16 187 -29 469 -43 540 -130 638 -34 39 -36 47 -16 47 8 0 49 16
91 35 174 79 274 241 275 445 0 271 -220 460 -625 535 -49 9 -124 23 -166 31
-73 14 -312 43 -356 44 -15 0 -24 -7 -28 -22z m551 -379 c70 -22 127 -53 156
-86 72 -81 59 -233 -28 -312 -69 -64 -158 -76 -326 -44 -97 19 -99 21 -78 93
6 19 21 91 35 160 14 69 30 147 36 174 l12 48 63 -6 c35 -4 94 -16 130 -27z"/>
<path d="M14470 2993 c-113 -19 -238 -75 -311 -141 -65 -58 -104 -116 -135
-199 -23 -60 -25 -80 -22 -168 3 -91 7 -107 41 -178 24 -48 60 -101 99 -142
l60 -65 -64 -69 c-137 -145 -189 -307 -153 -482 20 -100 58 -174 129 -247 103
-107 222 -152 404 -152 227 0 421 72 580 215 l49 44 63 -46 64 -46 90 18 c50
10 138 28 196 40 58 13 122 26 143 29 20 4 37 12 37 19 0 7 -31 32 -67 57 -37
24 -119 84 -184 132 l-118 88 29 58 c68 138 103 297 116 528 5 79 3 123 -3
127 -10 6 -164 -22 -313 -56 l-55 -12 -1 -68 c-4 -195 -33 -373 -61 -363 -11
4 -283 201 -323 234 -3 2 20 27 51 55 77 71 122 131 161 213 30 63 33 77 33
164 0 123 -27 198 -98 276 -60 66 -118 101 -206 126 -61 17 -167 22 -231 11z
m107 -293 c73 -44 95 -163 48 -256 -14 -27 -43 -68 -64 -91 l-39 -43 -54 53
c-94 91 -125 197 -83 282 35 70 126 96 192 55z m5 -877 c73 -54 173 -125 221
-157 48 -33 87 -63 87 -67 0 -15 -77 -73 -130 -98 -74 -35 -194 -37 -255 -4
-120 64 -179 213 -130 328 21 48 53 95 65 95 5 0 69 -44 142 -97z"/>
<path d="M11538 2785 c-5 -5 -8 -56 -8 -115 0 -58 -7 -288 -16 -511 -17 -434
-15 -530 15 -666 57 -260 185 -411 413 -487 147 -50 391 -54 540 -9 157 46
310 170 375 303 84 174 100 272 113 693 5 177 12 419 16 538 l7 216 -84 6
c-46 4 -141 7 -210 7 l-126 0 -6 -192 c-4 -106 -12 -353 -18 -548 -13 -453
-27 -533 -113 -628 -59 -65 -112 -84 -221 -80 -81 3 -97 6 -141 33 -56 35
-104 106 -130 194 -20 68 -21 297 -3 858 7 205 10 375 8 378 -9 8 -404 18
-411 10z"/>
</g>
</svg>
